<ttFont>
    <TTGlyph name=".notdef" xMin="-20" yMin="0" xMax="553" yMax="700">
      <contour>
        <pt x="53" y="700" on="1"/>
        <pt x="553" y="700" on="1"/>
        <pt x="480" y="0" on="1"/>
        <pt x="-20" y="0" on="1"/>
      </contour>
      <contour>
        <pt x="467" y="650" on="1"/>
        <pt x="127" y="650" on="1"/>
        <pt x="271" y="395" on="1"/>
      </contour>
      <contour>
        <pt x="236" y="350" on="1"/>
        <pt x="92" y="605" on="1"/>
        <pt x="39" y="95" on="1"/>
      </contour>
      <contour>
        <pt x="492" y="605" on="1"/>
        <pt x="296" y="350" on="1"/>
        <pt x="439" y="95" on="1"/>
      </contour>
      <contour>
        <pt x="405" y="50" on="1"/>
        <pt x="261" y="305" on="1"/>
        <pt x="65" y="50" on="1"/>
      </contour>
    </TTGlyph>
    <TTGlyph name="A" xMin="-19" yMin="-2" xMax="472" yMax="702">
      <contour>
        <pt x="-19" y="-2" on="0"/>
        <pt x="-17" y="17" on="1"/>
        <pt x="-17" y="20" on="0"/>
        <pt x="-13" y="32" on="1"/>
        <pt x="225" y="679" on="1"/>
        <pt x="234" y="702" on="0"/>
        <pt x="277" y="702" on="1"/>
        <pt x="318" y="702" on="1"/>
        <pt x="361" y="702" on="0"/>
        <pt x="365" y="679" on="1"/>
        <pt x="470" y="32" on="1"/>
        <pt x="472" y="21" on="0"/>
        <pt x="471" y="17" on="1"/>
        <pt x="469" y="-2" on="0"/>
        <pt x="430" y="-2" on="1"/>
        <pt x="399" y="-2" on="1"/>
        <pt x="362" y="-2" on="0"/>
        <pt x="359" y="16" on="1"/>
        <pt x="339" y="162" on="1"/>
        <pt x="148" y="162" on="1"/>
        <pt x="97" y="16" on="1"/>
        <pt x="91" y="-2" on="0"/>
        <pt x="54" y="-2" on="1"/>
        <pt x="22" y="-2" on="1"/>
      </contour>
      <contour>
        <pt x="328" y="256" on="1"/>
        <pt x="294" y="508" on="1"/>
        <pt x="289" y="543" on="0"/>
        <pt x="289" y="575" on="1"/>
        <pt x="284" y="575" on="1"/>
        <pt x="270" y="526" on="0"/>
        <pt x="264" y="508" on="1"/>
        <pt x="175" y="256" on="1"/>
      </contour>
    </TTGlyph>
    <TTGlyph name="AE" xMin="-26" yMin="-2" xMax="714" yMax="700">
      <contour>
        <pt x="-26" y="-2" on="0"/>
        <pt x="-24" y="17" on="1"/>
        <pt x="-22" y="28" on="0"/>
        <pt x="-18" y="34" on="1"/>
        <pt x="300" y="673" on="1"/>
        <pt x="308" y="687" on="0"/>
        <pt x="325" y="700" on="0"/>
        <pt x="338" y="700" on="1"/>
        <pt x="693" y="700" on="1"/>
        <pt x="714" y="700" on="0"/>
        <pt x="714" y="672" on="1"/>
        <pt x="713" y="661" on="1"/>
        <pt x="710" y="639" on="1"/>
        <pt x="708" y="619" on="0"/>
        <pt x="695" y="600" on="0"/>
        <pt x="683" y="600" on="1"/>
        <pt x="447" y="600" on="1"/>
        <pt x="454" y="408" on="1"/>
        <pt x="661" y="408" on="1"/>
        <pt x="681" y="408" on="0"/>
        <pt x="681" y="382" on="1"/>
        <pt x="680" y="369" on="1"/>
        <pt x="678" y="347" on="1"/>
        <pt x="674" y="308" on="0"/>
        <pt x="650" y="308" on="1"/>
        <pt x="457" y="308" on="1"/>
        <pt x="465" y="100" on="1"/>
        <pt x="651" y="100" on="1"/>
        <pt x="671" y="100" on="0"/>
        <pt x="671" y="74" on="1"/>
        <pt x="671" y="66" on="0"/>
        <pt x="670" y="61" on="1"/>
        <pt x="668" y="39" on="1"/>
        <pt x="666" y="19" on="0"/>
        <pt x="653" y="0" on="0"/>
        <pt x="641" y="0" on="1"/>
        <pt x="379" y="0" on="1"/>
        <pt x="353" y="0" on="0"/>
        <pt x="354" y="29" on="1"/>
        <pt x="349" y="162" on="1"/>
        <pt x="158" y="162" on="1"/>
        <pt x="87" y="16" on="1"/>
        <pt x="78" y="-2" on="0"/>
        <pt x="49" y="-2" on="1"/>
        <pt x="21" y="-2" on="1"/>
      </contour>
      <contour>
        <pt x="348" y="262" on="1"/>
        <pt x="342" y="495" on="1"/>
        <pt x="348" y="559" on="1"/>
        <pt x="345" y="559" on="1"/>
        <pt x="317" y="495" on="1"/>
        <pt x="204" y="262" on="1"/>
      </contour>
    </TTGlyph>
    <TTGlyph name="AEacute" xMin="-26" yMin="-2" xMax="714" yMax="910">
      <component glyphName="AE" x="0" y="0" flags="0x0"/>
      <component glyphName="acute" x="351" y="177" flags="0x0"/>
    </TTGlyph>
    <TTGlyph name="Aacute" xMin="-19" yMin="-2" xMax="472" yMax="910">
      <component glyphName="A" x="0" y="0" flags="0x0"/>
      <component glyphName="acute" x="210" y="177" flags="0x0"/>
    </TTGlyph>
    <TTGlyph name="Abreve" xMin="-19" yMin="-2" xMax="472" yMax="892">
      <component glyphName="A" x="0" y="0" flags="0x0"/>
      <component glyphName="breve" x="146" y="177" flags="0x0"/>
    </TTGlyph>
    <TTGlyph name="Acircumflex" xMin="-19" yMin="-2" xMax="472" yMax="895">
      <component glyphName="A" x="0" y="0" flags="0x0"/>
      <component glyphName="circumflex" x="145" y="177" flags="0x0"/>
    </TTGlyph>
    <TTGlyph name="Adieresis" xMin="-19" yMin="-2" xMax="472" yMax="879">
      <component glyphName="A" x="0" y="0" flags="0x0"/>
      <component glyphName="dieresis" x="143" y="177" flags="0x0"/>
    </TTGlyph>
    <TTGlyph name="Agrave" xMin="-19" yMin="-2" xMax="472" yMax="910">
      <component glyphName="A" x="0" y="0" flags="0x0"/>
      <component glyphName="grave" x="138" y="177" flags="0x0"/>
    </TTGlyph>
    <TTGlyph name="Amacron" xMin="-19" yMin="-2" xMax="472" yMax="863">
      <component glyphName="A" x="0" y="0" flags="0x0"/>
      <component glyphName="macron" x="145" y="177" flags="0x0"/>
    </TTGlyph>
    <TTGlyph name="Aogonek" xMin="-19" yMin="-171" xMax="494" yMax="702">
      <contour>
        <pt x="494" y="-100" on="0"/>
        <pt x="494" y="-126" on="1"/>
        <pt x="494" y="-146" on="0"/>
        <pt x="479" y="-155" on="1"/>
        <pt x="453" y="-171" on="0"/>
        <pt x="417" y="-171" on="1"/>
        <pt x="362" y="-171" on="0"/>
        <pt x="323" y="-112" on="0"/>
        <pt x="323" y="-80" on="1"/>
        <pt x="323" y="-58" on="0"/>
        <pt x="340" y="-1" on="0"/>
        <pt x="358" y="25" on="1"/>
        <pt x="339" y="162" on="1"/>
        <pt x="148" y="162" on="1"/>
        <pt x="97" y="16" on="1"/>
        <pt x="91" y="-2" on="0"/>
        <pt x="54" y="-2" on="1"/>
        <pt x="22" y="-2" on="1"/>
        <pt x="-19" y="-2" on="0"/>
        <pt x="-17" y="17" on="1"/>
        <pt x="-17" y="20" on="0"/>
        <pt x="-13" y="32" on="1"/>
        <pt x="225" y="679" on="1"/>
        <pt x="234" y="702" on="0"/>
        <pt x="277" y="702" on="1"/>
        <pt x="318" y="702" on="1"/>
        <pt x="361" y="702" on="0"/>
        <pt x="365" y="679" on="1"/>
        <pt x="470" y="32" on="1"/>
        <pt x="472" y="21" on="0"/>
        <pt x="471" y="17" on="1"/>
        <pt x="469" y="-2" on="0"/>
        <pt x="430" y="-2" on="1"/>
        <pt x="400" y="-2" on="1"/>
        <pt x="387" y="-34" on="0"/>
        <pt x="387" y="-62" on="1"/>
        <pt x="387" y="-87" on="0"/>
        <pt x="415" y="-105" on="0"/>
        <pt x="436" y="-105" on="1"/>
        <pt x="444" y="-105" on="0"/>
        <pt x="464" y="-100" on="0"/>
        <pt x="469" y="-100" on="1"/>
      </contour>
      <contour>
        <pt x="328" y="256" on="1"/>
        <pt x="294" y="508" on="1"/>
        <pt x="289" y="543" on="0"/>
        <pt x="289" y="575" on="1"/>
        <pt x="284" y="575" on="1"/>
        <pt x="270" y="526" on="0"/>
        <pt x="264" y="508" on="1"/>
        <pt x="175" y="256" on="1"/>
      </contour>
    </TTGlyph>
    <TTGlyph name="Aring" xMin="-19" yMin="-2" xMax="472" yMax="917">
      <component glyphName="A" x="0" y="0" flags="0x0"/>
      <component glyphName="ring" x="143" y="177" flags="0x0"/>
    </TTGlyph>
    <TTGlyph name="Aringacute" xMin="-19" yMin="-2" xMax="472" yMax="930">
      <contour>
        <pt x="277" y="818" on="0"/>
        <pt x="266" y="823" on="0"/>
        <pt x="266" y="830" on="1"/>
        <pt x="282" y="858" on="0"/>
        <pt x="313" y="903" on="1"/>
        <pt x="323" y="918" on="0"/>
        <pt x="360" y="930" on="0"/>
        <pt x="388" y="930" on="1"/>
        <pt x="416" y="930" on="0"/>
        <pt x="441" y="924" on="0"/>
        <pt x="440" y="916" on="1"/>
        <pt x="439" y="912" on="0"/>
        <pt x="421" y="895" on="0"/>
        <pt x="399" y="877" on="1"/>
        <pt x="355" y="839" on="1"/>
        <pt x="334" y="818" on="0"/>
        <pt x="292" y="818" on="1"/>
      </contour>
      <contour>
        <pt x="472" y="21" on="0"/>
        <pt x="471" y="17" on="1"/>
        <pt x="469" y="-2" on="0"/>
        <pt x="430" y="-2" on="1"/>
        <pt x="399" y="-2" on="1"/>
        <pt x="362" y="-2" on="0"/>
        <pt x="359" y="16" on="1"/>
        <pt x="339" y="162" on="1"/>
        <pt x="148" y="162" on="1"/>
        <pt x="97" y="16" on="1"/>
        <pt x="91" y="-2" on="0"/>
        <pt x="54" y="-2" on="1"/>
        <pt x="22" y="-2" on="1"/>
        <pt x="-19" y="-2" on="0"/>
        <pt x="-17" y="17" on="1"/>
        <pt x="-17" y="20" on="0"/>
        <pt x="-13" y="32" on="1"/>
        <pt x="216" y="653" on="1"/>
        <pt x="208" y="671" on="0"/>
        <pt x="208" y="690" on="1"/>
        <pt x="208" y="736" on="0"/>
        <pt x="264" y="794" on="0"/>
        <pt x="308" y="794" on="1"/>
        <pt x="346" y="794" on="0"/>
        <pt x="390" y="752" on="0"/>
        <pt x="390" y="716" on="1"/>
        <pt x="390" y="679" on="0"/>
        <pt x="369" y="650" on="1"/>
        <pt x="470" y="32" on="1"/>
      </contour>
      <contour>
        <pt x="257" y="678" on="0"/>
        <pt x="276" y="659" on="0"/>
        <pt x="294" y="659" on="1"/>
        <pt x="314" y="659" on="0"/>
        <pt x="339" y="682" on="0"/>
        <pt x="342" y="702" on="1"/>
        <pt x="344" y="723" on="0"/>
        <pt x="324" y="747" on="0"/>
        <pt x="304" y="747" on="1"/>
        <pt x="282" y="747" on="0"/>
        <pt x="257" y="719" on="0"/>
        <pt x="257" y="695" on="1"/>
      </contour>
      <contour>
        <pt x="328" y="256" on="1"/>
        <pt x="294" y="508" on="1"/>
        <pt x="289" y="543" on="0"/>
        <pt x="289" y="575" on="1"/>
        <pt x="284" y="575" on="1"/>
        <pt x="270" y="526" on="0"/>
        <pt x="264" y="508" on="1"/>
        <pt x="175" y="256" on="1"/>
      </contour>
    </TTGlyph>
    <TTGlyph name="Atilde" xMin="-19" yMin="-2" xMax="472" yMax="871">
      <component glyphName="A" x="0" y="0" flags="0x0"/>
      <component glyphName="tilde" x="151" y="177" flags="0x0"/>
    </TTGlyph>
    <TTGlyph name="B" xMin="44" yMin="0" xMax="505" yMax="700">
      <contour>
        <pt x="57" y="0" on="0"/>
        <pt x="44" y="16" on="0"/>
        <pt x="46" y="34" on="1"/>
        <pt x="113" y="666" on="1"/>
        <pt x="114" y="684" on="0"/>
        <pt x="131" y="700" on="0"/>
        <pt x="148" y="700" on="1"/>
        <pt x="318" y="700" on="1"/>
        <pt x="413" y="700" on="0"/>
        <pt x="505" y="622" on="0"/>
        <pt x="505" y="551" on="1"/>
        <pt x="505" y="490" on="0"/>
        <pt x="442" y="388" on="0"/>
        <pt x="397" y="369" on="1"/>
        <pt x="397" y="365" on="1"/>
        <pt x="434" y="353" on="0"/>
        <pt x="492" y="284" on="0"/>
        <pt x="492" y="224" on="1"/>
        <pt x="492" y="208" on="0"/>
        <pt x="491" y="199" on="1"/>
        <pt x="471" y="0" on="0"/>
        <pt x="251" y="0" on="1"/>
        <pt x="74" y="0" on="1"/>
      </contour>
      <contour>
        <pt x="289" y="405" on="1"/>
        <pt x="334" y="405" on="0"/>
        <pt x="387" y="473" on="0"/>
        <pt x="387" y="529" on="1"/>
        <pt x="387" y="568" on="0"/>
        <pt x="349" y="605" on="0"/>
        <pt x="310" y="605" on="1"/>
        <pt x="222" y="605" on="1"/>
        <pt x="201" y="405" on="1"/>
      </contour>
      <contour>
        <pt x="274" y="96" on="1"/>
        <pt x="317" y="96" on="0"/>
        <pt x="369" y="153" on="0"/>
        <pt x="375" y="208" on="1"/>
        <pt x="376" y="215" on="0"/>
        <pt x="376" y="227" on="1"/>
        <pt x="376" y="311" on="0"/>
        <pt x="288" y="311" on="1"/>
        <pt x="190" y="311" on="1"/>
        <pt x="168" y="96" on="1"/>
      </contour>
    </TTGlyph>
    <TTGlyph name="C" xMin="48" yMin="-7" xMax="470" yMax="707">
      <contour>
        <pt x="167" y="-7" on="0"/>
        <pt x="48" y="128" on="0"/>
        <pt x="48" y="268" on="1"/>
        <pt x="48" y="301" on="0"/>
        <pt x="53" y="351" on="1"/>
        <pt x="73" y="534" on="0"/>
        <pt x="217" y="707" on="0"/>
        <pt x="357" y="707" on="1"/>
        <pt x="384" y="707" on="0"/>
        <pt x="434" y="698" on="0"/>
        <pt x="450" y="691" on="1"/>
        <pt x="470" y="684" on="0"/>
        <pt x="470" y="664" on="1"/>
        <pt x="470" y="651" on="0"/>
        <pt x="457" y="609" on="0"/>
        <pt x="436" y="582" on="0"/>
        <pt x="424" y="588" on="1"/>
        <pt x="388" y="604" on="0"/>
        <pt x="349" y="604" on="1"/>
        <pt x="274" y="604" on="0"/>
        <pt x="189" y="481" on="0"/>
        <pt x="175" y="351" on="1"/>
        <pt x="171" y="315" on="0"/>
        <pt x="171" y="278" on="1"/>
        <pt x="171" y="186" on="0"/>
        <pt x="233" y="96" on="0"/>
        <pt x="297" y="96" on="1"/>
        <pt x="321" y="96" on="0"/>
        <pt x="360" y="106" on="0"/>
        <pt x="381" y="115" on="1"/>
        <pt x="387" y="117" on="0"/>
        <pt x="391" y="117" on="1"/>
        <pt x="404" y="117" on="0"/>
        <pt x="417" y="86" on="0"/>
        <pt x="417" y="65" on="1"/>
        <pt x="417" y="45" on="0"/>
        <pt x="401" y="20" on="0"/>
        <pt x="383" y="11" on="1"/>
        <pt x="367" y="3" on="0"/>
        <pt x="314" y="-7" on="0"/>
        <pt x="286" y="-7" on="1"/>
      </contour>
    </TTGlyph>
    <TTGlyph name="Cacute" xMin="48" yMin="-7" xMax="470" yMax="910">
      <component glyphName="C" x="0" y="0" flags="0x0"/>
      <component glyphName="acute" x="228" y="177" flags="0x0"/>
    </TTGlyph>
    <TTGlyph name="Cacute.loclPLK" xMin="48" yMin="-7" xMax="470" yMax="910">
      <component glyphName="C" x="0" y="0" flags="0x0"/>
      <component glyphName="acute.loclPLK" x="229" y="177" flags="0x0"/>
    </TTGlyph>
    <TTGlyph name="Ccaron" xMin="48" yMin="-7" xMax="470" yMax="899">
      <component glyphName="C" x="0" y="0" flags="0x0"/>
      <component glyphName="caron" x="166" y="177" flags="0x0"/>
    </TTGlyph>
    <TTGlyph name="Ccedilla" xMin="49" yMin="-211" xMax="470" yMax="707">
      <contour>
        <pt x="470" y="684" on="0"/>
        <pt x="470" y="664" on="1"/>
        <pt x="470" y="651" on="0"/>
        <pt x="457" y="609" on="0"/>
        <pt x="436" y="582" on="0"/>
        <pt x="424" y="588" on="1"/>
        <pt x="388" y="604" on="0"/>
        <pt x="349" y="604" on="1"/>
        <pt x="274" y="604" on="0"/>
        <pt x="189" y="481" on="0"/>
        <pt x="175" y="351" on="1"/>
        <pt x="171" y="315" on="0"/>
        <pt x="171" y="278" on="1"/>
        <pt x="171" y="186" on="0"/>
        <pt x="233" y="96" on="0"/>
        <pt x="297" y="96" on="1"/>
        <pt x="321" y="96" on="0"/>
        <pt x="360" y="106" on="0"/>
        <pt x="381" y="115" on="1"/>
        <pt x="387" y="117" on="0"/>
        <pt x="391" y="117" on="1"/>
        <pt x="404" y="117" on="0"/>
        <pt x="417" y="86" on="0"/>
        <pt x="417" y="65" on="1"/>
        <pt x="417" y="45" on="0"/>
        <pt x="401" y="20" on="0"/>
        <pt x="383" y="11" on="1"/>
        <pt x="367" y="3" on="0"/>
        <pt x="314" y="-7" on="0"/>
        <pt x="286" y="-7" on="1"/>
        <pt x="269" y="-7" on="0"/>
        <pt x="260" y="-6" on="1"/>
        <pt x="247" y="-54" on="1"/>
        <pt x="276" y="-57" on="0"/>
        <pt x="316" y="-90" on="0"/>
        <pt x="316" y="-125" on="1"/>
        <pt x="316" y="-170" on="0"/>
        <pt x="261" y="-211" on="0"/>
        <pt x="216" y="-211" on="1"/>
        <pt x="180" y="-211" on="0"/>
        <pt x="117" y="-183" on="0"/>
        <pt x="117" y="-164" on="1"/>
        <pt x="117" y="-151" on="0"/>
        <pt x="134" y="-131" on="0"/>
        <pt x="142" y="-131" on="1"/>
        <pt x="148" y="-131" on="0"/>
        <pt x="163" y="-138" on="0"/>
        <pt x="165" y="-139" on="1"/>
        <pt x="174" y="-143" on="0"/>
        <pt x="198" y="-151" on="0"/>
        <pt x="209" y="-151" on="1"/>
        <pt x="221" y="-151" on="0"/>
        <pt x="238" y="-140" on="0"/>
        <pt x="238" y="-128" on="1"/>
        <pt x="238" y="-116" on="0"/>
        <pt x="223" y="-104" on="0"/>
        <pt x="209" y="-99" on="1"/>
        <pt x="197" y="-95" on="0"/>
        <pt x="186" y="-87" on="0"/>
        <pt x="186" y="-79" on="1"/>
        <pt x="186" y="-73" on="0"/>
        <pt x="199" y="-35" on="0"/>
        <pt x="211" y="1" on="1"/>
        <pt x="130" y="21" on="0"/>
        <pt x="49" y="152" on="0"/>
        <pt x="49" y="268" on="1"/>
        <pt x="49" y="311" on="0"/>
        <pt x="53" y="351" on="1"/>
        <pt x="73" y="534" on="0"/>
        <pt x="217" y="707" on="0"/>
        <pt x="357" y="707" on="1"/>
        <pt x="384" y="707" on="0"/>
        <pt x="434" y="698" on="0"/>
        <pt x="450" y="691" on="1"/>
      </contour>
    </TTGlyph>
    <TTGlyph name="Ccircumflex" xMin="48" yMin="-7" xMax="470" yMax="895">
      <component glyphName="C" x="0" y="0" flags="0x0"/>
      <component glyphName="circumflex" x="164" y="177" flags="0x0"/>
    </TTGlyph>
    <TTGlyph name="Cdotaccent" xMin="48" yMin="-7" xMax="470" yMax="879">
      <component glyphName="C" x="0" y="0" flags="0x0"/>
      <component glyphName="dotaccent" x="161" y="177" flags="0x0"/>
    </TTGlyph>
    <TTGlyph name="D" xMin="42" yMin="0" xMax="543" yMax="700">
      <contour>
        <pt x="55" y="0" on="0"/>
        <pt x="42" y="16" on="0"/>
        <pt x="44" y="34" on="1"/>
        <pt x="111" y="666" on="1"/>
        <pt x="112" y="684" on="0"/>
        <pt x="129" y="700" on="0"/>
        <pt x="146" y="700" on="1"/>
        <pt x="323" y="700" on="1"/>
        <pt x="543" y="700" on="0"/>
        <pt x="543" y="435" on="1"/>
        <pt x="543" y="402" on="0"/>
        <pt x="538" y="350" on="1"/>
        <pt x="519" y="169" on="0"/>
        <pt x="373" y="0" on="0"/>
        <pt x="249" y="0" on="1"/>
        <pt x="72" y="0" on="1"/>
      </contour>
      <contour>
        <pt x="256" y="100" on="1"/>
        <pt x="322" y="100" on="0"/>
        <pt x="403" y="218" on="0"/>
        <pt x="417" y="350" on="1"/>
        <pt x="421" y="389" on="0"/>
        <pt x="421" y="428" on="1"/>
        <pt x="421" y="518" on="0"/>
        <pt x="364" y="600" on="0"/>
        <pt x="309" y="600" on="1"/>
        <pt x="224" y="600" on="1"/>
        <pt x="171" y="100" on="1"/>
      </contour>
    </TTGlyph>
    <TTGlyph name="Dcaron" xMin="42" yMin="0" xMax="543" yMax="899">
      <component glyphName="D" x="0" y="0" flags="0x0"/>
      <component glyphName="caron" x="169" y="177" flags="0x0"/>
    </TTGlyph>
    <TTGlyph name="Dcroat" xMin="18" yMin="0" xMax="543" yMax="700">
      <component glyphName="Eth" x="0" y="0" flags="0x0"/>
    </TTGlyph>
    <TTGlyph name="E" xMin="44" yMin="0" xMax="459" yMax="700">
      <contour>
        <pt x="57" y="0" on="0"/>
        <pt x="44" y="16" on="0"/>
        <pt x="46" y="34" on="1"/>
        <pt x="113" y="666" on="1"/>
        <pt x="114" y="684" on="0"/>
        <pt x="131" y="700" on="0"/>
        <pt x="148" y="700" on="1"/>
        <pt x="439" y="700" on="1"/>
        <pt x="459" y="700" on="0"/>
        <pt x="459" y="673" on="1"/>
        <pt x="458" y="661" on="1"/>
        <pt x="456" y="639" on="1"/>
        <pt x="452" y="600" on="0"/>
        <pt x="428" y="600" on="1"/>
        <pt x="225" y="600" on="1"/>
        <pt x="205" y="408" on="1"/>
        <pt x="386" y="408" on="1"/>
        <pt x="398" y="408" on="0"/>
        <pt x="407" y="390" on="0"/>
        <pt x="406" y="369" on="1"/>
        <pt x="403" y="347" on="1"/>
        <pt x="400" y="308" on="0"/>
        <pt x="376" y="308" on="1"/>
        <pt x="194" y="308" on="1"/>
        <pt x="172" y="100" on="1"/>
        <pt x="376" y="100" on="1"/>
        <pt x="388" y="100" on="0"/>
        <pt x="397" y="82" on="0"/>
        <pt x="395" y="61" on="1"/>
        <pt x="392" y="39" on="1"/>
        <pt x="390" y="19" on="0"/>
        <pt x="378" y="0" on="0"/>
        <pt x="365" y="0" on="1"/>
        <pt x="74" y="0" on="1"/>
      </contour>
    </TTGlyph>
    <TTGlyph name="Eacute" xMin="44" yMin="0" xMax="459" yMax="910">
      <component glyphName="E" x="0" y="0" flags="0x0"/>
      <component glyphName="acute" x="204" y="177" flags="0x0"/>
    </TTGlyph>
    <TTGlyph name="Ebreve" xMin="44" yMin="0" xMax="459" yMax="892">
      <component glyphName="E" x="0" y="0" flags="0x0"/>
      <component glyphName="breve" x="140" y="177" flags="0x0"/>
    </TTGlyph>
    <TTGlyph name="Ecaron" xMin="44" yMin="0" xMax="459" yMax="899">
      <component glyphName="E" x="0" y="0" flags="0x0"/>
      <component glyphName="caron" x="141" y="177" flags="0x0"/>
    </TTGlyph>
    <TTGlyph name="Ecircumflex" xMin="44" yMin="0" xMax="459" yMax="895">
      <component glyphName="E" x="0" y="0" flags="0x0"/>
      <component glyphName="circumflex" x="140" y="177" flags="0x0"/>
    </TTGlyph>
    <TTGlyph name="Edieresis" xMin="44" yMin="0" xMax="459" yMax="879">
      <component glyphName="E" x="0" y="0" flags="0x0"/>
      <component glyphName="dieresis" x="138" y="177" flags="0x0"/>
    </TTGlyph>
    <TTGlyph name="Edotaccent" xMin="44" yMin="0" xMax="459" yMax="879">
      <component glyphName="E" x="0" y="0" flags="0x0"/>
      <component glyphName="dotaccent" x="137" y="177" flags="0x0"/>
    </TTGlyph>
    <TTGlyph name="Egrave" xMin="44" yMin="0" xMax="459" yMax="910">
      <component glyphName="E" x="0" y="0" flags="0x0"/>
      <component glyphName="grave" x="132" y="177" flags="0x0"/>
    </TTGlyph>
    <TTGlyph name="Emacron" xMin="44" yMin="0" xMax="459" yMax="863">
      <component glyphName="E" x="0" y="0" flags="0x0"/>
      <component glyphName="macron" x="140" y="177" flags="0x0"/>
    </TTGlyph>
    <TTGlyph name="Eng" xMin="37" yMin="-212" xMax="572" yMax="702">
      <contour>
        <pt x="572" y="702" on="0"/>
        <pt x="570" y="676" on="1"/>
        <pt x="492" y="-67" on="1"/>
        <pt x="484" y="-143" on="0"/>
        <pt x="406" y="-212" on="0"/>
        <pt x="357" y="-212" on="1"/>
        <pt x="276" y="-212" on="0"/>
        <pt x="278" y="-173" on="1"/>
        <pt x="280" y="-157" on="0"/>
        <pt x="299" y="-116" on="0"/>
        <pt x="310" y="-116" on="1"/>
        <pt x="314" y="-116" on="0"/>
        <pt x="332" y="-120" on="0"/>
        <pt x="343" y="-120" on="1"/>
        <pt x="358" y="-120" on="0"/>
        <pt x="377" y="-95" on="0"/>
        <pt x="381" y="-63" on="1"/>
        <pt x="390" y="22" on="1"/>
        <pt x="218" y="437" on="1"/>
        <pt x="211" y="453" on="0"/>
        <pt x="200" y="494" on="0"/>
        <pt x="198" y="501" on="1"/>
        <pt x="193" y="498" on="1"/>
        <pt x="195" y="470" on="0"/>
        <pt x="195" y="457" on="1"/>
        <pt x="195" y="440" on="0"/>
        <pt x="194" y="432" on="1"/>
        <pt x="150" y="24" on="1"/>
        <pt x="148" y="-2" on="0"/>
        <pt x="100" y="-2" on="1"/>
        <pt x="83" y="-2" on="1"/>
        <pt x="58" y="-2" on="0"/>
        <pt x="37" y="11" on="0"/>
        <pt x="39" y="24" on="1"/>
        <pt x="107" y="676" on="1"/>
        <pt x="109" y="689" on="0"/>
        <pt x="132" y="702" on="0"/>
        <pt x="157" y="702" on="1"/>
        <pt x="181" y="702" on="1"/>
        <pt x="198" y="702" on="0"/>
        <pt x="218" y="692" on="0"/>
        <pt x="224" y="679" on="1"/>
        <pt x="389" y="274" on="1"/>
        <pt x="402" y="245" on="0"/>
        <pt x="412" y="205" on="1"/>
        <pt x="416" y="207" on="1"/>
        <pt x="414" y="233" on="0"/>
        <pt x="414" y="246" on="1"/>
        <pt x="414" y="258" on="0"/>
        <pt x="416" y="278" on="1"/>
        <pt x="459" y="676" on="1"/>
        <pt x="461" y="702" on="0"/>
        <pt x="508" y="702" on="1"/>
        <pt x="525" y="702" on="1"/>
      </contour>
    </TTGlyph>
    <TTGlyph name="Eogonek" xMin="44" yMin="-177" xMax="470" yMax="700">
      <contour>
        <pt x="470" y="-106" on="0"/>
        <pt x="470" y="-132" on="1"/>
        <pt x="470" y="-152" on="0"/>
        <pt x="455" y="-161" on="1"/>
        <pt x="429" y="-177" on="0"/>
        <pt x="393" y="-177" on="1"/>
        <pt x="338" y="-177" on="0"/>
        <pt x="299" y="-118" on="0"/>
        <pt x="299" y="-86" on="1"/>
        <pt x="299" y="-69" on="0"/>
        <pt x="310" y="-23" on="0"/>
        <pt x="322" y="0" on="1"/>
        <pt x="74" y="0" on="1"/>
        <pt x="57" y="0" on="0"/>
        <pt x="44" y="16" on="0"/>
        <pt x="46" y="34" on="1"/>
        <pt x="113" y="666" on="1"/>
        <pt x="114" y="684" on="0"/>
        <pt x="131" y="700" on="0"/>
        <pt x="148" y="700" on="1"/>
        <pt x="439" y="700" on="1"/>
        <pt x="459" y="700" on="0"/>
        <pt x="459" y="673" on="1"/>
        <pt x="458" y="661" on="1"/>
        <pt x="456" y="639" on="1"/>
        <pt x="452" y="600" on="0"/>
        <pt x="428" y="600" on="1"/>
        <pt x="225" y="600" on="1"/>
        <pt x="205" y="408" on="1"/>
        <pt x="386" y="408" on="1"/>
        <pt x="398" y="408" on="0"/>
        <pt x="407" y="390" on="0"/>
        <pt x="406" y="369" on="1"/>
        <pt x="403" y="347" on="1"/>
        <pt x="400" y="308" on="0"/>
        <pt x="376" y="308" on="1"/>
        <pt x="194" y="308" on="1"/>
        <pt x="172" y="100" on="1"/>
        <pt x="376" y="100" on="1"/>
        <pt x="388" y="100" on="0"/>
        <pt x="397" y="82" on="0"/>
        <pt x="395" y="61" on="1"/>
        <pt x="392" y="39" on="1"/>
        <pt x="390" y="18" on="0"/>
        <pt x="385" y="10" on="1"/>
        <pt x="374" y="-10" on="0"/>
        <pt x="363" y="-51" on="0"/>
        <pt x="363" y="-68" on="1"/>
        <pt x="363" y="-93" on="0"/>
        <pt x="391" y="-111" on="0"/>
        <pt x="412" y="-111" on="1"/>
        <pt x="420" y="-111" on="0"/>
        <pt x="440" y="-106" on="0"/>
        <pt x="445" y="-106" on="1"/>
      </contour>
    </TTGlyph>
    <TTGlyph name="Eth" xMin="18" yMin="0" xMax="543" yMax="700">
      <contour>
        <pt x="543" y="700" on="0"/>
        <pt x="543" y="435" on="1"/>
        <pt x="543" y="402" on="0"/>
        <pt x="538" y="350" on="1"/>
        <pt x="519" y="169" on="0"/>
        <pt x="373" y="0" on="0"/>
        <pt x="249" y="0" on="1"/>
        <pt x="72" y="0" on="1"/>
        <pt x="55" y="0" on="0"/>
        <pt x="42" y="16" on="0"/>
        <pt x="44" y="34" on="1"/>
        <pt x="73" y="307" on="1"/>
        <pt x="39" y="307" on="1"/>
        <pt x="18" y="307" on="0"/>
        <pt x="18" y="337" on="1"/>
        <pt x="18" y="369" on="0"/>
        <pt x="31" y="407" on="0"/>
        <pt x="49" y="407" on="1"/>
        <pt x="83" y="407" on="1"/>
        <pt x="111" y="666" on="1"/>
        <pt x="112" y="684" on="0"/>
        <pt x="129" y="700" on="0"/>
        <pt x="146" y="700" on="1"/>
        <pt x="323" y="700" on="1"/>
      </contour>
      <contour>
        <pt x="421" y="389" on="0"/>
        <pt x="421" y="428" on="1"/>
        <pt x="421" y="518" on="0"/>
        <pt x="364" y="600" on="0"/>
        <pt x="309" y="600" on="1"/>
        <pt x="224" y="600" on="1"/>
        <pt x="203" y="407" on="1"/>
        <pt x="297" y="407" on="1"/>
        <pt x="318" y="407" on="0"/>
        <pt x="318" y="377" on="1"/>
        <pt x="318" y="344" on="0"/>
        <pt x="305" y="307" on="0"/>
        <pt x="287" y="307" on="1"/>
        <pt x="193" y="307" on="1"/>
        <pt x="171" y="100" on="1"/>
        <pt x="256" y="100" on="1"/>
        <pt x="322" y="100" on="0"/>
        <pt x="403" y="218" on="0"/>
        <pt x="417" y="350" on="1"/>
      </contour>
    </TTGlyph>
    <TTGlyph name="Euro" xMin="1" yMin="-7" xMax="512" yMax="707">
      <contour>
        <pt x="175" y="-7" on="0"/>
        <pt x="67" y="111" on="0"/>
        <pt x="63" y="235" on="1"/>
        <pt x="24" y="235" on="1"/>
        <pt x="11" y="235" on="0"/>
        <pt x="1" y="249" on="0"/>
        <pt x="3" y="266" on="1"/>
        <pt x="4" y="273" on="1"/>
        <pt x="5" y="290" on="0"/>
        <pt x="19" y="305" on="0"/>
        <pt x="32" y="305" on="1"/>
        <pt x="64" y="305" on="1"/>
        <pt x="68" y="351" on="1"/>
        <pt x="73" y="391" on="1"/>
        <pt x="41" y="391" on="1"/>
        <pt x="28" y="391" on="0"/>
        <pt x="18" y="406" on="0"/>
        <pt x="19" y="423" on="1"/>
        <pt x="20" y="430" on="1"/>
        <pt x="22" y="447" on="0"/>
        <pt x="35" y="461" on="0"/>
        <pt x="48" y="461" on="1"/>
        <pt x="87" y="461" on="1"/>
        <pt x="146" y="707" on="0"/>
        <pt x="360" y="707" on="1"/>
        <pt x="400" y="707" on="0"/>
        <pt x="470" y="687" on="0"/>
        <pt x="512" y="657" on="0"/>
        <pt x="512" y="643" on="1"/>
        <pt x="512" y="626" on="0"/>
        <pt x="471" y="570" on="0"/>
        <pt x="457" y="570" on="1"/>
        <pt x="453" y="570" on="0"/>
        <pt x="422" y="590" on="0"/>
        <pt x="381" y="605" on="0"/>
        <pt x="352" y="605" on="1"/>
        <pt x="247" y="605" on="0"/>
        <pt x="208" y="461" on="1"/>
        <pt x="413" y="461" on="1"/>
        <pt x="434" y="461" on="0"/>
        <pt x="434" y="440" on="1"/>
        <pt x="433" y="430" on="1"/>
        <pt x="432" y="423" on="1"/>
        <pt x="431" y="406" on="0"/>
        <pt x="418" y="391" on="0"/>
        <pt x="405" y="391" on="1"/>
        <pt x="194" y="391" on="1"/>
        <pt x="189" y="351" on="1"/>
        <pt x="185" y="305" on="1"/>
        <pt x="396" y="305" on="1"/>
        <pt x="409" y="305" on="0"/>
        <pt x="418" y="290" on="0"/>
        <pt x="417" y="273" on="1"/>
        <pt x="416" y="266" on="1"/>
        <pt x="415" y="250" on="0"/>
        <pt x="402" y="235" on="0"/>
        <pt x="389" y="235" on="1"/>
        <pt x="186" y="235" on="1"/>
        <pt x="195" y="96" on="0"/>
        <pt x="296" y="96" on="1"/>
        <pt x="328" y="96" on="0"/>
        <pt x="377" y="114" on="0"/>
        <pt x="400" y="127" on="1"/>
        <pt x="418" y="136" on="0"/>
        <pt x="421" y="136" on="1"/>
        <pt x="432" y="136" on="0"/>
        <pt x="450" y="111" on="0"/>
        <pt x="460" y="78" on="0"/>
        <pt x="459" y="70" on="1"/>
        <pt x="457" y="53" on="0"/>
        <pt x="407" y="17" on="0"/>
        <pt x="326" y="-7" on="0"/>
        <pt x="283" y="-7" on="1"/>
      </contour>
    </TTGlyph>
    <TTGlyph name="F" xMin="42" yMin="-2" xMax="436" yMax="700">
      <contour>
        <pt x="42" y="-2" on="0"/>
        <pt x="45" y="24" on="1"/>
        <pt x="113" y="666" on="1"/>
        <pt x="114" y="684" on="0"/>
        <pt x="131" y="700" on="0"/>
        <pt x="148" y="700" on="1"/>
        <pt x="414" y="700" on="1"/>
        <pt x="426" y="700" on="0"/>
        <pt x="436" y="681" on="0"/>
        <pt x="434" y="661" on="1"/>
        <pt x="431" y="639" on="1"/>
        <pt x="429" y="619" on="0"/>
        <pt x="416" y="600" on="0"/>
        <pt x="404" y="600" on="1"/>
        <pt x="225" y="600" on="1"/>
        <pt x="205" y="408" on="1"/>
        <pt x="370" y="408" on="1"/>
        <pt x="382" y="408" on="0"/>
        <pt x="392" y="389" on="0"/>
        <pt x="390" y="369" on="1"/>
        <pt x="387" y="347" on="1"/>
        <pt x="385" y="326" on="0"/>
        <pt x="372" y="308" on="0"/>
        <pt x="359" y="308" on="1"/>
        <pt x="194" y="308" on="1"/>
        <pt x="164" y="24" on="1"/>
        <pt x="162" y="11" on="0"/>
        <pt x="139" y="-2" on="0"/>
        <pt x="114" y="-2" on="1"/>
        <pt x="89" y="-2" on="1"/>
      </contour>
    </TTGlyph>
    <TTGlyph name="G" xMin="49" yMin="-7" xMax="523" yMax="707">
      <contour>
        <pt x="274" y="603" on="0"/>
        <pt x="190" y="478" on="0"/>
        <pt x="176" y="352" on="1"/>
        <pt x="172" y="317" on="0"/>
        <pt x="172" y="278" on="1"/>
        <pt x="172" y="95" on="0"/>
        <pt x="291" y="95" on="1"/>
        <pt x="330" y="95" on="0"/>
        <pt x="360" y="104" on="1"/>
        <pt x="379" y="294" on="1"/>
        <pt x="309" y="294" on="1"/>
        <pt x="289" y="294" on="0"/>
        <pt x="289" y="320" on="1"/>
        <pt x="290" y="333" on="1"/>
        <pt x="292" y="355" on="1"/>
        <pt x="294" y="376" on="0"/>
        <pt x="307" y="394" on="0"/>
        <pt x="320" y="394" on="1"/>
        <pt x="475" y="394" on="1"/>
        <pt x="507" y="394" on="0"/>
        <pt x="503" y="360" on="1"/>
        <pt x="473" y="69" on="1"/>
        <pt x="469" y="33" on="0"/>
        <pt x="347" y="-7" on="0"/>
        <pt x="278" y="-7" on="1"/>
        <pt x="168" y="-7" on="0"/>
        <pt x="49" y="130" on="0"/>
        <pt x="49" y="267" on="1"/>
        <pt x="49" y="300" on="0"/>
        <pt x="54" y="347" on="1"/>
        <pt x="74" y="533" on="0"/>
        <pt x="218" y="707" on="0"/>
        <pt x="359" y="707" on="1"/>
        <pt x="400" y="707" on="0"/>
        <pt x="477" y="687" on="0"/>
        <pt x="523" y="656" on="0"/>
        <pt x="522" y="641" on="1"/>
        <pt x="520" y="624" on="0"/>
        <pt x="480" y="569" on="0"/>
        <pt x="467" y="569" on="1"/>
        <pt x="464" y="569" on="0"/>
        <pt x="429" y="588" on="0"/>
        <pt x="385" y="603" on="0"/>
        <pt x="353" y="603" on="1"/>
      </contour>
    </TTGlyph>
    <TTGlyph name="Gbreve" xMin="49" yMin="-7" xMax="523" yMax="892">
      <component glyphName="G" x="0" y="0" flags="0x0"/>
      <component glyphName="breve" x="189" y="177" flags="0x0"/>
    </TTGlyph>
    <TTGlyph name="Gcircumflex" xMin="49" yMin="-7" xMax="523" yMax="895">
      <component glyphName="G" x="0" y="0" flags="0x0"/>
      <component glyphName="circumflex" x="188" y="177" flags="0x0"/>
    </TTGlyph>
    <TTGlyph name="Gcommaaccent" xMin="49" yMin="-237" xMax="523" yMax="707">
      <component glyphName="G" x="0" y="0" flags="0x0"/>
      <component glyphName="uni0326" x="411" y="0" flags="0x0"/>
    </TTGlyph>
    <TTGlyph name="Gdotaccent" xMin="49" yMin="-7" xMax="523" yMax="879">
      <component glyphName="G" x="0" y="0" flags="0x0"/>
      <component glyphName="dotaccent" x="185" y="177" flags="0x0"/>
    </TTGlyph>
    <TTGlyph name="H" xMin="42" yMin="-2" xMax="578" yMax="702">
      <contour>
        <pt x="42" y="-2" on="0"/>
        <pt x="45" y="24" on="1"/>
        <pt x="114" y="676" on="1"/>
        <pt x="116" y="702" on="0"/>
        <pt x="163" y="702" on="1"/>
        <pt x="190" y="702" on="1"/>
        <pt x="236" y="702" on="0"/>
        <pt x="233" y="676" on="1"/>
        <pt x="205" y="408" on="1"/>
        <pt x="428" y="408" on="1"/>
        <pt x="456" y="676" on="1"/>
        <pt x="458" y="702" on="0"/>
        <pt x="505" y="702" on="1"/>
        <pt x="531" y="702" on="1"/>
        <pt x="578" y="702" on="0"/>
        <pt x="575" y="676" on="1"/>
        <pt x="506" y="24" on="1"/>
        <pt x="504" y="-2" on="0"/>
        <pt x="457" y="-2" on="1"/>
        <pt x="431" y="-2" on="1"/>
        <pt x="384" y="-2" on="0"/>
        <pt x="387" y="24" on="1"/>
        <pt x="417" y="308" on="1"/>
        <pt x="194" y="308" on="1"/>
        <pt x="164" y="24" on="1"/>
        <pt x="162" y="-2" on="0"/>
        <pt x="116" y="-2" on="1"/>
        <pt x="89" y="-2" on="1"/>
      </contour>
    </TTGlyph>
    <TTGlyph name="Hbar" xMin="-1" yMin="-2" xMax="655" yMax="702">
      <contour>
        <pt x="655" y="566" on="0"/>
        <pt x="655" y="538" on="1"/>
        <pt x="655" y="518" on="0"/>
        <pt x="643" y="484" on="0"/>
        <pt x="625" y="484" on="1"/>
        <pt x="555" y="484" on="1"/>
        <pt x="506" y="24" on="1"/>
        <pt x="504" y="-2" on="0"/>
        <pt x="457" y="-2" on="1"/>
        <pt x="431" y="-2" on="1"/>
        <pt x="384" y="-2" on="0"/>
        <pt x="387" y="24" on="1"/>
        <pt x="417" y="308" on="1"/>
        <pt x="194" y="308" on="1"/>
        <pt x="164" y="24" on="1"/>
        <pt x="162" y="-2" on="0"/>
        <pt x="116" y="-2" on="1"/>
        <pt x="89" y="-2" on="1"/>
        <pt x="42" y="-2" on="0"/>
        <pt x="45" y="24" on="1"/>
        <pt x="94" y="484" on="1"/>
        <pt x="20" y="484" on="1"/>
        <pt x="-1" y="484" on="0"/>
        <pt x="-1" y="513" on="1"/>
        <pt x="-1" y="532" on="0"/>
        <pt x="11" y="566" on="0"/>
        <pt x="29" y="566" on="1"/>
        <pt x="102" y="566" on="1"/>
        <pt x="114" y="676" on="1"/>
        <pt x="116" y="702" on="0"/>
        <pt x="163" y="702" on="1"/>
        <pt x="190" y="702" on="1"/>
        <pt x="236" y="702" on="0"/>
        <pt x="233" y="676" on="1"/>
        <pt x="222" y="566" on="1"/>
        <pt x="444" y="566" on="1"/>
        <pt x="456" y="676" on="1"/>
        <pt x="458" y="702" on="0"/>
        <pt x="505" y="702" on="1"/>
        <pt x="531" y="702" on="1"/>
        <pt x="578" y="702" on="0"/>
        <pt x="575" y="676" on="1"/>
        <pt x="564" y="566" on="1"/>
        <pt x="634" y="566" on="1"/>
      </contour>
      <contour>
        <pt x="436" y="484" on="1"/>
        <pt x="213" y="484" on="1"/>
        <pt x="205" y="408" on="1"/>
        <pt x="428" y="408" on="1"/>
      </contour>
    </TTGlyph>
    <TTGlyph name="Hcircumflex" xMin="42" yMin="-2" xMax="578" yMax="895">
      <component glyphName="H" x="0" y="0" flags="0x0"/>
      <component glyphName="circumflex" x="194" y="177" flags="0x0"/>
    </TTGlyph>
    <TTGlyph name="I" xMin="45" yMin="-2" xMax="237" yMax="702">
      <contour>
        <pt x="66" y="-2" on="0"/>
        <pt x="45" y="11" on="0"/>
        <pt x="46" y="24" on="1"/>
        <pt x="115" y="676" on="1"/>
        <pt x="118" y="702" on="0"/>
        <pt x="164" y="702" on="1"/>
        <pt x="191" y="702" on="1"/>
        <pt x="237" y="702" on="0"/>
        <pt x="234" y="676" on="1"/>
        <pt x="165" y="24" on="1"/>
        <pt x="163" y="-2" on="0"/>
        <pt x="117" y="-2" on="1"/>
        <pt x="90" y="-2" on="1"/>
      </contour>
    </TTGlyph>
    <TTGlyph name="IJ" xMin="45" yMin="-7" xMax="586" yMax="702">
      <component glyphName="I" x="0" y="0" flags="0x0"/>
      <component glyphName="J" x="262" y="0" flags="0x0"/>
    </TTGlyph>
    <TTGlyph name="Iacute" xMin="45" yMin="-2" xMax="298" yMax="910">
      <component glyphName="I" x="0" y="0" flags="0x0"/>
      <component glyphName="acute" x="88" y="177" flags="0x0"/>
    </TTGlyph>
    <TTGlyph name="Iacute_J.loclNLD" xMin="45" yMin="-7" xMax="645" yMax="910">
      <component glyphName="I" x="0" y="0" flags="0x0"/>
      <component glyphName="acute" x="88" y="177" flags="0x0"/>
      <component glyphName="J" x="262" y="0" flags="0x0"/>
      <component glyphName="acute" x="435" y="177" flags="0x0"/>
    </TTGlyph>
    <TTGlyph name="Ibreve" xMin="45" yMin="-2" xMax="321" yMax="892">
      <component glyphName="I" x="0" y="0" flags="0x0"/>
      <component glyphName="breve" x="24" y="177" flags="0x0"/>
    </TTGlyph>
    <TTGlyph name="Icircumflex" xMin="45" yMin="-2" xMax="299" yMax="895">
      <component glyphName="I" x="0" y="0" flags="0x0"/>
      <component glyphName="circumflex" x="23" y="177" flags="0x0"/>
    </TTGlyph>
    <TTGlyph name="Idieresis" xMin="45" yMin="-2" xMax="314" yMax="879">
      <component glyphName="I" x="0" y="0" flags="0x0"/>
      <component glyphName="dieresis" x="21" y="177" flags="0x0"/>
    </TTGlyph>
    <TTGlyph name="Idotaccent" xMin="45" yMin="-2" xMax="251" yMax="879">
      <component glyphName="I" x="0" y="0" flags="0x0"/>
      <component glyphName="dotaccent" x="20" y="177" flags="0x0"/>
    </TTGlyph>
    <TTGlyph name="Igrave" xMin="45" yMin="-2" xMax="237" yMax="910">
      <component glyphName="I" x="0" y="0" flags="0x0"/>
      <component glyphName="grave" x="16" y="177" flags="0x0"/>
    </TTGlyph>
    <TTGlyph name="Imacron" xMin="45" yMin="-2" xMax="314" yMax="863">
      <component glyphName="I" x="0" y="0" flags="0x0"/>
      <component glyphName="macron" x="23" y="177" flags="0x0"/>
    </TTGlyph>
    <TTGlyph name="Iogonek" xMin="45" yMin="-174" xMax="247" yMax="702">
      <contour>
        <pt x="247" y="-103" on="0"/>
        <pt x="247" y="-129" on="1"/>
        <pt x="247" y="-149" on="0"/>
        <pt x="232" y="-158" on="1"/>
        <pt x="206" y="-174" on="0"/>
        <pt x="170" y="-174" on="1"/>
        <pt x="115" y="-174" on="0"/>
        <pt x="76" y="-115" on="0"/>
        <pt x="76" y="-83" on="1"/>
        <pt x="76" y="-45" on="0"/>
        <pt x="96" y="-2" on="1"/>
        <pt x="90" y="-2" on="1"/>
        <pt x="66" y="-2" on="0"/>
        <pt x="45" y="11" on="0"/>
        <pt x="46" y="24" on="1"/>
        <pt x="115" y="676" on="1"/>
        <pt x="118" y="702" on="0"/>
        <pt x="164" y="702" on="1"/>
        <pt x="191" y="702" on="1"/>
        <pt x="237" y="702" on="0"/>
        <pt x="234" y="676" on="1"/>
        <pt x="165" y="24" on="1"/>
        <pt x="165" y="18" on="0"/>
        <pt x="162" y="13" on="1"/>
        <pt x="151" y="-7" on="0"/>
        <pt x="140" y="-48" on="0"/>
        <pt x="140" y="-65" on="1"/>
        <pt x="140" y="-90" on="0"/>
        <pt x="168" y="-108" on="0"/>
        <pt x="189" y="-108" on="1"/>
        <pt x="197" y="-108" on="0"/>
        <pt x="217" y="-103" on="0"/>
        <pt x="222" y="-103" on="1"/>
      </contour>
    </TTGlyph>
    <TTGlyph name="Itilde" xMin="41" yMin="-2" xMax="314" yMax="871">
      <contour>
        <pt x="55" y="767" on="1"/>
        <pt x="41" y="772" on="0"/>
        <pt x="41" y="785" on="1"/>
        <pt x="41" y="794" on="0"/>
        <pt x="44" y="800" on="1"/>
        <pt x="67" y="869" on="0"/>
        <pt x="121" y="869" on="1"/>
        <pt x="133" y="869" on="0"/>
        <pt x="166" y="857" on="0"/>
        <pt x="182" y="850" on="1"/>
        <pt x="218" y="834" on="0"/>
        <pt x="231" y="834" on="1"/>
        <pt x="239" y="834" on="0"/>
        <pt x="253" y="842" on="0"/>
        <pt x="261" y="855" on="1"/>
        <pt x="268" y="871" on="0"/>
        <pt x="281" y="871" on="1"/>
        <pt x="286" y="871" on="0"/>
        <pt x="292" y="868" on="1"/>
        <pt x="299" y="865" on="1"/>
        <pt x="308" y="862" on="0"/>
        <pt x="314" y="854" on="0"/>
        <pt x="314" y="847" on="1"/>
        <pt x="314" y="841" on="0"/>
        <pt x="311" y="833" on="1"/>
        <pt x="300" y="800" on="0"/>
        <pt x="260" y="764" on="0"/>
        <pt x="234" y="764" on="1"/>
        <pt x="221" y="764" on="0"/>
        <pt x="188" y="776" on="0"/>
        <pt x="172" y="783" on="1"/>
        <pt x="169" y="784" on="0"/>
        <pt x="134" y="799" on="0"/>
        <pt x="122" y="799" on="1"/>
        <pt x="115" y="799" on="0"/>
        <pt x="102" y="790" on="0"/>
        <pt x="94" y="777" on="1"/>
        <pt x="85" y="762" on="0"/>
        <pt x="75" y="762" on="1"/>
        <pt x="72" y="762" on="0"/>
        <pt x="64" y="764" on="1"/>
      </contour>
      <contour>
        <pt x="66" y="-2" on="0"/>
        <pt x="45" y="11" on="0"/>
        <pt x="46" y="24" on="1"/>
        <pt x="115" y="676" on="1"/>
        <pt x="118" y="702" on="0"/>
        <pt x="164" y="702" on="1"/>
        <pt x="191" y="702" on="1"/>
        <pt x="237" y="702" on="0"/>
        <pt x="234" y="676" on="1"/>
        <pt x="165" y="24" on="1"/>
        <pt x="163" y="-2" on="0"/>
        <pt x="117" y="-2" on="1"/>
        <pt x="90" y="-2" on="1"/>
      </contour>
    </TTGlyph>
    <TTGlyph name="J" xMin="-26" yMin="-7" xMax="324" yMax="702">
      <contour>
        <pt x="35" y="-7" on="0"/>
        <pt x="-26" y="14" on="0"/>
        <pt x="-25" y="31" on="1"/>
        <pt x="-22" y="51" on="0"/>
        <pt x="2" y="102" on="0"/>
        <pt x="14" y="103" on="1"/>
        <pt x="17" y="103" on="0"/>
        <pt x="50" y="95" on="0"/>
        <pt x="66" y="95" on="1"/>
        <pt x="106" y="95" on="0"/>
        <pt x="147" y="149" on="0"/>
        <pt x="153" y="209" on="1"/>
        <pt x="202" y="676" on="1"/>
        <pt x="204" y="702" on="0"/>
        <pt x="251" y="702" on="1"/>
        <pt x="277" y="702" on="1"/>
        <pt x="324" y="702" on="0"/>
        <pt x="322" y="676" on="1"/>
        <pt x="272" y="204" on="1"/>
        <pt x="262" y="103" on="0"/>
        <pt x="164" y="-7" on="0"/>
        <pt x="72" y="-7" on="1"/>
      </contour>
    </TTGlyph>
    <TTGlyph name="Jcircumflex" xMin="-26" yMin="-7" xMax="385" yMax="895">
      <component glyphName="J" x="0" y="0" flags="0x0"/>
      <component glyphName="circumflex" x="109" y="177" flags="0x0"/>
    </TTGlyph>
    <TTGlyph name="K" xMin="42" yMin="-2" xMax="535" yMax="702">
      <contour>
        <pt x="42" y="-2" on="0"/>
        <pt x="45" y="24" on="1"/>
        <pt x="114" y="676" on="1"/>
        <pt x="116" y="702" on="0"/>
        <pt x="163" y="702" on="1"/>
        <pt x="188" y="702" on="1"/>
        <pt x="236" y="702" on="0"/>
        <pt x="233" y="676" on="1"/>
        <pt x="200" y="377" on="1"/>
        <pt x="205" y="377" on="1"/>
        <pt x="407" y="686" on="1"/>
        <pt x="413" y="696" on="0"/>
        <pt x="437" y="702" on="0"/>
        <pt x="458" y="702" on="1"/>
        <pt x="491" y="702" on="1"/>
        <pt x="535" y="702" on="0"/>
        <pt x="533" y="688" on="1"/>
        <pt x="533" y="682" on="0"/>
        <pt x="524" y="668" on="1"/>
        <pt x="308" y="352" on="1"/>
        <pt x="474" y="31" on="1"/>
        <pt x="479" y="22" on="0"/>
        <pt x="479" y="12" on="1"/>
        <pt x="478" y="5" on="0"/>
        <pt x="456" y="-2" on="0"/>
        <pt x="432" y="-2" on="1"/>
        <pt x="401" y="-2" on="1"/>
        <pt x="380" y="-2" on="0"/>
        <pt x="356" y="4" on="0"/>
        <pt x="351" y="14" on="1"/>
        <pt x="199" y="333" on="1"/>
        <pt x="195" y="333" on="1"/>
        <pt x="164" y="24" on="1"/>
        <pt x="162" y="-2" on="0"/>
        <pt x="114" y="-2" on="1"/>
        <pt x="89" y="-2" on="1"/>
      </contour>
    </TTGlyph>
    <TTGlyph name="Kcommaaccent" xMin="42" yMin="-237" xMax="535" yMax="702">
      <component glyphName="K" x="0" y="0" flags="0x0"/>
      <component glyphName="uni0326" x="363" y="0" flags="0x0"/>
    </TTGlyph>
    <TTGlyph name="L" xMin="44" yMin="0" xMax="377" yMax="702">
      <contour>
        <pt x="57" y="0" on="0"/>
        <pt x="44" y="16" on="0"/>
        <pt x="46" y="34" on="1"/>
        <pt x="114" y="676" on="1"/>
        <pt x="116" y="702" on="0"/>
        <pt x="163" y="702" on="1"/>
        <pt x="188" y="702" on="1"/>
        <pt x="213" y="702" on="0"/>
        <pt x="234" y="689" on="0"/>
        <pt x="233" y="676" on="1"/>
        <pt x="172" y="100" on="1"/>
        <pt x="354" y="100" on="1"/>
        <pt x="367" y="100" on="0"/>
        <pt x="377" y="81" on="0"/>
        <pt x="375" y="61" on="1"/>
        <pt x="372" y="39" on="1"/>
        <pt x="370" y="18" on="0"/>
        <pt x="356" y="0" on="0"/>
        <pt x="343" y="0" on="1"/>
        <pt x="74" y="0" on="1"/>
      </contour>
    </TTGlyph>
    <TTGlyph name="Lacute" xMin="44" yMin="0" xMax="377" yMax="911">
      <component glyphName="L" x="0" y="0" flags="0x0"/>
      <component glyphName="acute" x="88" y="178" flags="0x0"/>
    </TTGlyph>
    <TTGlyph name="Lcaron" xMin="44" yMin="0" xMax="407" yMax="702">
      <component glyphName="L" x="0" y="0" flags="0x0"/>
      <component glyphName="caron.alt" x="223" y="0" flags="0x0"/>
    </TTGlyph>
    <TTGlyph name="Lcommaaccent" xMin="44" yMin="-237" xMax="377" yMax="702">
      <component glyphName="L" x="0" y="0" flags="0x0"/>
      <component glyphName="uni0326" x="331" y="0" flags="0x0"/>
    </TTGlyph>
    <TTGlyph name="Ldot" xMin="44" yMin="0" xMax="377" yMax="702">
      <component glyphName="L" x="0" y="0" flags="0x0"/>
      <component glyphName="periodcentered" x="192" y="0" flags="0x0"/>
    </TTGlyph>
    <TTGlyph name="Lslash" xMin="42" yMin="0" xMax="375" yMax="702">
      <contour>
        <pt x="366" y="100" on="0"/>
        <pt x="375" y="82" on="0"/>
        <pt x="373" y="61" on="1"/>
        <pt x="370" y="39" on="1"/>
        <pt x="367" y="0" on="0"/>
        <pt x="342" y="0" on="1"/>
        <pt x="72" y="0" on="1"/>
        <pt x="56" y="0" on="0"/>
        <pt x="42" y="16" on="0"/>
        <pt x="44" y="34" on="1"/>
        <pt x="112" y="676" on="1"/>
        <pt x="114" y="689" on="0"/>
        <pt x="137" y="702" on="0"/>
        <pt x="162" y="702" on="1"/>
        <pt x="187" y="702" on="1"/>
        <pt x="234" y="702" on="0"/>
        <pt x="231" y="676" on="1"/>
        <pt x="170" y="100" on="1"/>
        <pt x="353" y="100" on="1"/>
      </contour>
      <contour>
        <pt x="163" y="411" on="0"/>
        <pt x="164" y="411" on="1"/>
        <pt x="141" y="399" on="1"/>
        <pt x="141" y="398" on="1"/>
        <pt x="141" y="393" on="1"/>
        <pt x="141" y="390" on="0"/>
        <pt x="140" y="389" on="1"/>
        <pt x="163" y="401" on="1"/>
        <pt x="163" y="402" on="1"/>
        <pt x="162" y="402" on="1"/>
        <pt x="163" y="402" on="0"/>
        <pt x="163" y="403" on="1"/>
        <pt x="163" y="408" on="1"/>
      </contour>
    </TTGlyph>
    <TTGlyph name="M" xMin="37" yMin="-2" xMax="672" yMax="702">
      <contour>
        <pt x="317" y="232" on="0"/>
        <pt x="305" y="240" on="0"/>
        <pt x="300" y="250" on="1"/>
        <pt x="222" y="440" on="1"/>
        <pt x="214" y="459" on="0"/>
        <pt x="202" y="499" on="1"/>
        <pt x="198" y="498" on="1"/>
        <pt x="199" y="471" on="1"/>
        <pt x="199" y="459" on="0"/>
        <pt x="197" y="433" on="1"/>
        <pt x="154" y="24" on="1"/>
        <pt x="151" y="-2" on="0"/>
        <pt x="104" y="-2" on="1"/>
        <pt x="83" y="-2" on="1"/>
        <pt x="58" y="-2" on="0"/>
        <pt x="37" y="11" on="0"/>
        <pt x="39" y="24" on="1"/>
        <pt x="107" y="676" on="1"/>
        <pt x="109" y="689" on="0"/>
        <pt x="132" y="702" on="0"/>
        <pt x="157" y="702" on="1"/>
        <pt x="182" y="702" on="1"/>
        <pt x="218" y="702" on="0"/>
        <pt x="227" y="680" on="1"/>
        <pt x="343" y="401" on="1"/>
        <pt x="349" y="385" on="0"/>
        <pt x="355" y="353" on="1"/>
        <pt x="363" y="379" on="0"/>
        <pt x="377" y="401" on="1"/>
        <pt x="550" y="680" on="1"/>
        <pt x="565" y="702" on="0"/>
        <pt x="600" y="702" on="1"/>
        <pt x="625" y="702" on="1"/>
        <pt x="672" y="702" on="0"/>
        <pt x="670" y="676" on="1"/>
        <pt x="601" y="24" on="1"/>
        <pt x="598" y="-2" on="0"/>
        <pt x="551" y="-2" on="1"/>
        <pt x="530" y="-2" on="1"/>
        <pt x="483" y="-2" on="0"/>
        <pt x="486" y="24" on="1"/>
        <pt x="529" y="433" on="1"/>
        <pt x="531" y="459" on="0"/>
        <pt x="542" y="498" on="1"/>
        <pt x="538" y="499" on="1"/>
        <pt x="522" y="467" on="0"/>
        <pt x="505" y="440" on="1"/>
        <pt x="387" y="250" on="1"/>
        <pt x="381" y="240" on="0"/>
        <pt x="367" y="232" on="0"/>
        <pt x="355" y="232" on="1"/>
        <pt x="329" y="232" on="1"/>
      </contour>
    </TTGlyph>
    <TTGlyph name="N" xMin="37" yMin="-2" xMax="572" yMax="702">
      <contour>
        <pt x="58" y="-2" on="0"/>
        <pt x="37" y="11" on="0"/>
        <pt x="39" y="24" on="1"/>
        <pt x="107" y="676" on="1"/>
        <pt x="109" y="689" on="0"/>
        <pt x="132" y="702" on="0"/>
        <pt x="157" y="702" on="1"/>
        <pt x="181" y="702" on="1"/>
        <pt x="198" y="702" on="0"/>
        <pt x="218" y="692" on="0"/>
        <pt x="224" y="679" on="1"/>
        <pt x="389" y="274" on="1"/>
        <pt x="402" y="245" on="0"/>
        <pt x="412" y="205" on="1"/>
        <pt x="416" y="207" on="1"/>
        <pt x="414" y="233" on="0"/>
        <pt x="414" y="246" on="1"/>
        <pt x="414" y="258" on="0"/>
        <pt x="416" y="278" on="1"/>
        <pt x="459" y="676" on="1"/>
        <pt x="461" y="702" on="0"/>
        <pt x="508" y="702" on="1"/>
        <pt x="525" y="702" on="1"/>
        <pt x="572" y="702" on="0"/>
        <pt x="570" y="676" on="1"/>
        <pt x="502" y="24" on="1"/>
        <pt x="497" y="-2" on="0"/>
        <pt x="451" y="-2" on="1"/>
        <pt x="433" y="-2" on="1"/>
        <pt x="400" y="-2" on="0"/>
        <pt x="392" y="19" on="1"/>
        <pt x="218" y="437" on="1"/>
        <pt x="211" y="453" on="0"/>
        <pt x="200" y="494" on="0"/>
        <pt x="198" y="501" on="1"/>
        <pt x="193" y="498" on="1"/>
        <pt x="195" y="470" on="0"/>
        <pt x="195" y="457" on="1"/>
        <pt x="195" y="440" on="0"/>
        <pt x="194" y="432" on="1"/>
        <pt x="150" y="24" on="1"/>
        <pt x="148" y="-2" on="0"/>
        <pt x="100" y="-2" on="1"/>
        <pt x="83" y="-2" on="1"/>
      </contour>
    </TTGlyph>
    <TTGlyph name="Nacute" xMin="37" yMin="-2" xMax="572" yMax="910">
      <component glyphName="N" x="0" y="0" flags="0x0"/>
      <component glyphName="acute" x="250" y="177" flags="0x0"/>
    </TTGlyph>
    <TTGlyph name="Nacute.loclPLK" xMin="37" yMin="-2" xMax="572" yMax="910">
      <component glyphName="N" x="0" y="0" flags="0x0"/>
      <component glyphName="acute.loclPLK" x="250" y="177" flags="0x0"/>
    </TTGlyph>
    <TTGlyph name="Ncaron" xMin="37" yMin="-2" xMax="572" yMax="899">
      <component glyphName="N" x="0" y="0" flags="0x0"/>
      <component glyphName="caron" x="187" y="177" flags="0x0"/>
    </TTGlyph>
    <TTGlyph name="Ncommaaccent" xMin="37" yMin="-237" xMax="572" yMax="702">
      <component glyphName="N" x="0" y="0" flags="0x0"/>
      <component glyphName="uni0326" x="399" y="0" flags="0x0"/>
    </TTGlyph>
    <TTGlyph name="Ntilde" xMin="37" yMin="-2" xMax="572" yMax="871">
      <component glyphName="N" x="0" y="0" flags="0x0"/>
      <component glyphName="tilde" x="191" y="177" flags="0x0"/>
    </TTGlyph>
    <TTGlyph name="O" xMin="50" yMin="-7" xMax="568" yMax="707">
      <contour>
        <pt x="168" y="-7" on="0"/>
        <pt x="50" y="133" on="0"/>
        <pt x="50" y="273" on="1"/>
        <pt x="50" y="314" on="0"/>
        <pt x="54" y="351" on="1"/>
        <pt x="73" y="534" on="0"/>
        <pt x="218" y="707" on="0"/>
        <pt x="346" y="707" on="1"/>
        <pt x="451" y="707" on="0"/>
        <pt x="568" y="569" on="0"/>
        <pt x="568" y="429" on="1"/>
        <pt x="568" y="388" on="0"/>
        <pt x="564" y="351" on="1"/>
        <pt x="545" y="168" on="0"/>
        <pt x="399" y="-7" on="0"/>
        <pt x="272" y="-7" on="1"/>
      </contour>
      <contour>
        <pt x="350" y="93" on="0"/>
        <pt x="429" y="215" on="0"/>
        <pt x="444" y="351" on="1"/>
        <pt x="449" y="403" on="0"/>
        <pt x="449" y="435" on="1"/>
        <pt x="449" y="526" on="0"/>
        <pt x="393" y="606" on="0"/>
        <pt x="337" y="606" on="1"/>
        <pt x="269" y="606" on="0"/>
        <pt x="190" y="487" on="0"/>
        <pt x="176" y="351" on="1"/>
        <pt x="171" y="298" on="0"/>
        <pt x="171" y="265" on="1"/>
        <pt x="171" y="175" on="0"/>
        <pt x="227" y="93" on="0"/>
        <pt x="283" y="93" on="1"/>
      </contour>
    </TTGlyph>
    <TTGlyph name="OE" xMin="50" yMin="-7" xMax="828" yMax="707">
      <contour>
        <pt x="818" y="700" on="0"/>
        <pt x="828" y="681" on="0"/>
        <pt x="826" y="661" on="1"/>
        <pt x="823" y="639" on="1"/>
        <pt x="820" y="600" on="0"/>
        <pt x="796" y="600" on="1"/>
        <pt x="585" y="600" on="1"/>
        <pt x="565" y="408" on="1"/>
        <pt x="754" y="408" on="1"/>
        <pt x="774" y="408" on="0"/>
        <pt x="774" y="382" on="1"/>
        <pt x="773" y="369" on="1"/>
        <pt x="771" y="347" on="1"/>
        <pt x="768" y="308" on="0"/>
        <pt x="743" y="308" on="1"/>
        <pt x="554" y="308" on="1"/>
        <pt x="532" y="100" on="1"/>
        <pt x="743" y="100" on="1"/>
        <pt x="763" y="100" on="0"/>
        <pt x="763" y="74" on="1"/>
        <pt x="763" y="66" on="0"/>
        <pt x="762" y="61" on="1"/>
        <pt x="760" y="39" on="1"/>
        <pt x="757" y="0" on="0"/>
        <pt x="733" y="0" on="1"/>
        <pt x="434" y="0" on="1"/>
        <pt x="418" y="0" on="0"/>
        <pt x="404" y="16" on="0"/>
        <pt x="406" y="34" on="1"/>
        <pt x="407" y="43" on="1"/>
        <pt x="346" y="-7" on="0"/>
        <pt x="261" y="-7" on="1"/>
        <pt x="164" y="-7" on="0"/>
        <pt x="50" y="133" on="0"/>
        <pt x="50" y="272" on="1"/>
        <pt x="50" y="314" on="0"/>
        <pt x="54" y="351" on="1"/>
        <pt x="73" y="532" on="0"/>
        <pt x="213" y="707" on="0"/>
        <pt x="334" y="707" on="1"/>
        <pt x="426" y="707" on="0"/>
        <pt x="472" y="648" on="1"/>
        <pt x="473" y="666" on="1"/>
        <pt x="475" y="684" on="0"/>
        <pt x="492" y="700" on="0"/>
        <pt x="508" y="700" on="1"/>
        <pt x="806" y="700" on="1"/>
      </contour>
      <contour>
        <pt x="449" y="403" on="0"/>
        <pt x="449" y="435" on="1"/>
        <pt x="449" y="526" on="0"/>
        <pt x="393" y="606" on="0"/>
        <pt x="337" y="606" on="1"/>
        <pt x="269" y="606" on="0"/>
        <pt x="190" y="487" on="0"/>
        <pt x="176" y="351" on="1"/>
        <pt x="171" y="298" on="0"/>
        <pt x="171" y="265" on="1"/>
        <pt x="171" y="175" on="0"/>
        <pt x="227" y="93" on="0"/>
        <pt x="283" y="93" on="1"/>
        <pt x="350" y="93" on="0"/>
        <pt x="429" y="215" on="0"/>
        <pt x="444" y="351" on="1"/>
      </contour>
    </TTGlyph>
    <TTGlyph name="Oacute" xMin="50" yMin="-7" xMax="568" yMax="910">
      <component glyphName="O" x="0" y="0" flags="0x0"/>
      <component glyphName="acute" x="257" y="177" flags="0x0"/>
    </TTGlyph>
    <TTGlyph name="Oacute.loclPLK" xMin="50" yMin="-7" xMax="568" yMax="910">
      <component glyphName="O" x="0" y="0" flags="0x0"/>
      <component glyphName="acute.loclPLK" x="257" y="177" flags="0x0"/>
    </TTGlyph>
    <TTGlyph name="Obreve" xMin="50" yMin="-7" xMax="568" yMax="892">
      <component glyphName="O" x="0" y="0" flags="0x0"/>
      <component glyphName="breve" x="193" y="177" flags="0x0"/>
    </TTGlyph>
    <TTGlyph name="Ocircumflex" xMin="50" yMin="-7" xMax="568" yMax="895">
      <component glyphName="O" x="0" y="0" flags="0x0"/>
      <component glyphName="circumflex" x="193" y="177" flags="0x0"/>
    </TTGlyph>
    <TTGlyph name="Odieresis" xMin="50" yMin="-7" xMax="568" yMax="879">
      <component glyphName="O" x="0" y="0" flags="0x0"/>
      <component glyphName="dieresis" x="191" y="177" flags="0x0"/>
    </TTGlyph>
    <TTGlyph name="Ograve" xMin="50" yMin="-7" xMax="568" yMax="910">
      <component glyphName="O" x="0" y="0" flags="0x0"/>
      <component glyphName="grave" x="185" y="177" flags="0x0"/>
    </TTGlyph>
    <TTGlyph name="Ohorn" xMin="50" yMin="-7" xMax="625" yMax="787">
      <contour>
        <pt x="625" y="668" on="0"/>
        <pt x="575" y="619" on="0"/>
        <pt x="525" y="617" on="1"/>
        <pt x="569" y="548" on="0"/>
        <pt x="569" y="431" on="1"/>
        <pt x="569" y="399" on="0"/>
        <pt x="564" y="351" on="1"/>
        <pt x="545" y="168" on="0"/>
        <pt x="399" y="-7" on="0"/>
        <pt x="272" y="-7" on="1"/>
        <pt x="168" y="-7" on="0"/>
        <pt x="50" y="133" on="0"/>
        <pt x="50" y="273" on="1"/>
        <pt x="50" y="314" on="0"/>
        <pt x="54" y="351" on="1"/>
        <pt x="73" y="532" on="0"/>
        <pt x="218" y="707" on="0"/>
        <pt x="345" y="707" on="1"/>
        <pt x="385" y="707" on="0"/>
        <pt x="446" y="687" on="0"/>
        <pt x="475" y="669" on="1"/>
        <pt x="491" y="661" on="0"/>
        <pt x="511" y="653" on="0"/>
        <pt x="521" y="653" on="1"/>
        <pt x="537" y="653" on="0"/>
        <pt x="556" y="671" on="0"/>
        <pt x="556" y="687" on="1"/>
        <pt x="556" y="698" on="0"/>
        <pt x="547" y="717" on="0"/>
        <pt x="529" y="741" on="0"/>
        <pt x="529" y="746" on="1"/>
        <pt x="529" y="757" on="0"/>
        <pt x="539" y="764" on="1"/>
        <pt x="566" y="782" on="1"/>
        <pt x="572" y="787" on="0"/>
        <pt x="580" y="787" on="1"/>
        <pt x="597" y="787" on="0"/>
        <pt x="625" y="733" on="0"/>
        <pt x="625" y="709" on="1"/>
      </contour>
      <contour>
        <pt x="449" y="403" on="0"/>
        <pt x="449" y="435" on="1"/>
        <pt x="449" y="526" on="0"/>
        <pt x="393" y="606" on="0"/>
        <pt x="337" y="606" on="1"/>
        <pt x="269" y="606" on="0"/>
        <pt x="190" y="487" on="0"/>
        <pt x="176" y="351" on="1"/>
        <pt x="171" y="298" on="0"/>
        <pt x="171" y="265" on="1"/>
        <pt x="171" y="175" on="0"/>
        <pt x="227" y="93" on="0"/>
        <pt x="283" y="93" on="1"/>
        <pt x="350" y="93" on="0"/>
        <pt x="429" y="215" on="0"/>
        <pt x="444" y="351" on="1"/>
      </contour>
    </TTGlyph>
    <TTGlyph name="Ohungarumlaut" xMin="50" yMin="-7" xMax="568" yMax="910">
      <component glyphName="O" x="0" y="0" flags="0x0"/>
      <component glyphName="hungarumlaut" x="242" y="177" flags="0x0"/>
    </TTGlyph>
    <TTGlyph name="Omacron" xMin="50" yMin="-7" xMax="568" yMax="863">
      <component glyphName="O" x="0" y="0" flags="0x0"/>
      <component glyphName="macron" x="193" y="177" flags="0x0"/>
    </TTGlyph>
    <TTGlyph name="Oslash" xMin="50" yMin="-20" xMax="569" yMax="722">
      <contour>
        <pt x="569" y="560" on="0"/>
        <pt x="569" y="431" on="1"/>
        <pt x="569" y="398" on="0"/>
        <pt x="564" y="351" on="1"/>
        <pt x="545" y="168" on="0"/>
        <pt x="399" y="-7" on="0"/>
        <pt x="272" y="-7" on="1"/>
        <pt x="191" y="-7" on="0"/>
        <pt x="138" y="35" on="1"/>
        <pt x="111" y="-6" on="1"/>
        <pt x="103" y="-20" on="0"/>
        <pt x="92" y="-20" on="1"/>
        <pt x="82" y="-20" on="0"/>
        <pt x="57" y="-1" on="0"/>
        <pt x="57" y="8" on="1"/>
        <pt x="57" y="17" on="0"/>
        <pt x="63" y="24" on="1"/>
        <pt x="97" y="79" on="1"/>
        <pt x="50" y="150" on="0"/>
        <pt x="50" y="273" on="1"/>
        <pt x="50" y="314" on="0"/>
        <pt x="54" y="351" on="1"/>
        <pt x="73" y="534" on="0"/>
        <pt x="218" y="707" on="0"/>
        <pt x="346" y="707" on="1"/>
        <pt x="420" y="707" on="0"/>
        <pt x="473" y="672" on="1"/>
        <pt x="497" y="709" on="1"/>
        <pt x="506" y="722" on="0"/>
        <pt x="515" y="722" on="1"/>
        <pt x="526" y="722" on="0"/>
        <pt x="550" y="704" on="0"/>
        <pt x="550" y="694" on="1"/>
        <pt x="550" y="687" on="0"/>
        <pt x="545" y="678" on="1"/>
        <pt x="515" y="631" on="1"/>
      </contour>
      <contour>
        <pt x="171" y="311" on="0"/>
        <pt x="171" y="265" on="1"/>
        <pt x="171" y="226" on="0"/>
        <pt x="175" y="201" on="1"/>
        <pt x="413" y="576" on="1"/>
        <pt x="386" y="606" on="0"/>
        <pt x="337" y="606" on="1"/>
        <pt x="269" y="606" on="0"/>
        <pt x="190" y="487" on="0"/>
        <pt x="176" y="351" on="1"/>
      </contour>
      <contour>
        <pt x="449" y="403" on="0"/>
        <pt x="449" y="434" on="1"/>
        <pt x="449" y="480" on="0"/>
        <pt x="441" y="515" on="1"/>
        <pt x="200" y="133" on="1"/>
        <pt x="227" y="93" on="0"/>
        <pt x="283" y="93" on="1"/>
        <pt x="350" y="93" on="0"/>
        <pt x="429" y="215" on="0"/>
        <pt x="444" y="351" on="1"/>
      </contour>
    </TTGlyph>
    <TTGlyph name="Oslashacute" xMin="50" yMin="-20" xMax="569" yMax="910">
      <component glyphName="Oslash" x="0" y="0" flags="0x0"/>
      <component glyphName="acute" x="253" y="177" flags="0x0"/>
    </TTGlyph>
    <TTGlyph name="Otilde" xMin="50" yMin="-7" xMax="568" yMax="871">
      <component glyphName="O" x="0" y="0" flags="0x0"/>
      <component glyphName="tilde" x="198" y="177" flags="0x0"/>
    </TTGlyph>
    <TTGlyph name="P" xMin="42" yMin="-2" xMax="488" yMax="700">
      <contour>
        <pt x="42" y="-2" on="0"/>
        <pt x="45" y="24" on="1"/>
        <pt x="113" y="666" on="1"/>
        <pt x="114" y="684" on="0"/>
        <pt x="132" y="700" on="0"/>
        <pt x="149" y="700" on="1"/>
        <pt x="318" y="700" on="1"/>
        <pt x="385" y="700" on="0"/>
        <pt x="488" y="628" on="0"/>
        <pt x="488" y="530" on="1"/>
        <pt x="488" y="520" on="0"/>
        <pt x="486" y="494" on="1"/>
        <pt x="477" y="409" on="0"/>
        <pt x="401" y="315" on="0"/>
        <pt x="315" y="282" on="0"/>
        <pt x="283" y="282" on="1"/>
        <pt x="191" y="282" on="1"/>
        <pt x="163" y="24" on="1"/>
        <pt x="160" y="-2" on="0"/>
        <pt x="113" y="-2" on="1"/>
        <pt x="90" y="-2" on="1"/>
      </contour>
      <contour>
        <pt x="283" y="381" on="1"/>
        <pt x="312" y="381" on="0"/>
        <pt x="362" y="431" on="0"/>
        <pt x="368" y="494" on="1"/>
        <pt x="369" y="502" on="0"/>
        <pt x="369" y="517" on="1"/>
        <pt x="369" y="563" on="0"/>
        <pt x="330" y="600" on="0"/>
        <pt x="302" y="600" on="1"/>
        <pt x="223" y="600" on="1"/>
        <pt x="200" y="381" on="1"/>
      </contour>
    </TTGlyph>
    <TTGlyph name="Q" xMin="48" yMin="-165" xMax="568" yMax="707">
      <contour>
        <pt x="475" y="-165" on="0"/>
        <pt x="220" y="-23" on="0"/>
        <pt x="161" y="14" on="1"/>
        <pt x="105" y="49" on="0"/>
        <pt x="48" y="172" on="0"/>
        <pt x="48" y="267" on="1"/>
        <pt x="48" y="300" on="0"/>
        <pt x="53" y="350" on="1"/>
        <pt x="72" y="534" on="0"/>
        <pt x="214" y="707" on="0"/>
        <pt x="345" y="707" on="1"/>
        <pt x="452" y="707" on="0"/>
        <pt x="568" y="570" on="0"/>
        <pt x="568" y="432" on="1"/>
        <pt x="568" y="398" on="0"/>
        <pt x="563" y="350" on="1"/>
        <pt x="532" y="77" on="0"/>
        <pt x="364" y="15" on="1"/>
        <pt x="364" y="11" on="1"/>
        <pt x="540" y="-69" on="1"/>
        <pt x="552" y="-75" on="0"/>
        <pt x="550" y="-86" on="1"/>
        <pt x="548" y="-94" on="0"/>
        <pt x="526" y="-134" on="0"/>
        <pt x="497" y="-165" on="0"/>
        <pt x="485" y="-165" on="1"/>
      </contour>
      <contour>
        <pt x="348" y="92" on="0"/>
        <pt x="428" y="214" on="0"/>
        <pt x="443" y="350" on="1"/>
        <pt x="448" y="402" on="0"/>
        <pt x="448" y="432" on="1"/>
        <pt x="448" y="523" on="0"/>
        <pt x="392" y="606" on="0"/>
        <pt x="336" y="606" on="1"/>
        <pt x="268" y="606" on="0"/>
        <pt x="189" y="486" on="0"/>
        <pt x="175" y="350" on="1"/>
        <pt x="170" y="309" on="0"/>
        <pt x="170" y="262" on="1"/>
        <pt x="170" y="173" on="0"/>
        <pt x="226" y="92" on="0"/>
        <pt x="282" y="92" on="1"/>
      </contour>
    </TTGlyph>
    <TTGlyph name="R" xMin="39" yMin="-2" xMax="483" yMax="700">
      <contour>
        <pt x="39" y="-2" on="0"/>
        <pt x="41" y="24" on="1"/>
        <pt x="109" y="666" on="1"/>
        <pt x="111" y="684" on="0"/>
        <pt x="129" y="700" on="0"/>
        <pt x="146" y="700" on="1"/>
        <pt x="302" y="700" on="1"/>
        <pt x="389" y="700" on="0"/>
        <pt x="483" y="628" on="0"/>
        <pt x="483" y="548" on="1"/>
        <pt x="483" y="538" on="0"/>
        <pt x="481" y="514" on="1"/>
        <pt x="469" y="394" on="0"/>
        <pt x="370" y="345" on="1"/>
        <pt x="370" y="341" on="1"/>
        <pt x="390" y="330" on="0"/>
        <pt x="416" y="273" on="0"/>
        <pt x="426" y="227" on="1"/>
        <pt x="466" y="32" on="1"/>
        <pt x="468" y="27" on="0"/>
        <pt x="468" y="19" on="1"/>
        <pt x="466" y="-2" on="0"/>
        <pt x="417" y="-2" on="1"/>
        <pt x="392" y="-2" on="1"/>
        <pt x="352" y="-2" on="0"/>
        <pt x="347" y="19" on="1"/>
        <pt x="310" y="213" on="1"/>
        <pt x="301" y="255" on="0"/>
        <pt x="269" y="285" on="0"/>
        <pt x="233" y="285" on="1"/>
        <pt x="187" y="285" on="1"/>
        <pt x="159" y="24" on="1"/>
        <pt x="157" y="-2" on="0"/>
        <pt x="109" y="-2" on="1"/>
        <pt x="86" y="-2" on="1"/>
      </contour>
      <contour>
        <pt x="279" y="392" on="1"/>
        <pt x="301" y="392" on="0"/>
        <pt x="340" y="425" on="0"/>
        <pt x="364" y="483" on="0"/>
        <pt x="364" y="519" on="1"/>
        <pt x="364" y="561" on="0"/>
        <pt x="328" y="600" on="0"/>
        <pt x="296" y="600" on="1"/>
        <pt x="220" y="600" on="1"/>
        <pt x="198" y="392" on="1"/>
      </contour>
    </TTGlyph>
    <TTGlyph name="Racute" xMin="39" yMin="-2" xMax="483" yMax="910">
      <component glyphName="R" x="0" y="0" flags="0x0"/>
      <component glyphName="acute" x="209" y="177" flags="0x0"/>
    </TTGlyph>
    <TTGlyph name="Rcaron" xMin="39" yMin="-2" xMax="483" yMax="899">
      <component glyphName="R" x="0" y="0" flags="0x0"/>
      <component glyphName="caron" x="146" y="177" flags="0x0"/>
    </TTGlyph>
    <TTGlyph name="Rcommaaccent" xMin="39" yMin="-237" xMax="483" yMax="700">
      <component glyphName="R" x="0" y="0" flags="0x0"/>
      <component glyphName="uni0326" x="360" y="0" flags="0x0"/>
    </TTGlyph>
    <TTGlyph name="S" xMin="7" yMin="-6" xMax="423" yMax="710">
      <contour>
        <pt x="135" y="-6" on="0"/>
        <pt x="68" y="7" on="0"/>
        <pt x="41" y="25" on="1"/>
        <pt x="25" y="33" on="0"/>
        <pt x="7" y="50" on="0"/>
        <pt x="7" y="63" on="1"/>
        <pt x="7" y="85" on="0"/>
        <pt x="28" y="136" on="0"/>
        <pt x="43" y="136" on="1"/>
        <pt x="48" y="136" on="0"/>
        <pt x="58" y="130" on="1"/>
        <pt x="108" y="95" on="0"/>
        <pt x="176" y="95" on="1"/>
        <pt x="223" y="95" on="0"/>
        <pt x="284" y="144" on="0"/>
        <pt x="284" y="195" on="1"/>
        <pt x="284" y="233" on="0"/>
        <pt x="238" y="283" on="0"/>
        <pt x="192" y="311" on="1"/>
        <pt x="128" y="350" on="0"/>
        <pt x="60" y="433" on="0"/>
        <pt x="60" y="497" on="1"/>
        <pt x="60" y="561" on="0"/>
        <pt x="114" y="658" on="0"/>
        <pt x="210" y="710" on="0"/>
        <pt x="272" y="710" on="1"/>
        <pt x="309" y="710" on="0"/>
        <pt x="387" y="695" on="0"/>
        <pt x="409" y="681" on="1"/>
        <pt x="423" y="673" on="0"/>
        <pt x="423" y="659" on="1"/>
        <pt x="423" y="641" on="0"/>
        <pt x="400" y="584" on="0"/>
        <pt x="387" y="584" on="1"/>
        <pt x="383" y="584" on="0"/>
        <pt x="370" y="589" on="0"/>
        <pt x="366" y="590" on="1"/>
        <pt x="320" y="609" on="0"/>
        <pt x="283" y="609" on="1"/>
        <pt x="236" y="609" on="0"/>
        <pt x="178" y="560" on="0"/>
        <pt x="178" y="518" on="1"/>
        <pt x="178" y="479" on="0"/>
        <pt x="226" y="427" on="0"/>
        <pt x="274" y="398" on="1"/>
        <pt x="337" y="360" on="0"/>
        <pt x="402" y="280" on="0"/>
        <pt x="402" y="217" on="1"/>
        <pt x="402" y="112" on="0"/>
        <pt x="283" y="-6" on="0"/>
        <pt x="178" y="-6" on="1"/>
      </contour>
    </TTGlyph>
    <TTGlyph name="Sacute" xMin="7" yMin="-6" xMax="423" yMax="910">
      <component glyphName="S" x="0" y="0" flags="0x0"/>
      <component glyphName="acute" x="182" y="177" flags="0x0"/>
    </TTGlyph>
    <TTGlyph name="Sacute.loclPLK" xMin="7" yMin="-6" xMax="423" yMax="910">
      <component glyphName="S" x="0" y="0" flags="0x0"/>
      <component glyphName="acute.loclPLK" x="183" y="177" flags="0x0"/>
    </TTGlyph>
    <TTGlyph name="Scaron" xMin="7" yMin="-6" xMax="423" yMax="899">
      <component glyphName="S" x="0" y="0" flags="0x0"/>
      <component glyphName="caron" x="119" y="177" flags="0x0"/>
    </TTGlyph>
    <TTGlyph name="Scedilla" xMin="7" yMin="-211" xMax="423" yMax="710">
      <contour>
        <pt x="337" y="360" on="0"/>
        <pt x="402" y="280" on="0"/>
        <pt x="402" y="217" on="1"/>
        <pt x="402" y="118" on="0"/>
        <pt x="296" y="1" on="0"/>
        <pt x="200" y="-6" on="1"/>
        <pt x="187" y="-54" on="1"/>
        <pt x="216" y="-57" on="0"/>
        <pt x="256" y="-90" on="0"/>
        <pt x="256" y="-125" on="1"/>
        <pt x="256" y="-170" on="0"/>
        <pt x="201" y="-211" on="0"/>
        <pt x="156" y="-211" on="1"/>
        <pt x="120" y="-211" on="0"/>
        <pt x="57" y="-183" on="0"/>
        <pt x="57" y="-164" on="1"/>
        <pt x="57" y="-151" on="0"/>
        <pt x="74" y="-131" on="0"/>
        <pt x="82" y="-131" on="1"/>
        <pt x="88" y="-131" on="0"/>
        <pt x="103" y="-138" on="0"/>
        <pt x="105" y="-139" on="1"/>
        <pt x="114" y="-143" on="0"/>
        <pt x="138" y="-151" on="0"/>
        <pt x="149" y="-151" on="1"/>
        <pt x="161" y="-151" on="0"/>
        <pt x="178" y="-140" on="0"/>
        <pt x="178" y="-128" on="1"/>
        <pt x="178" y="-116" on="0"/>
        <pt x="163" y="-104" on="0"/>
        <pt x="149" y="-99" on="1"/>
        <pt x="137" y="-95" on="0"/>
        <pt x="126" y="-87" on="0"/>
        <pt x="126" y="-79" on="1"/>
        <pt x="126" y="-69" on="0"/>
        <pt x="149" y="-6" on="1"/>
        <pt x="81" y="-1" on="0"/>
        <pt x="41" y="25" on="1"/>
        <pt x="25" y="33" on="0"/>
        <pt x="7" y="50" on="0"/>
        <pt x="7" y="63" on="1"/>
        <pt x="7" y="85" on="0"/>
        <pt x="28" y="136" on="0"/>
        <pt x="43" y="136" on="1"/>
        <pt x="48" y="136" on="0"/>
        <pt x="58" y="130" on="1"/>
        <pt x="108" y="95" on="0"/>
        <pt x="176" y="95" on="1"/>
        <pt x="223" y="95" on="0"/>
        <pt x="284" y="144" on="0"/>
        <pt x="284" y="195" on="1"/>
        <pt x="284" y="233" on="0"/>
        <pt x="238" y="283" on="0"/>
        <pt x="192" y="311" on="1"/>
        <pt x="128" y="350" on="0"/>
        <pt x="60" y="433" on="0"/>
        <pt x="60" y="497" on="1"/>
        <pt x="60" y="561" on="0"/>
        <pt x="114" y="658" on="0"/>
        <pt x="210" y="710" on="0"/>
        <pt x="272" y="710" on="1"/>
        <pt x="309" y="710" on="0"/>
        <pt x="387" y="695" on="0"/>
        <pt x="409" y="681" on="1"/>
        <pt x="423" y="673" on="0"/>
        <pt x="423" y="659" on="1"/>
        <pt x="423" y="641" on="0"/>
        <pt x="400" y="584" on="0"/>
        <pt x="387" y="584" on="1"/>
        <pt x="383" y="584" on="0"/>
        <pt x="370" y="589" on="0"/>
        <pt x="366" y="590" on="1"/>
        <pt x="320" y="609" on="0"/>
        <pt x="283" y="609" on="1"/>
        <pt x="236" y="609" on="0"/>
        <pt x="178" y="560" on="0"/>
        <pt x="178" y="518" on="1"/>
        <pt x="178" y="479" on="0"/>
        <pt x="226" y="427" on="0"/>
        <pt x="274" y="398" on="1"/>
      </contour>
    </TTGlyph>
    <TTGlyph name="Scircumflex" xMin="7" yMin="-6" xMax="423" yMax="895">
      <component glyphName="S" x="0" y="0" flags="0x0"/>
      <component glyphName="circumflex" x="118" y="177" flags="0x0"/>
    </TTGlyph>
    <TTGlyph name="Scommaaccent" xMin="7" yMin="-237" xMax="423" yMax="710">
      <component glyphName="S" x="0" y="0" flags="0x0"/>
      <component glyphName="uni0326" x="308" y="0" flags="0x0"/>
    </TTGlyph>
    <TTGlyph name="T" xMin="53" yMin="-2" xMax="483" yMax="700">
      <contour>
        <pt x="162" y="-2" on="0"/>
        <pt x="141" y="11" on="0"/>
        <pt x="142" y="24" on="1"/>
        <pt x="203" y="600" on="1"/>
        <pt x="73" y="600" on="1"/>
        <pt x="53" y="600" on="0"/>
        <pt x="53" y="627" on="1"/>
        <pt x="54" y="639" on="1"/>
        <pt x="57" y="661" on="1"/>
        <pt x="60" y="700" on="0"/>
        <pt x="84" y="700" on="1"/>
        <pt x="462" y="700" on="1"/>
        <pt x="483" y="700" on="0"/>
        <pt x="483" y="673" on="1"/>
        <pt x="482" y="661" on="1"/>
        <pt x="479" y="639" on="1"/>
        <pt x="476" y="600" on="0"/>
        <pt x="451" y="600" on="1"/>
        <pt x="322" y="600" on="1"/>
        <pt x="261" y="24" on="1"/>
        <pt x="259" y="-2" on="0"/>
        <pt x="212" y="-2" on="1"/>
        <pt x="186" y="-2" on="1"/>
      </contour>
    </TTGlyph>
    <TTGlyph name="Tbar" xMin="27" yMin="-2" xMax="483" yMax="700">
      <contour>
        <pt x="483" y="700" on="0"/>
        <pt x="483" y="673" on="1"/>
        <pt x="482" y="661" on="1"/>
        <pt x="479" y="639" on="1"/>
        <pt x="476" y="600" on="0"/>
        <pt x="451" y="600" on="1"/>
        <pt x="322" y="600" on="1"/>
        <pt x="300" y="393" on="1"/>
        <pt x="419" y="393" on="1"/>
        <pt x="440" y="393" on="0"/>
        <pt x="440" y="365" on="1"/>
        <pt x="440" y="346" on="0"/>
        <pt x="427" y="311" on="0"/>
        <pt x="409" y="311" on="1"/>
        <pt x="292" y="311" on="1"/>
        <pt x="261" y="24" on="1"/>
        <pt x="259" y="-2" on="0"/>
        <pt x="212" y="-2" on="1"/>
        <pt x="186" y="-2" on="1"/>
        <pt x="162" y="-2" on="0"/>
        <pt x="141" y="11" on="0"/>
        <pt x="142" y="24" on="1"/>
        <pt x="172" y="311" on="1"/>
        <pt x="48" y="311" on="1"/>
        <pt x="27" y="311" on="0"/>
        <pt x="27" y="340" on="1"/>
        <pt x="27" y="359" on="0"/>
        <pt x="39" y="393" on="0"/>
        <pt x="57" y="393" on="1"/>
        <pt x="181" y="393" on="1"/>
        <pt x="203" y="600" on="1"/>
        <pt x="73" y="600" on="1"/>
        <pt x="53" y="600" on="0"/>
        <pt x="53" y="627" on="1"/>
        <pt x="54" y="639" on="1"/>
        <pt x="57" y="661" on="1"/>
        <pt x="60" y="700" on="0"/>
        <pt x="84" y="700" on="1"/>
        <pt x="462" y="700" on="1"/>
      </contour>
    </TTGlyph>
    <TTGlyph name="Tcaron" xMin="53" yMin="-2" xMax="483" yMax="899">
      <component glyphName="T" x="0" y="0" flags="0x0"/>
      <component glyphName="caron" x="120" y="177" flags="0x0"/>
    </TTGlyph>
    <TTGlyph name="Thorn" xMin="36" yMin="-2" xMax="471" yMax="702">
      <contour>
        <pt x="36" y="-2" on="0"/>
        <pt x="41" y="24" on="1"/>
        <pt x="109" y="676" on="1"/>
        <pt x="111" y="702" on="0"/>
        <pt x="158" y="702" on="1"/>
        <pt x="183" y="702" on="1"/>
        <pt x="230" y="702" on="0"/>
        <pt x="228" y="676" on="1"/>
        <pt x="218" y="584" on="1"/>
        <pt x="300" y="584" on="1"/>
        <pt x="368" y="584" on="0"/>
        <pt x="471" y="513" on="0"/>
        <pt x="471" y="415" on="1"/>
        <pt x="471" y="404" on="0"/>
        <pt x="469" y="378" on="1"/>
        <pt x="460" y="293" on="0"/>
        <pt x="384" y="199" on="0"/>
        <pt x="298" y="167" on="0"/>
        <pt x="265" y="167" on="1"/>
        <pt x="174" y="167" on="1"/>
        <pt x="159" y="24" on="1"/>
        <pt x="156" y="-2" on="0"/>
        <pt x="109" y="-2" on="1"/>
        <pt x="84" y="-2" on="1"/>
      </contour>
      <contour>
        <pt x="265" y="266" on="1"/>
        <pt x="294" y="266" on="0"/>
        <pt x="344" y="315" on="0"/>
        <pt x="351" y="378" on="1"/>
        <pt x="352" y="386" on="0"/>
        <pt x="352" y="401" on="1"/>
        <pt x="352" y="447" on="0"/>
        <pt x="313" y="484" on="0"/>
        <pt x="284" y="484" on="1"/>
        <pt x="207" y="484" on="1"/>
        <pt x="184" y="266" on="1"/>
      </contour>
    </TTGlyph>
    <TTGlyph name="U" xMin="53" yMin="-7" xMax="567" yMax="702">
      <contour>
        <pt x="162" y="-7" on="0"/>
        <pt x="53" y="86" on="0"/>
        <pt x="53" y="171" on="1"/>
        <pt x="53" y="189" on="0"/>
        <pt x="54" y="199" on="1"/>
        <pt x="104" y="676" on="1"/>
        <pt x="107" y="702" on="0"/>
        <pt x="153" y="702" on="1"/>
        <pt x="179" y="702" on="1"/>
        <pt x="203" y="702" on="0"/>
        <pt x="224" y="689" on="0"/>
        <pt x="223" y="676" on="1"/>
        <pt x="173" y="202" on="1"/>
        <pt x="168" y="154" on="0"/>
        <pt x="224" y="93" on="0"/>
        <pt x="274" y="93" on="1"/>
        <pt x="324" y="93" on="0"/>
        <pt x="393" y="154" on="0"/>
        <pt x="398" y="202" on="1"/>
        <pt x="448" y="676" on="1"/>
        <pt x="450" y="702" on="0"/>
        <pt x="497" y="702" on="1"/>
        <pt x="522" y="702" on="1"/>
        <pt x="546" y="702" on="0"/>
        <pt x="567" y="689" on="0"/>
        <pt x="566" y="676" on="1"/>
        <pt x="516" y="199" on="1"/>
        <pt x="505" y="101" on="0"/>
        <pt x="373" y="-7" on="0"/>
        <pt x="264" y="-7" on="1"/>
      </contour>
    </TTGlyph>
    <TTGlyph name="Uacute" xMin="53" yMin="-7" xMax="567" yMax="910">
      <component glyphName="U" x="0" y="0" flags="0x0"/>
      <component glyphName="acute" x="248" y="177" flags="0x0"/>
    </TTGlyph>
    <TTGlyph name="Ubreve" xMin="53" yMin="-7" xMax="567" yMax="892">
      <component glyphName="U" x="0" y="0" flags="0x0"/>
      <component glyphName="breve" x="185" y="177" flags="0x0"/>
    </TTGlyph>
    <TTGlyph name="Ucircumflex" xMin="53" yMin="-7" xMax="567" yMax="895">
      <component glyphName="U" x="0" y="0" flags="0x0"/>
      <component glyphName="circumflex" x="184" y="177" flags="0x0"/>
    </TTGlyph>
    <TTGlyph name="Udieresis" xMin="53" yMin="-7" xMax="567" yMax="879">
      <component glyphName="U" x="0" y="0" flags="0x0"/>
      <component glyphName="dieresis" x="182" y="177" flags="0x0"/>
    </TTGlyph>
    <TTGlyph name="Ugrave" xMin="53" yMin="-7" xMax="567" yMax="910">
      <component glyphName="U" x="0" y="0" flags="0x0"/>
      <component glyphName="grave" x="177" y="177" flags="0x0"/>
    </TTGlyph>
    <TTGlyph name="Uhorn" xMin="53" yMin="-7" xMax="647" yMax="834">
      <contour>
        <pt x="647" y="719" on="0"/>
        <pt x="606" y="673" on="0"/>
        <pt x="565" y="667" on="1"/>
        <pt x="516" y="199" on="1"/>
        <pt x="505" y="101" on="0"/>
        <pt x="373" y="-7" on="0"/>
        <pt x="264" y="-7" on="1"/>
        <pt x="162" y="-7" on="0"/>
        <pt x="53" y="86" on="0"/>
        <pt x="53" y="171" on="1"/>
        <pt x="53" y="189" on="0"/>
        <pt x="54" y="199" on="1"/>
        <pt x="104" y="676" on="1"/>
        <pt x="107" y="702" on="0"/>
        <pt x="153" y="702" on="1"/>
        <pt x="179" y="702" on="1"/>
        <pt x="203" y="702" on="0"/>
        <pt x="224" y="689" on="0"/>
        <pt x="223" y="676" on="1"/>
        <pt x="173" y="202" on="1"/>
        <pt x="168" y="154" on="0"/>
        <pt x="224" y="93" on="0"/>
        <pt x="274" y="93" on="1"/>
        <pt x="324" y="93" on="0"/>
        <pt x="393" y="154" on="0"/>
        <pt x="398" y="202" on="1"/>
        <pt x="448" y="676" on="1"/>
        <pt x="450" y="702" on="0"/>
        <pt x="497" y="702" on="1"/>
        <pt x="536" y="702" on="1"/>
        <pt x="558" y="702" on="0"/>
        <pt x="579" y="721" on="0"/>
        <pt x="579" y="735" on="1"/>
        <pt x="579" y="746" on="0"/>
        <pt x="570" y="765" on="0"/>
        <pt x="552" y="789" on="0"/>
        <pt x="552" y="794" on="1"/>
        <pt x="552" y="805" on="0"/>
        <pt x="561" y="811" on="1"/>
        <pt x="589" y="830" on="1"/>
        <pt x="594" y="834" on="0"/>
        <pt x="603" y="834" on="1"/>
        <pt x="620" y="834" on="0"/>
        <pt x="647" y="781" on="0"/>
        <pt x="647" y="756" on="1"/>
      </contour>
    </TTGlyph>
    <TTGlyph name="Uhungarumlaut" xMin="53" yMin="-7" xMax="567" yMax="910">
      <component glyphName="U" x="0" y="0" flags="0x0"/>
      <component glyphName="hungarumlaut" x="234" y="177" flags="0x0"/>
    </TTGlyph>
    <TTGlyph name="Umacron" xMin="53" yMin="-7" xMax="567" yMax="863">
      <component glyphName="U" x="0" y="0" flags="0x0"/>
      <component glyphName="macron" x="184" y="177" flags="0x0"/>
    </TTGlyph>
    <TTGlyph name="Uogonek" xMin="53" yMin="-163" xMax="567" yMax="702">
      <contour>
        <pt x="546" y="702" on="0"/>
        <pt x="567" y="689" on="0"/>
        <pt x="566" y="676" on="1"/>
        <pt x="516" y="199" on="1"/>
        <pt x="509" y="138" on="0"/>
        <pt x="451" y="48" on="0"/>
        <pt x="401" y="22" on="1"/>
        <pt x="380" y="-16" on="0"/>
        <pt x="380" y="-54" on="1"/>
        <pt x="380" y="-79" on="0"/>
        <pt x="408" y="-97" on="0"/>
        <pt x="429" y="-97" on="1"/>
        <pt x="437" y="-97" on="0"/>
        <pt x="457" y="-92" on="0"/>
        <pt x="462" y="-92" on="1"/>
        <pt x="487" y="-92" on="0"/>
        <pt x="487" y="-118" on="1"/>
        <pt x="487" y="-138" on="0"/>
        <pt x="472" y="-147" on="1"/>
        <pt x="446" y="-163" on="0"/>
        <pt x="410" y="-163" on="1"/>
        <pt x="355" y="-163" on="0"/>
        <pt x="316" y="-104" on="0"/>
        <pt x="316" y="-72" on="1"/>
        <pt x="316" y="-38" on="0"/>
        <pt x="332" y="-1" on="1"/>
        <pt x="301" y="-7" on="0"/>
        <pt x="264" y="-7" on="1"/>
        <pt x="162" y="-7" on="0"/>
        <pt x="53" y="86" on="0"/>
        <pt x="53" y="171" on="1"/>
        <pt x="53" y="189" on="0"/>
        <pt x="54" y="199" on="1"/>
        <pt x="104" y="676" on="1"/>
        <pt x="107" y="702" on="0"/>
        <pt x="153" y="702" on="1"/>
        <pt x="179" y="702" on="1"/>
        <pt x="203" y="702" on="0"/>
        <pt x="224" y="689" on="0"/>
        <pt x="223" y="676" on="1"/>
        <pt x="173" y="202" on="1"/>
        <pt x="168" y="154" on="0"/>
        <pt x="224" y="93" on="0"/>
        <pt x="274" y="93" on="1"/>
        <pt x="324" y="93" on="0"/>
        <pt x="393" y="154" on="0"/>
        <pt x="398" y="202" on="1"/>
        <pt x="448" y="676" on="1"/>
        <pt x="450" y="702" on="0"/>
        <pt x="497" y="702" on="1"/>
        <pt x="522" y="702" on="1"/>
      </contour>
    </TTGlyph>
    <TTGlyph name="Uring" xMin="53" yMin="-7" xMax="567" yMax="917">
      <component glyphName="U" x="0" y="0" flags="0x0"/>
      <component glyphName="ring" x="181" y="177" flags="0x0"/>
    </TTGlyph>
    <TTGlyph name="Utilde" xMin="53" yMin="-7" xMax="567" yMax="871">
      <component glyphName="U" x="0" y="0" flags="0x0"/>
      <component glyphName="tilde" x="190" y="177" flags="0x0"/>
    </TTGlyph>
    <TTGlyph name="V" xMin="56" yMin="-2" xMax="540" yMax="702">
      <contour>
        <pt x="163" y="-2" on="0"/>
        <pt x="160" y="16" on="1"/>
        <pt x="59" y="668" on="1"/>
        <pt x="59" y="671" on="0"/>
        <pt x="56" y="680" on="0"/>
        <pt x="57" y="683" on="1"/>
        <pt x="59" y="702" on="0"/>
        <pt x="107" y="702" on="1"/>
        <pt x="131" y="702" on="1"/>
        <pt x="171" y="702" on="0"/>
        <pt x="174" y="680" on="1"/>
        <pt x="235" y="183" on="1"/>
        <pt x="237" y="124" on="1"/>
        <pt x="240" y="124" on="1"/>
        <pt x="256" y="184" on="1"/>
        <pt x="422" y="680" on="1"/>
        <pt x="430" y="702" on="0"/>
        <pt x="470" y="702" on="1"/>
        <pt x="493" y="702" on="1"/>
        <pt x="540" y="702" on="0"/>
        <pt x="538" y="683" on="1"/>
        <pt x="538" y="681" on="0"/>
        <pt x="534" y="667" on="1"/>
        <pt x="299" y="16" on="1"/>
        <pt x="293" y="-2" on="0"/>
        <pt x="253" y="-2" on="1"/>
        <pt x="202" y="-2" on="1"/>
      </contour>
    </TTGlyph>
    <TTGlyph name="W" xMin="59" yMin="-2" xMax="783" yMax="702">
      <contour>
        <pt x="135" y="-2" on="0"/>
        <pt x="134" y="16" on="1"/>
        <pt x="59" y="667" on="1"/>
        <pt x="59" y="671" on="1"/>
        <pt x="59" y="678" on="0"/>
        <pt x="60" y="680" on="1"/>
        <pt x="62" y="702" on="0"/>
        <pt x="110" y="702" on="1"/>
        <pt x="130" y="702" on="1"/>
        <pt x="177" y="702" on="0"/>
        <pt x="178" y="679" on="1"/>
        <pt x="204" y="246" on="1"/>
        <pt x="207" y="213" on="0"/>
        <pt x="207" y="153" on="1"/>
        <pt x="208" y="141" on="0"/>
        <pt x="208" y="118" on="1"/>
        <pt x="216" y="153" on="0"/>
        <pt x="231" y="205" on="1"/>
        <pt x="243" y="248" on="1"/>
        <pt x="366" y="683" on="1"/>
        <pt x="369" y="694" on="0"/>
        <pt x="390" y="702" on="0"/>
        <pt x="410" y="702" on="1"/>
        <pt x="439" y="702" on="1"/>
        <pt x="459" y="702" on="0"/>
        <pt x="479" y="694" on="0"/>
        <pt x="480" y="683" on="1"/>
        <pt x="518" y="247" on="1"/>
        <pt x="520" y="214" on="0"/>
        <pt x="523" y="117" on="1"/>
        <pt x="536" y="163" on="0"/>
        <pt x="547" y="211" on="1"/>
        <pt x="556" y="246" on="1"/>
        <pt x="665" y="679" on="1"/>
        <pt x="671" y="702" on="0"/>
        <pt x="718" y="702" on="1"/>
        <pt x="734" y="702" on="1"/>
        <pt x="783" y="702" on="0"/>
        <pt x="780" y="680" on="1"/>
        <pt x="780" y="672" on="0"/>
        <pt x="777" y="667" on="1"/>
        <pt x="580" y="16" on="1"/>
        <pt x="574" y="-2" on="0"/>
        <pt x="535" y="-2" on="1"/>
        <pt x="493" y="-2" on="1"/>
        <pt x="455" y="-2" on="0"/>
        <pt x="454" y="16" on="1"/>
        <pt x="413" y="408" on="1"/>
        <pt x="409" y="531" on="1"/>
        <pt x="379" y="408" on="1"/>
        <pt x="261" y="16" on="1"/>
        <pt x="255" y="-2" on="0"/>
        <pt x="216" y="-2" on="1"/>
        <pt x="175" y="-2" on="1"/>
      </contour>
    </TTGlyph>
    <TTGlyph name="Wacute" xMin="59" yMin="-2" xMax="783" yMax="910">
      <component glyphName="W" x="0" y="0" flags="0x0"/>
      <component glyphName="acute" x="333" y="177" flags="0x0"/>
    </TTGlyph>
    <TTGlyph name="Wcircumflex" xMin="59" yMin="-2" xMax="783" yMax="895">
      <component glyphName="W" x="0" y="0" flags="0x0"/>
      <component glyphName="circumflex" x="269" y="177" flags="0x0"/>
    </TTGlyph>
    <TTGlyph name="Wdieresis" xMin="59" yMin="-2" xMax="783" yMax="879">
      <component glyphName="W" x="0" y="0" flags="0x0"/>
      <component glyphName="dieresis" x="267" y="177" flags="0x0"/>
    </TTGlyph>
    <TTGlyph name="Wgrave" xMin="59" yMin="-2" xMax="783" yMax="910">
      <component glyphName="W" x="0" y="0" flags="0x0"/>
      <component glyphName="grave" x="262" y="177" flags="0x0"/>
    </TTGlyph>
    <TTGlyph name="X" xMin="-13" yMin="-2" xMax="528" yMax="702">
      <contour>
        <pt x="-13" y="-2" on="0"/>
        <pt x="-11" y="16" on="1"/>
        <pt x="-10" y="19" on="0"/>
        <pt x="-3" y="33" on="0"/>
        <pt x="-1" y="37" on="1"/>
        <pt x="196" y="367" on="1"/>
        <pt x="84" y="663" on="1"/>
        <pt x="78" y="679" on="0"/>
        <pt x="78" y="684" on="1"/>
        <pt x="80" y="702" on="0"/>
        <pt x="130" y="702" on="1"/>
        <pt x="162" y="702" on="1"/>
        <pt x="181" y="702" on="0"/>
        <pt x="202" y="695" on="0"/>
        <pt x="205" y="685" on="1"/>
        <pt x="274" y="446" on="1"/>
        <pt x="401" y="685" on="1"/>
        <pt x="407" y="695" on="0"/>
        <pt x="429" y="702" on="0"/>
        <pt x="449" y="702" on="1"/>
        <pt x="477" y="702" on="1"/>
        <pt x="528" y="702" on="0"/>
        <pt x="525" y="684" on="1"/>
        <pt x="525" y="679" on="0"/>
        <pt x="516" y="663" on="1"/>
        <pt x="336" y="364" on="1"/>
        <pt x="459" y="37" on="1"/>
        <pt x="460" y="34" on="0"/>
        <pt x="465" y="21" on="0"/>
        <pt x="464" y="16" on="1"/>
        <pt x="463" y="-2" on="0"/>
        <pt x="413" y="-2" on="1"/>
        <pt x="383" y="-2" on="1"/>
        <pt x="364" y="-2" on="0"/>
        <pt x="342" y="5" on="0"/>
        <pt x="339" y="15" on="1"/>
        <pt x="257" y="282" on="1"/>
        <pt x="113" y="15" on="1"/>
        <pt x="108" y="4" on="0"/>
        <pt x="86" y="-2" on="0"/>
        <pt x="65" y="-2" on="1"/>
        <pt x="37" y="-2" on="1"/>
      </contour>
    </TTGlyph>
    <TTGlyph name="Y" xMin="55" yMin="-2" xMax="518" yMax="702">
      <contour>
        <pt x="155" y="-2" on="0"/>
        <pt x="157" y="24" on="1"/>
        <pt x="188" y="310" on="1"/>
        <pt x="61" y="663" on="1"/>
        <pt x="55" y="679" on="0"/>
        <pt x="56" y="684" on="1"/>
        <pt x="58" y="702" on="0"/>
        <pt x="105" y="702" on="1"/>
        <pt x="136" y="702" on="1"/>
        <pt x="155" y="702" on="0"/>
        <pt x="177" y="695" on="0"/>
        <pt x="180" y="685" on="1"/>
        <pt x="255" y="403" on="1"/>
        <pt x="394" y="686" on="1"/>
        <pt x="399" y="696" on="0"/>
        <pt x="422" y="702" on="0"/>
        <pt x="442" y="702" on="1"/>
        <pt x="469" y="702" on="1"/>
        <pt x="518" y="701" on="0"/>
        <pt x="516" y="684" on="1"/>
        <pt x="515" y="675" on="0"/>
        <pt x="507" y="663" on="1"/>
        <pt x="306" y="307" on="1"/>
        <pt x="276" y="24" on="1"/>
        <pt x="273" y="-2" on="0"/>
        <pt x="227" y="-2" on="1"/>
        <pt x="202" y="-2" on="1"/>
      </contour>
    </TTGlyph>
    <TTGlyph name="Y.loclGUA" xMin="37" yMin="-8" xMax="490" yMax="702">
      <contour>
        <pt x="490" y="702" on="0"/>
        <pt x="487" y="675" on="1"/>
        <pt x="445" y="274" on="1"/>
        <pt x="434" y="171" on="0"/>
        <pt x="380" y="48" on="0"/>
        <pt x="287" y="-8" on="0"/>
        <pt x="216" y="-8" on="1"/>
        <pt x="168" y="-8" on="0"/>
        <pt x="86" y="8" on="0"/>
        <pt x="38" y="36" on="0"/>
        <pt x="37" y="51" on="1"/>
        <pt x="37" y="72" on="0"/>
        <pt x="39" y="86" on="1"/>
        <pt x="41" y="103" on="0"/>
        <pt x="51" y="119" on="0"/>
        <pt x="56" y="119" on="1"/>
        <pt x="59" y="119" on="0"/>
        <pt x="105" y="99" on="0"/>
        <pt x="164" y="83" on="0"/>
        <pt x="201" y="83" on="1"/>
        <pt x="262" y="83" on="0"/>
        <pt x="322" y="161" on="0"/>
        <pt x="331" y="252" on="1"/>
        <pt x="333" y="272" on="1"/>
        <pt x="306" y="242" on="0"/>
        <pt x="236" y="210" on="0"/>
        <pt x="198" y="210" on="1"/>
        <pt x="132" y="210" on="0"/>
        <pt x="64" y="274" on="0"/>
        <pt x="64" y="335" on="1"/>
        <pt x="64" y="343" on="0"/>
        <pt x="66" y="363" on="1"/>
        <pt x="98" y="675" on="1"/>
        <pt x="101" y="702" on="0"/>
        <pt x="149" y="702" on="1"/>
        <pt x="164" y="702" on="1"/>
        <pt x="213" y="702" on="0"/>
        <pt x="210" y="675" on="1"/>
        <pt x="179" y="377" on="1"/>
        <pt x="178" y="365" on="1"/>
        <pt x="178" y="335" on="0"/>
        <pt x="213" y="304" on="0"/>
        <pt x="246" y="304" on="1"/>
        <pt x="298" y="304" on="0"/>
        <pt x="343" y="369" on="1"/>
        <pt x="375" y="675" on="1"/>
        <pt x="378" y="702" on="0"/>
        <pt x="427" y="702" on="1"/>
        <pt x="441" y="702" on="1"/>
      </contour>
    </TTGlyph>
    <TTGlyph name="Yacute" xMin="55" yMin="-2" xMax="518" yMax="910">
      <component glyphName="Y" x="0" y="0" flags="0x0"/>
      <component glyphName="acute" x="198" y="177" flags="0x0"/>
    </TTGlyph>
    <TTGlyph name="Yacute.loclGUA" xMin="37" yMin="-8" xMax="490" yMax="910">
      <component glyphName="Y.loclGUA" x="0" y="0" flags="0x0"/>
      <component glyphName="acute" x="206" y="177" flags="0x0"/>
    </TTGlyph>
    <TTGlyph name="Ycircumflex" xMin="55" yMin="-2" xMax="518" yMax="895">
      <component glyphName="Y" x="0" y="0" flags="0x0"/>
      <component glyphName="circumflex" x="134" y="177" flags="0x0"/>
    </TTGlyph>
    <TTGlyph name="Ycircumflex.loclGUA" xMin="37" yMin="-8" xMax="490" yMax="895">
      <component glyphName="Y.loclGUA" x="0" y="0" flags="0x0"/>
      <component glyphName="circumflex" x="142" y="177" flags="0x0"/>
    </TTGlyph>
    <TTGlyph name="Ydieresis" xMin="55" yMin="-2" xMax="518" yMax="879">
      <component glyphName="Y" x="0" y="0" flags="0x0"/>
      <component glyphName="dieresis" x="132" y="177" flags="0x0"/>
    </TTGlyph>
    <TTGlyph name="Ydieresis.loclGUA" xMin="37" yMin="-8" xMax="490" yMax="879">
      <component glyphName="Y.loclGUA" x="0" y="0" flags="0x0"/>
      <component glyphName="dieresis" x="140" y="177" flags="0x0"/>
    </TTGlyph>
    <TTGlyph name="Ygrave" xMin="55" yMin="-2" xMax="518" yMax="910">
      <component glyphName="Y" x="0" y="0" flags="0x0"/>
      <component glyphName="grave" x="127" y="177" flags="0x0"/>
    </TTGlyph>
    <TTGlyph name="Ygrave.loclGUA" xMin="37" yMin="-8" xMax="490" yMax="910">
      <component glyphName="Y.loclGUA" x="0" y="0" flags="0x0"/>
      <component glyphName="grave" x="134" y="177" flags="0x0"/>
    </TTGlyph>
    <TTGlyph name="Z" xMin="6" yMin="0" xMax="509" yMax="700">
      <contour>
        <pt x="21" y="0" on="0"/>
        <pt x="6" y="50" on="0"/>
        <pt x="8" y="69" on="1"/>
        <pt x="8" y="76" on="0"/>
        <pt x="11" y="80" on="1"/>
        <pt x="357" y="600" on="1"/>
        <pt x="111" y="600" on="1"/>
        <pt x="99" y="600" on="0"/>
        <pt x="90" y="619" on="0"/>
        <pt x="92" y="641" on="1"/>
        <pt x="94" y="659" on="1"/>
        <pt x="96" y="681" on="0"/>
        <pt x="109" y="700" on="0"/>
        <pt x="121" y="700" on="1"/>
        <pt x="487" y="700" on="1"/>
        <pt x="496" y="700" on="0"/>
        <pt x="509" y="649" on="0"/>
        <pt x="507" y="630" on="1"/>
        <pt x="507" y="622" on="0"/>
        <pt x="506" y="620" on="1"/>
        <pt x="162" y="100" on="1"/>
        <pt x="429" y="100" on="1"/>
        <pt x="441" y="100" on="0"/>
        <pt x="450" y="81" on="0"/>
        <pt x="449" y="59" on="1"/>
        <pt x="447" y="41" on="1"/>
        <pt x="443" y="0" on="0"/>
        <pt x="419" y="0" on="1"/>
        <pt x="31" y="0" on="1"/>
      </contour>
    </TTGlyph>
    <TTGlyph name="Zacute" xMin="6" yMin="0" xMax="509" yMax="910">
      <component glyphName="Z" x="0" y="0" flags="0x0"/>
      <component glyphName="acute" x="212" y="177" flags="0x0"/>
    </TTGlyph>
    <TTGlyph name="Zacute.loclPLK" xMin="6" yMin="0" xMax="509" yMax="910">
      <component glyphName="Z" x="0" y="0" flags="0x0"/>
      <component glyphName="acute.loclPLK" x="212" y="177" flags="0x0"/>
    </TTGlyph>
    <TTGlyph name="Zcaron" xMin="6" yMin="0" xMax="509" yMax="899">
      <component glyphName="Z" x="0" y="0" flags="0x0"/>
      <component glyphName="caron" x="149" y="177" flags="0x0"/>
    </TTGlyph>
    <TTGlyph name="Zdotaccent" xMin="6" yMin="0" xMax="509" yMax="879">
      <component glyphName="Z" x="0" y="0" flags="0x0"/>
      <component glyphName="dotaccent" x="145" y="177" flags="0x0"/>
    </TTGlyph>
    <TTGlyph name="a" xMin="37" yMin="-8" xMax="452" yMax="530">
      <contour>
        <pt x="99" y="-8" on="0"/>
        <pt x="37" y="111" on="0"/>
        <pt x="37" y="203" on="1"/>
        <pt x="37" y="235" on="0"/>
        <pt x="40" y="266" on="1"/>
        <pt x="53" y="390" on="0"/>
        <pt x="157" y="530" on="0"/>
        <pt x="232" y="530" on="1"/>
        <pt x="293" y="530" on="0"/>
        <pt x="336" y="477" on="1"/>
        <pt x="346" y="505" on="0"/>
        <pt x="365" y="525" on="0"/>
        <pt x="390" y="525" on="1"/>
        <pt x="399" y="525" on="1"/>
        <pt x="438" y="525" on="0"/>
        <pt x="438" y="502" on="1"/>
        <pt x="437" y="489" on="0"/>
        <pt x="433" y="449" on="0"/>
        <pt x="431" y="431" on="1"/>
        <pt x="426" y="390" on="1"/>
        <pt x="398" y="123" on="1"/>
        <pt x="397" y="102" on="0"/>
        <pt x="407" y="86" on="0"/>
        <pt x="418" y="86" on="1"/>
        <pt x="424" y="86" on="0"/>
        <pt x="436" y="89" on="0"/>
        <pt x="440" y="89" on="1"/>
        <pt x="446" y="89" on="0"/>
        <pt x="452" y="74" on="0"/>
        <pt x="452" y="64" on="1"/>
        <pt x="452" y="31" on="0"/>
        <pt x="410" y="-7" on="0"/>
        <pt x="373" y="-7" on="1"/>
        <pt x="339" y="-7" on="0"/>
        <pt x="291" y="31" on="0"/>
        <pt x="287" y="76" on="1"/>
        <pt x="244" y="-8" on="0"/>
        <pt x="166" y="-8" on="1"/>
      </contour>
      <contour>
        <pt x="232" y="86" on="0"/>
        <pt x="278" y="135" on="0"/>
        <pt x="293" y="184" on="1"/>
        <pt x="310" y="349" on="1"/>
        <pt x="315" y="386" on="0"/>
        <pt x="319" y="407" on="1"/>
        <pt x="306" y="421" on="0"/>
        <pt x="277" y="438" on="0"/>
        <pt x="256" y="438" on="1"/>
        <pt x="212" y="438" on="0"/>
        <pt x="163" y="353" on="0"/>
        <pt x="154" y="267" on="1"/>
        <pt x="150" y="238" on="0"/>
        <pt x="150" y="201" on="1"/>
        <pt x="150" y="86" on="0"/>
        <pt x="206" y="86" on="1"/>
      </contour>
    </TTGlyph>
    <TTGlyph name="aacute" xMin="37" yMin="-8" xMax="452" yMax="733">
      <component glyphName="a" x="0" y="0" flags="0x0"/>
      <component glyphName="acute" x="173" y="0" flags="0x0"/>
    </TTGlyph>
    <TTGlyph name="abreve" xMin="37" yMin="-8" xMax="452" yMax="715">
      <component glyphName="a" x="0" y="0" flags="0x0"/>
      <component glyphName="breve" x="109" y="0" flags="0x0"/>
    </TTGlyph>
    <TTGlyph name="acircumflex" xMin="37" yMin="-8" xMax="452" yMax="718">
      <component glyphName="a" x="0" y="0" flags="0x0"/>
      <component glyphName="circumflex" x="109" y="0" flags="0x0"/>
    </TTGlyph>
    <TTGlyph name="acute" xMin="44" yMin="581" xMax="210" yMax="733">
      <contour>
        <pt x="55" y="581" on="0"/>
        <pt x="44" y="586" on="0"/>
        <pt x="44" y="593" on="1"/>
        <pt x="44" y="599" on="0"/>
        <pt x="59" y="630" on="0"/>
        <pt x="72" y="656" on="1"/>
        <pt x="78" y="670" on="0"/>
        <pt x="96" y="706" on="1"/>
        <pt x="110" y="733" on="0"/>
        <pt x="162" y="733" on="1"/>
        <pt x="187" y="733" on="0"/>
        <pt x="210" y="727" on="0"/>
        <pt x="210" y="719" on="1"/>
        <pt x="210" y="713" on="0"/>
        <pt x="195" y="691" on="0"/>
        <pt x="177" y="668" on="1"/>
        <pt x="127" y="602" on="1"/>
        <pt x="120" y="591" on="0"/>
        <pt x="94" y="581" on="0"/>
        <pt x="69" y="581" on="1"/>
      </contour>
    </TTGlyph>
    <TTGlyph name="acute.loclPLK" xMin="49" yMin="581" xMax="191" yMax="733">
      <contour>
        <pt x="61" y="581" on="0"/>
        <pt x="49" y="586" on="0"/>
        <pt x="49" y="593" on="1"/>
        <pt x="49" y="600" on="0"/>
        <pt x="67" y="669" on="1"/>
        <pt x="77" y="706" on="1"/>
        <pt x="84" y="733" on="0"/>
        <pt x="144" y="733" on="1"/>
        <pt x="191" y="733" on="0"/>
        <pt x="191" y="719" on="1"/>
        <pt x="191" y="710" on="0"/>
        <pt x="152" y="639" on="1"/>
        <pt x="132" y="602" on="1"/>
        <pt x="126" y="592" on="0"/>
        <pt x="101" y="581" on="0"/>
        <pt x="77" y="581" on="1"/>
      </contour>
    </TTGlyph>
    <TTGlyph name="acutecomb" xMin="-9" yMin="581" xMax="157" yMax="733">
      <contour>
        <pt x="2" y="581" on="0"/>
        <pt x="-9" y="586" on="0"/>
        <pt x="-9" y="593" on="1"/>
        <pt x="-9" y="599" on="0"/>
        <pt x="6" y="630" on="0"/>
        <pt x="19" y="656" on="1"/>
        <pt x="25" y="670" on="0"/>
        <pt x="43" y="706" on="1"/>
        <pt x="57" y="733" on="0"/>
        <pt x="109" y="733" on="1"/>
        <pt x="134" y="733" on="0"/>
        <pt x="157" y="727" on="0"/>
        <pt x="157" y="719" on="1"/>
        <pt x="157" y="713" on="0"/>
        <pt x="142" y="691" on="0"/>
        <pt x="124" y="668" on="1"/>
        <pt x="74" y="602" on="1"/>
        <pt x="67" y="591" on="0"/>
        <pt x="41" y="581" on="0"/>
        <pt x="16" y="581" on="1"/>
      </contour>
    </TTGlyph>
    <TTGlyph name="adieresis" xMin="37" yMin="-8" xMax="452" yMax="702">
      <component glyphName="a" x="0" y="0" flags="0x0"/>
      <component glyphName="dieresis" x="107" y="0" flags="0x0"/>
    </TTGlyph>
    <TTGlyph name="ae" xMin="13" yMin="-7" xMax="644" yMax="530">
      <contour>
        <pt x="89" y="-7" on="0"/>
        <pt x="13" y="66" on="0"/>
        <pt x="13" y="129" on="1"/>
        <pt x="13" y="143" on="0"/>
        <pt x="14" y="150" on="1"/>
        <pt x="23" y="237" on="0"/>
        <pt x="148" y="328" on="0"/>
        <pt x="270" y="329" on="1"/>
        <pt x="275" y="356" on="0"/>
        <pt x="290" y="393" on="1"/>
        <pt x="280" y="438" on="0"/>
        <pt x="222" y="438" on="1"/>
        <pt x="176" y="438" on="0"/>
        <pt x="126" y="413" on="1"/>
        <pt x="108" y="406" on="0"/>
        <pt x="105" y="406" on="1"/>
        <pt x="94" y="406" on="0"/>
        <pt x="70" y="452" on="0"/>
        <pt x="70" y="466" on="1"/>
        <pt x="70" y="481" on="0"/>
        <pt x="118" y="511" on="0"/>
        <pt x="196" y="530" on="0"/>
        <pt x="238" y="530" on="1"/>
        <pt x="278" y="530" on="0"/>
        <pt x="342" y="510" on="0"/>
        <pt x="362" y="492" on="1"/>
        <pt x="415" y="530" on="0"/>
        <pt x="487" y="530" on="1"/>
        <pt x="565" y="530" on="0"/>
        <pt x="644" y="429" on="0"/>
        <pt x="644" y="332" on="1"/>
        <pt x="644" y="315" on="0"/>
        <pt x="640" y="271" on="1"/>
        <pt x="639" y="260" on="0"/>
        <pt x="604" y="222" on="0"/>
        <pt x="594" y="222" on="1"/>
        <pt x="372" y="222" on="1"/>
        <pt x="371" y="213" on="0"/>
        <pt x="371" y="196" on="1"/>
        <pt x="371" y="138" on="0"/>
        <pt x="414" y="85" on="0"/>
        <pt x="458" y="85" on="1"/>
        <pt x="488" y="85" on="0"/>
        <pt x="532" y="101" on="0"/>
        <pt x="568" y="121" on="0"/>
        <pt x="571" y="121" on="1"/>
        <pt x="582" y="121" on="0"/>
        <pt x="606" y="76" on="0"/>
        <pt x="606" y="61" on="1"/>
        <pt x="606" y="45" on="0"/>
        <pt x="558" y="14" on="0"/>
        <pt x="482" y="-7" on="0"/>
        <pt x="445" y="-7" on="1"/>
        <pt x="342" y="-7" on="0"/>
        <pt x="295" y="52" on="1"/>
        <pt x="269" y="25" on="0"/>
        <pt x="192" y="-7" on="0"/>
        <pt x="148" y="-7" on="1"/>
      </contour>
      <contour>
        <pt x="532" y="305" on="1"/>
        <pt x="534" y="335" on="0"/>
        <pt x="534" y="347" on="1"/>
        <pt x="534" y="438" on="0"/>
        <pt x="477" y="438" on="1"/>
        <pt x="439" y="438" on="0"/>
        <pt x="391" y="375" on="0"/>
        <pt x="380" y="305" on="1"/>
      </contour>
      <contour>
        <pt x="200" y="89" on="0"/>
        <pt x="245" y="108" on="0"/>
        <pt x="262" y="127" on="1"/>
        <pt x="255" y="156" on="0"/>
        <pt x="255" y="197" on="1"/>
        <pt x="255" y="212" on="0"/>
        <pt x="257" y="246" on="1"/>
        <pt x="197" y="244" on="0"/>
        <pt x="125" y="196" on="0"/>
        <pt x="125" y="143" on="1"/>
        <pt x="125" y="117" on="0"/>
        <pt x="151" y="89" on="0"/>
        <pt x="176" y="89" on="1"/>
      </contour>
    </TTGlyph>
    <TTGlyph name="aeacute" xMin="13" yMin="-7" xMax="644" yMax="733">
      <component glyphName="ae" x="0" y="0" flags="0x0"/>
      <component glyphName="acute" x="272" y="0" flags="0x0"/>
    </TTGlyph>
    <TTGlyph name="agrave" xMin="37" yMin="-8" xMax="452" yMax="733">
      <component glyphName="a" x="0" y="0" flags="0x0"/>
      <component glyphName="grave" x="101" y="0" flags="0x0"/>
    </TTGlyph>
    <TTGlyph name="amacron" xMin="37" yMin="-8" xMax="452" yMax="686">
      <component glyphName="a" x="0" y="0" flags="0x0"/>
      <component glyphName="macron" x="109" y="0" flags="0x0"/>
    </TTGlyph>
    <TTGlyph name="ampersand" xMin="12" yMin="-7" xMax="508" yMax="707">
      <contour>
        <pt x="508" y="416" on="0"/>
        <pt x="508" y="389" on="1"/>
        <pt x="507" y="377" on="1"/>
        <pt x="506" y="363" on="1"/>
        <pt x="502" y="324" on="0"/>
        <pt x="478" y="324" on="1"/>
        <pt x="437" y="324" on="1"/>
        <pt x="417" y="145" on="1"/>
        <pt x="416" y="137" on="0"/>
        <pt x="416" y="124" on="1"/>
        <pt x="416" y="102" on="0"/>
        <pt x="428" y="85" on="0"/>
        <pt x="440" y="85" on="1"/>
        <pt x="448" y="85" on="0"/>
        <pt x="461" y="89" on="0"/>
        <pt x="464" y="89" on="1"/>
        <pt x="473" y="89" on="0"/>
        <pt x="482" y="50" on="0"/>
        <pt x="482" y="34" on="1"/>
        <pt x="482" y="-7" on="0"/>
        <pt x="403" y="-7" on="1"/>
        <pt x="374" y="-7" on="0"/>
        <pt x="333" y="12" on="0"/>
        <pt x="320" y="35" on="1"/>
        <pt x="282" y="15" on="0"/>
        <pt x="213" y="-7" on="0"/>
        <pt x="174" y="-7" on="1"/>
        <pt x="100" y="-7" on="0"/>
        <pt x="12" y="80" on="0"/>
        <pt x="12" y="166" on="1"/>
        <pt x="12" y="177" on="0"/>
        <pt x="14" y="203" on="1"/>
        <pt x="22" y="275" on="0"/>
        <pt x="79" y="369" on="0"/>
        <pt x="127" y="385" on="1"/>
        <pt x="127" y="389" on="1"/>
        <pt x="98" y="404" on="0"/>
        <pt x="66" y="466" on="0"/>
        <pt x="66" y="510" on="1"/>
        <pt x="66" y="527" on="0"/>
        <pt x="67" y="536" on="1"/>
        <pt x="76" y="617" on="0"/>
        <pt x="175" y="707" on="0"/>
        <pt x="250" y="707" on="1"/>
        <pt x="281" y="707" on="0"/>
        <pt x="331" y="691" on="0"/>
        <pt x="331" y="673" on="1"/>
        <pt x="331" y="655" on="0"/>
        <pt x="308" y="607" on="0"/>
        <pt x="298" y="607" on="1"/>
        <pt x="294" y="607" on="0"/>
        <pt x="271" y="615" on="0"/>
        <pt x="258" y="615" on="1"/>
        <pt x="223" y="615" on="0"/>
        <pt x="186" y="559" on="0"/>
        <pt x="181" y="520" on="1"/>
        <pt x="177" y="479" on="0"/>
        <pt x="216" y="416" on="0"/>
        <pt x="254" y="416" on="1"/>
        <pt x="331" y="416" on="1"/>
        <pt x="353" y="516" on="1"/>
        <pt x="358" y="543" on="0"/>
        <pt x="398" y="543" on="1"/>
        <pt x="421" y="543" on="1"/>
        <pt x="441" y="543" on="0"/>
        <pt x="458" y="530" on="0"/>
        <pt x="456" y="516" on="1"/>
        <pt x="446" y="416" on="1"/>
        <pt x="488" y="416" on="1"/>
      </contour>
      <contour>
        <pt x="128" y="185" on="0"/>
        <pt x="128" y="176" on="1"/>
        <pt x="128" y="85" on="0"/>
        <pt x="199" y="85" on="1"/>
        <pt x="221" y="85" on="0"/>
        <pt x="268" y="99" on="0"/>
        <pt x="301" y="114" on="1"/>
        <pt x="300" y="123" on="1"/>
        <pt x="301" y="131" on="1"/>
        <pt x="322" y="324" on="1"/>
        <pt x="239" y="324" on="1"/>
        <pt x="188" y="324" on="0"/>
        <pt x="137" y="269" on="0"/>
        <pt x="130" y="205" on="1"/>
      </contour>
    </TTGlyph>
    <TTGlyph name="aogonek" xMin="37" yMin="-187" xMax="492" yMax="530">
      <contour>
        <pt x="492" y="-116" on="0"/>
        <pt x="492" y="-142" on="1"/>
        <pt x="492" y="-162" on="0"/>
        <pt x="477" y="-171" on="1"/>
        <pt x="451" y="-187" on="0"/>
        <pt x="415" y="-187" on="1"/>
        <pt x="360" y="-187" on="0"/>
        <pt x="321" y="-128" on="0"/>
        <pt x="321" y="-96" on="1"/>
        <pt x="321" y="-77" on="0"/>
        <pt x="334" y="-28" on="0"/>
        <pt x="348" y="-4" on="1"/>
        <pt x="294" y="9" on="0"/>
        <pt x="287" y="76" on="1"/>
        <pt x="244" y="-8" on="0"/>
        <pt x="166" y="-8" on="1"/>
        <pt x="99" y="-8" on="0"/>
        <pt x="37" y="111" on="0"/>
        <pt x="37" y="203" on="1"/>
        <pt x="37" y="235" on="0"/>
        <pt x="40" y="266" on="1"/>
        <pt x="53" y="390" on="0"/>
        <pt x="157" y="530" on="0"/>
        <pt x="232" y="530" on="1"/>
        <pt x="293" y="530" on="0"/>
        <pt x="336" y="477" on="1"/>
        <pt x="346" y="505" on="0"/>
        <pt x="365" y="525" on="0"/>
        <pt x="390" y="525" on="1"/>
        <pt x="399" y="525" on="1"/>
        <pt x="438" y="525" on="0"/>
        <pt x="438" y="502" on="1"/>
        <pt x="437" y="489" on="0"/>
        <pt x="433" y="449" on="0"/>
        <pt x="431" y="431" on="1"/>
        <pt x="426" y="390" on="1"/>
        <pt x="398" y="123" on="1"/>
        <pt x="397" y="102" on="0"/>
        <pt x="407" y="86" on="0"/>
        <pt x="418" y="86" on="1"/>
        <pt x="424" y="86" on="0"/>
        <pt x="436" y="89" on="0"/>
        <pt x="440" y="89" on="1"/>
        <pt x="446" y="89" on="0"/>
        <pt x="452" y="74" on="0"/>
        <pt x="452" y="64" on="1"/>
        <pt x="452" y="12" on="0"/>
        <pt x="406" y="-2" on="1"/>
        <pt x="385" y="-41" on="0"/>
        <pt x="385" y="-78" on="1"/>
        <pt x="385" y="-103" on="0"/>
        <pt x="413" y="-121" on="0"/>
        <pt x="434" y="-121" on="1"/>
        <pt x="442" y="-121" on="0"/>
        <pt x="462" y="-116" on="0"/>
        <pt x="467" y="-116" on="1"/>
      </contour>
      <contour>
        <pt x="315" y="386" on="0"/>
        <pt x="319" y="407" on="1"/>
        <pt x="306" y="421" on="0"/>
        <pt x="277" y="438" on="0"/>
        <pt x="256" y="438" on="1"/>
        <pt x="212" y="438" on="0"/>
        <pt x="163" y="353" on="0"/>
        <pt x="154" y="267" on="1"/>
        <pt x="150" y="238" on="0"/>
        <pt x="150" y="201" on="1"/>
        <pt x="150" y="86" on="0"/>
        <pt x="206" y="86" on="1"/>
        <pt x="232" y="86" on="0"/>
        <pt x="278" y="135" on="0"/>
        <pt x="293" y="184" on="1"/>
        <pt x="310" y="349" on="1"/>
      </contour>
    </TTGlyph>
    <TTGlyph name="approxequal" xMin="38" yMin="91" xMax="403" yMax="375">
      <contour>
        <pt x="215" y="289" on="0"/>
        <pt x="166" y="305" on="0"/>
        <pt x="148" y="305" on="1"/>
        <pt x="127" y="305" on="0"/>
        <pt x="109" y="282" on="1"/>
        <pt x="108" y="281" on="0"/>
        <pt x="97" y="270" on="0"/>
        <pt x="89" y="265" on="0"/>
        <pt x="85" y="265" on="1"/>
        <pt x="78" y="265" on="0"/>
        <pt x="73" y="269" on="1"/>
        <pt x="64" y="274" on="1"/>
        <pt x="53" y="278" on="0"/>
        <pt x="53" y="289" on="1"/>
        <pt x="53" y="295" on="0"/>
        <pt x="57" y="304" on="1"/>
        <pt x="86" y="373" on="0"/>
        <pt x="152" y="373" on="1"/>
        <pt x="178" y="373" on="0"/>
        <pt x="236" y="353" on="1"/>
        <pt x="255" y="346" on="0"/>
        <pt x="295" y="335" on="0"/>
        <pt x="309" y="335" on="1"/>
        <pt x="329" y="335" on="0"/>
        <pt x="348" y="358" on="1"/>
        <pt x="355" y="367" on="0"/>
        <pt x="365" y="375" on="0"/>
        <pt x="371" y="375" on="1"/>
        <pt x="377" y="375" on="0"/>
        <pt x="384" y="371" on="1"/>
        <pt x="392" y="367" on="1"/>
        <pt x="403" y="362" on="0"/>
        <pt x="403" y="351" on="1"/>
        <pt x="403" y="345" on="0"/>
        <pt x="399" y="337" on="1"/>
        <pt x="372" y="268" on="0"/>
        <pt x="305" y="268" on="1"/>
        <pt x="288" y="268" on="0"/>
        <pt x="250" y="278" on="0"/>
        <pt x="220" y="288" on="1"/>
      </contour>
      <contour>
        <pt x="197" y="117" on="0"/>
        <pt x="149" y="132" on="0"/>
        <pt x="133" y="132" on="1"/>
        <pt x="112" y="132" on="0"/>
        <pt x="94" y="108" on="1"/>
        <pt x="93" y="107" on="0"/>
        <pt x="82" y="96" on="0"/>
        <pt x="74" y="91" on="0"/>
        <pt x="70" y="91" on="1"/>
        <pt x="63" y="91" on="0"/>
        <pt x="58" y="95" on="1"/>
        <pt x="49" y="100" on="1"/>
        <pt x="40" y="105" on="0"/>
        <pt x="38" y="115" on="1"/>
        <pt x="38" y="121" on="0"/>
        <pt x="42" y="130" on="1"/>
        <pt x="71" y="199" on="0"/>
        <pt x="137" y="199" on="1"/>
        <pt x="163" y="199" on="0"/>
        <pt x="221" y="179" on="1"/>
        <pt x="241" y="172" on="0"/>
        <pt x="280" y="161" on="0"/>
        <pt x="294" y="161" on="1"/>
        <pt x="314" y="161" on="0"/>
        <pt x="333" y="184" on="1"/>
        <pt x="340" y="193" on="0"/>
        <pt x="350" y="201" on="0"/>
        <pt x="356" y="201" on="1"/>
        <pt x="362" y="201" on="0"/>
        <pt x="369" y="197" on="1"/>
        <pt x="377" y="193" on="1"/>
        <pt x="387" y="188" on="0"/>
        <pt x="389" y="178" on="1"/>
        <pt x="389" y="171" on="0"/>
        <pt x="385" y="163" on="1"/>
        <pt x="357" y="94" on="0"/>
        <pt x="290" y="94" on="1"/>
        <pt x="264" y="94" on="0"/>
        <pt x="206" y="114" on="1"/>
      </contour>
    </TTGlyph>
    <TTGlyph name="aring" xMin="37" yMin="-8" xMax="452" yMax="740">
      <component glyphName="a" x="0" y="0" flags="0x0"/>
      <component glyphName="ring" x="106" y="0" flags="0x0"/>
    </TTGlyph>
    <TTGlyph name="aringacute" xMin="37" yMin="-8" xMax="452" yMax="923">
      <component glyphName="a" x="0" y="0" flags="0x0"/>
      <component glyphName="ring" x="106" y="0" flags="0x0"/>
      <component glyphName="acute" x="215" y="190" flags="0x0"/>
    </TTGlyph>
    <TTGlyph name="arrowdown" xMin="17" yMin="-3" xMax="520" yMax="708">
      <contour>
        <pt x="506" y="339" on="0"/>
        <pt x="510" y="339" on="1"/>
        <pt x="515" y="339" on="0"/>
        <pt x="520" y="331" on="0"/>
        <pt x="519" y="325" on="1"/>
        <pt x="512" y="259" on="1"/>
        <pt x="510" y="244" on="0"/>
        <pt x="502" y="227" on="0"/>
        <pt x="491" y="217" on="1"/>
        <pt x="256" y="4" on="1"/>
        <pt x="248" y="-3" on="0"/>
        <pt x="237" y="-3" on="1"/>
        <pt x="231" y="-3" on="0"/>
        <pt x="224" y="0" on="0"/>
        <pt x="220" y="4" on="1"/>
        <pt x="31" y="217" on="1"/>
        <pt x="23" y="225" on="0"/>
        <pt x="17" y="236" on="0"/>
        <pt x="17" y="245" on="1"/>
        <pt x="17" y="253" on="0"/>
        <pt x="18" y="258" on="1"/>
        <pt x="25" y="322" on="1"/>
        <pt x="26" y="338" on="0"/>
        <pt x="35" y="338" on="1"/>
        <pt x="40" y="338" on="0"/>
        <pt x="47" y="331" on="1"/>
        <pt x="207" y="148" on="1"/>
        <pt x="263" y="682" on="1"/>
        <pt x="266" y="708" on="0"/>
        <pt x="302" y="708" on="1"/>
        <pt x="316" y="708" on="1"/>
        <pt x="352" y="708" on="0"/>
        <pt x="349" y="682" on="1"/>
        <pt x="292" y="145" on="1"/>
        <pt x="499" y="334" on="1"/>
      </contour>
    </TTGlyph>
    <TTGlyph name="arrowleft" xMin="1" yMin="0" xMax="599" yMax="529">
      <contour>
        <pt x="599" y="303" on="0"/>
        <pt x="596" y="267" on="1"/>
        <pt x="594" y="253" on="1"/>
        <pt x="591" y="217" on="0"/>
        <pt x="565" y="217" on="1"/>
        <pt x="138" y="217" on="1"/>
        <pt x="272" y="29" on="1"/>
        <pt x="279" y="19" on="0"/>
        <pt x="279" y="13" on="1"/>
        <pt x="279" y="0" on="0"/>
        <pt x="259" y="0" on="1"/>
        <pt x="206" y="0" on="1"/>
        <pt x="192" y="0" on="0"/>
        <pt x="175" y="8" on="0"/>
        <pt x="168" y="18" on="1"/>
        <pt x="6" y="246" on="1"/>
        <pt x="1" y="254" on="0"/>
        <pt x="2" y="265" on="1"/>
        <pt x="2" y="275" on="0"/>
        <pt x="10" y="282" on="1"/>
        <pt x="220" y="511" on="1"/>
        <pt x="237" y="529" on="0"/>
        <pt x="262" y="529" on="1"/>
        <pt x="320" y="529" on="1"/>
        <pt x="339" y="529" on="0"/>
        <pt x="339" y="519" on="1"/>
        <pt x="339" y="511" on="0"/>
        <pt x="329" y="501" on="1"/>
        <pt x="148" y="303" on="1"/>
        <pt x="573" y="303" on="1"/>
      </contour>
    </TTGlyph>
    <TTGlyph name="arrowright" xMin="1" yMin="0" xMax="597" yMax="529">
      <contour>
        <pt x="595" y="278" on="0"/>
        <pt x="597" y="271" on="0"/>
        <pt x="596" y="263" on="1"/>
        <pt x="594" y="253" on="0"/>
        <pt x="587" y="247" on="1"/>
        <pt x="377" y="18" on="1"/>
        <pt x="362" y="0" on="0"/>
        <pt x="336" y="0" on="1"/>
        <pt x="278" y="0" on="1"/>
        <pt x="259" y="0" on="0"/>
        <pt x="259" y="9" on="1"/>
        <pt x="259" y="17" on="0"/>
        <pt x="269" y="28" on="1"/>
        <pt x="449" y="226" on="1"/>
        <pt x="24" y="226" on="1"/>
        <pt x="1" y="226" on="0"/>
        <pt x="1" y="252" on="1"/>
        <pt x="2" y="262" on="1"/>
        <pt x="3" y="276" on="1"/>
        <pt x="7" y="312" on="0"/>
        <pt x="33" y="312" on="1"/>
        <pt x="459" y="312" on="1"/>
        <pt x="325" y="500" on="1"/>
        <pt x="319" y="509" on="0"/>
        <pt x="319" y="516" on="1"/>
        <pt x="319" y="529" on="0"/>
        <pt x="339" y="529" on="1"/>
        <pt x="391" y="529" on="1"/>
        <pt x="405" y="529" on="0"/>
        <pt x="422" y="521" on="0"/>
        <pt x="429" y="511" on="1"/>
        <pt x="591" y="283" on="1"/>
      </contour>
    </TTGlyph>
    <TTGlyph name="arrowup" xMin="16" yMin="-3" xMax="520" yMax="708">
      <contour>
        <pt x="515" y="478" on="0"/>
        <pt x="520" y="463" on="0"/>
        <pt x="519" y="447" on="1"/>
        <pt x="511" y="383" on="1"/>
        <pt x="510" y="367" on="0"/>
        <pt x="501" y="367" on="1"/>
        <pt x="496" y="367" on="0"/>
        <pt x="489" y="374" on="1"/>
        <pt x="330" y="557" on="1"/>
        <pt x="273" y="23" on="1"/>
        <pt x="271" y="-3" on="0"/>
        <pt x="234" y="-3" on="1"/>
        <pt x="221" y="-3" on="1"/>
        <pt x="184" y="-3" on="0"/>
        <pt x="187" y="23" on="1"/>
        <pt x="244" y="560" on="1"/>
        <pt x="37" y="372" on="1"/>
        <pt x="31" y="366" on="0"/>
        <pt x="26" y="366" on="1"/>
        <pt x="21" y="366" on="0"/>
        <pt x="16" y="374" on="0"/>
        <pt x="17" y="381" on="1"/>
        <pt x="25" y="447" on="1"/>
        <pt x="26" y="461" on="0"/>
        <pt x="34" y="477" on="0"/>
        <pt x="45" y="488" on="1"/>
        <pt x="280" y="701" on="1"/>
        <pt x="288" y="708" on="0"/>
        <pt x="299" y="708" on="1"/>
        <pt x="305" y="708" on="0"/>
        <pt x="312" y="705" on="0"/>
        <pt x="316" y="701" on="1"/>
        <pt x="505" y="488" on="1"/>
      </contour>
    </TTGlyph>
    <TTGlyph name="asciicircum" xMin="35" yMin="319" xMax="340" yMax="685">
      <contour>
        <pt x="340" y="342" on="0"/>
        <pt x="339" y="338" on="1"/>
        <pt x="337" y="319" on="0"/>
        <pt x="312" y="319" on="1"/>
        <pt x="297" y="319" on="1"/>
        <pt x="264" y="319" on="0"/>
        <pt x="260" y="345" on="1"/>
        <pt x="217" y="590" on="1"/>
        <pt x="118" y="345" on="1"/>
        <pt x="106" y="319" on="0"/>
        <pt x="77" y="319" on="1"/>
        <pt x="60" y="319" on="1"/>
        <pt x="35" y="319" on="0"/>
        <pt x="37" y="338" on="1"/>
        <pt x="40" y="349" on="0"/>
        <pt x="41" y="352" on="1"/>
        <pt x="177" y="661" on="1"/>
        <pt x="188" y="685" on="0"/>
        <pt x="212" y="685" on="1"/>
        <pt x="237" y="685" on="1"/>
        <pt x="250" y="685" on="0"/>
        <pt x="264" y="674" on="0"/>
        <pt x="267" y="661" on="1"/>
        <pt x="338" y="352" on="1"/>
      </contour>
    </TTGlyph>
    <TTGlyph name="asciitilde" xMin="44" yMin="220" xMax="395" yMax="330">
      <contour>
        <pt x="270" y="222" on="0"/>
        <pt x="212" y="242" on="1"/>
        <pt x="192" y="249" on="0"/>
        <pt x="153" y="260" on="0"/>
        <pt x="139" y="260" on="1"/>
        <pt x="119" y="260" on="0"/>
        <pt x="100" y="236" on="1"/>
        <pt x="95" y="229" on="0"/>
        <pt x="83" y="220" on="0"/>
        <pt x="77" y="220" on="1"/>
        <pt x="71" y="220" on="0"/>
        <pt x="64" y="224" on="1"/>
        <pt x="56" y="228" on="1"/>
        <pt x="46" y="233" on="0"/>
        <pt x="44" y="243" on="1"/>
        <pt x="44" y="250" on="0"/>
        <pt x="48" y="258" on="1"/>
        <pt x="77" y="327" on="0"/>
        <pt x="143" y="327" on="1"/>
        <pt x="169" y="327" on="0"/>
        <pt x="227" y="307" on="1"/>
        <pt x="236" y="304" on="0"/>
        <pt x="284" y="289" on="0"/>
        <pt x="300" y="289" on="1"/>
        <pt x="321" y="289" on="0"/>
        <pt x="339" y="313" on="1"/>
        <pt x="341" y="315" on="0"/>
        <pt x="351" y="325" on="0"/>
        <pt x="359" y="330" on="0"/>
        <pt x="363" y="330" on="1"/>
        <pt x="370" y="330" on="0"/>
        <pt x="375" y="326" on="1"/>
        <pt x="383" y="321" on="1"/>
        <pt x="393" y="316" on="0"/>
        <pt x="395" y="306" on="1"/>
        <pt x="395" y="299" on="0"/>
        <pt x="391" y="291" on="1"/>
        <pt x="362" y="222" on="0"/>
        <pt x="296" y="222" on="1"/>
      </contour>
    </TTGlyph>
    <TTGlyph name="asterisk" xMin="54" yMin="426" xMax="311" yMax="709">
      <contour>
        <pt x="86" y="426" on="0"/>
        <pt x="69" y="440" on="0"/>
        <pt x="70" y="448" on="1"/>
        <pt x="70" y="454" on="0"/>
        <pt x="78" y="465" on="1"/>
        <pt x="140" y="551" on="1"/>
        <pt x="70" y="579" on="1"/>
        <pt x="62" y="583" on="0"/>
        <pt x="54" y="590" on="0"/>
        <pt x="54" y="596" on="1"/>
        <pt x="54" y="608" on="0"/>
        <pt x="69" y="627" on="0"/>
        <pt x="80" y="627" on="1"/>
        <pt x="88" y="627" on="0"/>
        <pt x="93" y="624" on="1"/>
        <pt x="159" y="599" on="1"/>
        <pt x="168" y="684" on="1"/>
        <pt x="169" y="709" on="0"/>
        <pt x="195" y="709" on="1"/>
        <pt x="208" y="709" on="0"/>
        <pt x="218" y="697" on="0"/>
        <pt x="216" y="684" on="1"/>
        <pt x="207" y="599" on="1"/>
        <pt x="277" y="624" on="1"/>
        <pt x="284" y="627" on="0"/>
        <pt x="292" y="627" on="1"/>
        <pt x="300" y="627" on="0"/>
        <pt x="311" y="613" on="0"/>
        <pt x="311" y="603" on="1"/>
        <pt x="311" y="594" on="0"/>
        <pt x="303" y="584" on="0"/>
        <pt x="292" y="579" on="1"/>
        <pt x="214" y="551" on="1"/>
        <pt x="259" y="465" on="1"/>
        <pt x="264" y="455" on="0"/>
        <pt x="264" y="451" on="1"/>
        <pt x="264" y="442" on="0"/>
        <pt x="243" y="426" on="0"/>
        <pt x="234" y="426" on="1"/>
        <pt x="223" y="426" on="0"/>
        <pt x="217" y="438" on="1"/>
        <pt x="174" y="518" on="1"/>
        <pt x="115" y="438" on="1"/>
        <pt x="107" y="426" on="0"/>
        <pt x="95" y="426" on="1"/>
      </contour>
    </TTGlyph>
    <TTGlyph name="at" xMin="55" yMin="-125" xMax="727" yMax="706">
      <contour>
        <pt x="527" y="706" on="0"/>
        <pt x="656" y="625" on="0"/>
        <pt x="727" y="477" on="0"/>
        <pt x="727" y="378" on="1"/>
        <pt x="727" y="290" on="0"/>
        <pt x="675" y="142" on="0"/>
        <pt x="583" y="56" on="0"/>
        <pt x="525" y="56" on="1"/>
        <pt x="488" y="56" on="0"/>
        <pt x="441" y="92" on="0"/>
        <pt x="434" y="125" on="1"/>
        <pt x="417" y="92" on="0"/>
        <pt x="363" y="56" on="0"/>
        <pt x="330" y="56" on="1"/>
        <pt x="282" y="56" on="0"/>
        <pt x="214" y="144" on="0"/>
        <pt x="214" y="237" on="1"/>
        <pt x="214" y="316" on="0"/>
        <pt x="256" y="438" on="0"/>
        <pt x="332" y="506" on="0"/>
        <pt x="382" y="506" on="1"/>
        <pt x="410" y="506" on="0"/>
        <pt x="456" y="480" on="0"/>
        <pt x="470" y="463" on="1"/>
        <pt x="478" y="488" on="0"/>
        <pt x="492" y="502" on="0"/>
        <pt x="511" y="502" on="1"/>
        <pt x="519" y="502" on="1"/>
        <pt x="552" y="502" on="0"/>
        <pt x="552" y="480" on="1"/>
        <pt x="544" y="381" on="1"/>
        <pt x="526" y="183" on="0"/>
        <pt x="526" y="158" on="1"/>
        <pt x="526" y="138" on="0"/>
        <pt x="545" y="122" on="0"/>
        <pt x="557" y="122" on="1"/>
        <pt x="585" y="122" on="0"/>
        <pt x="637" y="194" on="0"/>
        <pt x="669" y="313" on="0"/>
        <pt x="669" y="379" on="1"/>
        <pt x="669" y="463" on="0"/>
        <pt x="611" y="590" on="0"/>
        <pt x="507" y="658" on="0"/>
        <pt x="439" y="658" on="1"/>
        <pt x="349" y="658" on="0"/>
        <pt x="200" y="546" on="0"/>
        <pt x="113" y="353" on="0"/>
        <pt x="113" y="236" on="1"/>
        <pt x="113" y="144" on="0"/>
        <pt x="169" y="2" on="0"/>
        <pt x="270" y="-76" on="0"/>
        <pt x="336" y="-76" on="1"/>
        <pt x="369" y="-76" on="0"/>
        <pt x="414" y="-64" on="0"/>
        <pt x="437" y="-54" on="1"/>
        <pt x="455" y="-47" on="0"/>
        <pt x="460" y="-47" on="1"/>
        <pt x="474" y="-47" on="0"/>
        <pt x="474" y="-75" on="1"/>
        <pt x="474" y="-101" on="0"/>
        <pt x="378" y="-125" on="0"/>
        <pt x="331" y="-125" on="1"/>
        <pt x="250" y="-125" on="0"/>
        <pt x="125" y="-33" on="0"/>
        <pt x="55" y="132" on="0"/>
        <pt x="55" y="238" on="1"/>
        <pt x="55" y="368" on="0"/>
        <pt x="157" y="582" on="0"/>
        <pt x="334" y="706" on="0"/>
        <pt x="442" y="706" on="1"/>
      </contour>
      <contour>
        <pt x="444" y="357" on="0"/>
        <pt x="454" y="404" on="1"/>
        <pt x="429" y="429" on="0"/>
        <pt x="400" y="429" on="1"/>
        <pt x="352" y="429" on="0"/>
        <pt x="309" y="328" on="0"/>
        <pt x="309" y="244" on="1"/>
        <pt x="309" y="184" on="0"/>
        <pt x="338" y="134" on="0"/>
        <pt x="363" y="134" on="1"/>
        <pt x="382" y="134" on="0"/>
        <pt x="421" y="171" on="0"/>
        <pt x="435" y="210" on="1"/>
      </contour>
    </TTGlyph>
    <TTGlyph name="atilde" xMin="37" yMin="-8" xMax="452" yMax="694">
      <component glyphName="a" x="0" y="0" flags="0x0"/>
      <component glyphName="tilde" x="114" y="0" flags="0x0"/>
    </TTGlyph>
    <TTGlyph name="b" xMin="33" yMin="-7" xMax="439" yMax="753">
      <contour>
        <pt x="218" y="-7" on="0"/>
        <pt x="161" y="31" on="0"/>
        <pt x="144" y="66" on="1"/>
        <pt x="130" y="16" on="1"/>
        <pt x="126" y="5" on="0"/>
        <pt x="105" y="-2" on="0"/>
        <pt x="87" y="-2" on="1"/>
        <pt x="78" y="-2" on="1"/>
        <pt x="33" y="-2" on="0"/>
        <pt x="36" y="24" on="1"/>
        <pt x="110" y="727" on="1"/>
        <pt x="113" y="753" on="0"/>
        <pt x="160" y="753" on="1"/>
        <pt x="179" y="753" on="1"/>
        <pt x="226" y="753" on="0"/>
        <pt x="223" y="727" on="1"/>
        <pt x="197" y="488" on="1"/>
        <pt x="243" y="530" on="0"/>
        <pt x="298" y="530" on="1"/>
        <pt x="365" y="530" on="0"/>
        <pt x="439" y="423" on="0"/>
        <pt x="439" y="323" on="1"/>
        <pt x="439" y="295" on="0"/>
        <pt x="436" y="263" on="1"/>
        <pt x="427" y="181" on="0"/>
        <pt x="375" y="59" on="0"/>
        <pt x="298" y="-7" on="0"/>
        <pt x="252" y="-7" on="1"/>
      </contour>
      <contour>
        <pt x="301" y="87" on="0"/>
        <pt x="319" y="264" on="1"/>
        <pt x="323" y="296" on="0"/>
        <pt x="323" y="328" on="1"/>
        <pt x="323" y="384" on="0"/>
        <pt x="291" y="437" on="0"/>
        <pt x="259" y="437" on="1"/>
        <pt x="219" y="437" on="0"/>
        <pt x="189" y="405" on="1"/>
        <pt x="161" y="141" on="1"/>
        <pt x="173" y="116" on="0"/>
        <pt x="208" y="87" on="0"/>
        <pt x="229" y="87" on="1"/>
      </contour>
    </TTGlyph>
    <TTGlyph name="backslash" xMin="55" yMin="-21" xMax="266" yMax="702">
      <contour>
        <pt x="181" y="-21" on="0"/>
        <pt x="178" y="4" on="1"/>
        <pt x="57" y="661" on="1"/>
        <pt x="55" y="675" on="0"/>
        <pt x="55" y="682" on="1"/>
        <pt x="58" y="702" on="0"/>
        <pt x="86" y="702" on="1"/>
        <pt x="108" y="702" on="1"/>
        <pt x="139" y="702" on="0"/>
        <pt x="143" y="677" on="1"/>
        <pt x="265" y="21" on="1"/>
        <pt x="265" y="11" on="0"/>
        <pt x="266" y="1" on="0"/>
        <pt x="266" y="-1" on="1"/>
        <pt x="264" y="-10" on="0"/>
        <pt x="248" y="-21" on="0"/>
        <pt x="234" y="-21" on="1"/>
        <pt x="211" y="-21" on="1"/>
      </contour>
    </TTGlyph>
    <TTGlyph name="bar" xMin="16" yMin="-139" xMax="195" yMax="769">
      <contour>
        <pt x="195" y="769" on="0"/>
        <pt x="192" y="744" on="1"/>
        <pt x="102" y="-114" on="1"/>
        <pt x="100" y="-127" on="0"/>
        <pt x="83" y="-139" on="0"/>
        <pt x="64" y="-139" on="1"/>
        <pt x="52" y="-139" on="1"/>
        <pt x="16" y="-139" on="0"/>
        <pt x="19" y="-114" on="1"/>
        <pt x="109" y="744" on="1"/>
        <pt x="111" y="757" on="0"/>
        <pt x="128" y="769" on="0"/>
        <pt x="147" y="769" on="1"/>
        <pt x="159" y="769" on="1"/>
      </contour>
    </TTGlyph>
    <TTGlyph name="baraccent" xMin="43" yMin="278" xMax="291" yMax="359">
      <contour>
        <pt x="53" y="278" on="0"/>
        <pt x="43" y="295" on="0"/>
        <pt x="45" y="313" on="1"/>
        <pt x="46" y="325" on="1"/>
        <pt x="48" y="343" on="0"/>
        <pt x="61" y="359" on="0"/>
        <pt x="73" y="359" on="1"/>
        <pt x="269" y="359" on="1"/>
        <pt x="282" y="359" on="0"/>
        <pt x="291" y="343" on="0"/>
        <pt x="289" y="325" on="1"/>
        <pt x="287" y="313" on="1"/>
        <pt x="285" y="295" on="0"/>
        <pt x="273" y="278" on="0"/>
        <pt x="260" y="278" on="1"/>
        <pt x="65" y="278" on="1"/>
      </contour>
    </TTGlyph>
    <TTGlyph name="baraccentlong" xMin="-68" yMin="278" xMax="588" yMax="360">
      <contour>
        <pt x="588" y="360" on="0"/>
        <pt x="588" y="332" on="1"/>
        <pt x="588" y="312" on="0"/>
        <pt x="576" y="278" on="0"/>
        <pt x="558" y="278" on="1"/>
        <pt x="-47" y="278" on="1"/>
        <pt x="-68" y="278" on="0"/>
        <pt x="-68" y="307" on="1"/>
        <pt x="-68" y="326" on="0"/>
        <pt x="-56" y="360" on="0"/>
        <pt x="-38" y="360" on="1"/>
        <pt x="567" y="360" on="1"/>
      </contour>
    </TTGlyph>
    <TTGlyph name="baraccentmedium" xMin="1" yMin="278" xMax="414" yMax="360">
      <contour>
        <pt x="414" y="360" on="0"/>
        <pt x="414" y="332" on="1"/>
        <pt x="414" y="313" on="0"/>
        <pt x="401" y="278" on="0"/>
        <pt x="383" y="278" on="1"/>
        <pt x="22" y="278" on="1"/>
        <pt x="1" y="278" on="0"/>
        <pt x="1" y="307" on="1"/>
        <pt x="1" y="326" on="0"/>
        <pt x="13" y="360" on="0"/>
        <pt x="31" y="360" on="1"/>
        <pt x="393" y="360" on="1"/>
      </contour>
    </TTGlyph>
    <TTGlyph name="braceleft" xMin="21" yMin="-138" xMax="289" yMax="768">
      <contour>
        <pt x="99" y="-138" on="0"/>
        <pt x="54" y="-90" on="0"/>
        <pt x="54" y="-43" on="1"/>
        <pt x="54" y="-29" on="0"/>
        <pt x="55" y="-22" on="1"/>
        <pt x="74" y="159" on="1"/>
        <pt x="76" y="187" on="0"/>
        <pt x="76" y="198" on="1"/>
        <pt x="76" y="225" on="0"/>
        <pt x="61" y="259" on="0"/>
        <pt x="44" y="267" on="1"/>
        <pt x="31" y="274" on="0"/>
        <pt x="21" y="293" on="0"/>
        <pt x="22" y="308" on="1"/>
        <pt x="23" y="322" on="1"/>
        <pt x="24" y="337" on="0"/>
        <pt x="40" y="356" on="0"/>
        <pt x="55" y="363" on="1"/>
        <pt x="80" y="374" on="0"/>
        <pt x="102" y="424" on="0"/>
        <pt x="107" y="471" on="1"/>
        <pt x="126" y="652" on="1"/>
        <pt x="132" y="709" on="0"/>
        <pt x="191" y="768" on="0"/>
        <pt x="225" y="768" on="1"/>
        <pt x="267" y="768" on="1"/>
        <pt x="289" y="768" on="0"/>
        <pt x="289" y="744" on="1"/>
        <pt x="288" y="734" on="1"/>
        <pt x="288" y="726" on="1"/>
        <pt x="284" y="692" on="0"/>
        <pt x="261" y="692" on="1"/>
        <pt x="253" y="692" on="1"/>
        <pt x="235" y="692" on="0"/>
        <pt x="218" y="668" on="0"/>
        <pt x="216" y="642" on="1"/>
        <pt x="196" y="455" on="1"/>
        <pt x="190" y="401" on="0"/>
        <pt x="142" y="329" on="0"/>
        <pt x="116" y="314" on="1"/>
        <pt x="135" y="302" on="0"/>
        <pt x="168" y="243" on="0"/>
        <pt x="168" y="197" on="1"/>
        <pt x="168" y="183" on="0"/>
        <pt x="167" y="175" on="1"/>
        <pt x="147" y="-11" on="1"/>
        <pt x="146" y="-18" on="0"/>
        <pt x="146" y="-29" on="1"/>
        <pt x="146" y="-62" on="0"/>
        <pt x="172" y="-62" on="1"/>
        <pt x="182" y="-62" on="1"/>
        <pt x="202" y="-62" on="0"/>
        <pt x="202" y="-85" on="1"/>
        <pt x="201" y="-96" on="1"/>
        <pt x="200" y="-104" on="1"/>
        <pt x="197" y="-138" on="0"/>
        <pt x="172" y="-138" on="1"/>
        <pt x="130" y="-138" on="1"/>
      </contour>
    </TTGlyph>
    <TTGlyph name="braceright" xMin="-27" yMin="-138" xMax="243" yMax="768">
      <contour>
        <pt x="-17" y="-138" on="0"/>
        <pt x="-27" y="-122" on="0"/>
        <pt x="-25" y="-104" on="1"/>
        <pt x="-24" y="-96" on="1"/>
        <pt x="-22" y="-78" on="0"/>
        <pt x="-9" y="-62" on="0"/>
        <pt x="3" y="-62" on="1"/>
        <pt x="13" y="-62" on="1"/>
        <pt x="29" y="-62" on="0"/>
        <pt x="45" y="-37" on="0"/>
        <pt x="48" y="-11" on="1"/>
        <pt x="67" y="175" on="1"/>
        <pt x="72" y="230" on="0"/>
        <pt x="122" y="301" on="0"/>
        <pt x="148" y="314" on="1"/>
        <pt x="128" y="327" on="0"/>
        <pt x="96" y="387" on="0"/>
        <pt x="96" y="431" on="1"/>
        <pt x="96" y="447" on="0"/>
        <pt x="97" y="455" on="1"/>
        <pt x="116" y="642" on="1"/>
        <pt x="117" y="648" on="0"/>
        <pt x="117" y="658" on="1"/>
        <pt x="117" y="676" on="0"/>
        <pt x="105" y="692" on="0"/>
        <pt x="90" y="692" on="1"/>
        <pt x="82" y="692" on="1"/>
        <pt x="62" y="692" on="0"/>
        <pt x="62" y="716" on="1"/>
        <pt x="63" y="726" on="1"/>
        <pt x="63" y="734" on="1"/>
        <pt x="65" y="752" on="0"/>
        <pt x="78" y="768" on="0"/>
        <pt x="91" y="768" on="1"/>
        <pt x="133" y="768" on="1"/>
        <pt x="164" y="768" on="0"/>
        <pt x="209" y="720" on="0"/>
        <pt x="209" y="673" on="1"/>
        <pt x="209" y="659" on="0"/>
        <pt x="208" y="652" on="1"/>
        <pt x="189" y="471" on="1"/>
        <pt x="187" y="443" on="0"/>
        <pt x="187" y="432" on="1"/>
        <pt x="187" y="404" on="0"/>
        <pt x="202" y="371" on="0"/>
        <pt x="219" y="363" on="1"/>
        <pt x="232" y="356" on="0"/>
        <pt x="243" y="337" on="0"/>
        <pt x="241" y="322" on="1"/>
        <pt x="240" y="308" on="1"/>
        <pt x="239" y="293" on="0"/>
        <pt x="223" y="274" on="0"/>
        <pt x="209" y="267" on="1"/>
        <pt x="183" y="256" on="0"/>
        <pt x="161" y="206" on="0"/>
        <pt x="156" y="159" on="1"/>
        <pt x="137" y="-22" on="1"/>
        <pt x="131" y="-80" on="0"/>
        <pt x="72" y="-138" on="0"/>
        <pt x="38" y="-138" on="1"/>
        <pt x="-4" y="-138" on="1"/>
      </contour>
    </TTGlyph>
    <TTGlyph name="bracketleft" xMin="-1" yMin="-138" xMax="250" yMax="768">
      <contour>
        <pt x="13" y="-138" on="0"/>
        <pt x="-1" y="-122" on="0"/>
        <pt x="1" y="-104" on="1"/>
        <pt x="89" y="734" on="1"/>
        <pt x="91" y="752" on="0"/>
        <pt x="108" y="768" on="0"/>
        <pt x="124" y="768" on="1"/>
        <pt x="228" y="768" on="1"/>
        <pt x="241" y="768" on="0"/>
        <pt x="250" y="752" on="0"/>
        <pt x="248" y="734" on="1"/>
        <pt x="247" y="725" on="1"/>
        <pt x="245" y="707" on="0"/>
        <pt x="233" y="691" on="0"/>
        <pt x="220" y="691" on="1"/>
        <pt x="175" y="691" on="1"/>
        <pt x="96" y="-62" on="1"/>
        <pt x="141" y="-62" on="1"/>
        <pt x="162" y="-62" on="0"/>
        <pt x="162" y="-84" on="1"/>
        <pt x="161" y="-95" on="1"/>
        <pt x="160" y="-104" on="1"/>
        <pt x="158" y="-122" on="0"/>
        <pt x="146" y="-138" on="0"/>
        <pt x="133" y="-138" on="1"/>
        <pt x="29" y="-138" on="1"/>
      </contour>
    </TTGlyph>
    <TTGlyph name="bracketright" xMin="0" yMin="-138" xMax="250" yMax="768">
      <contour>
        <pt x="9" y="-138" on="0"/>
        <pt x="0" y="-122" on="0"/>
        <pt x="1" y="-104" on="1"/>
        <pt x="2" y="-95" on="1"/>
        <pt x="4" y="-77" on="0"/>
        <pt x="17" y="-62" on="0"/>
        <pt x="29" y="-62" on="1"/>
        <pt x="76" y="-62" on="1"/>
        <pt x="155" y="691" on="1"/>
        <pt x="108" y="691" on="1"/>
        <pt x="96" y="691" on="0"/>
        <pt x="87" y="707" on="0"/>
        <pt x="88" y="725" on="1"/>
        <pt x="89" y="734" on="1"/>
        <pt x="91" y="752" on="0"/>
        <pt x="104" y="768" on="0"/>
        <pt x="116" y="768" on="1"/>
        <pt x="220" y="768" on="1"/>
        <pt x="236" y="768" on="0"/>
        <pt x="250" y="752" on="0"/>
        <pt x="248" y="734" on="1"/>
        <pt x="160" y="-104" on="1"/>
        <pt x="158" y="-122" on="0"/>
        <pt x="141" y="-138" on="0"/>
        <pt x="125" y="-138" on="1"/>
        <pt x="21" y="-138" on="1"/>
      </contour>
    </TTGlyph>
    <TTGlyph name="breve" xMin="48" yMin="581" xMax="297" yMax="715">
      <contour>
        <pt x="108" y="581" on="0"/>
        <pt x="48" y="635" on="0"/>
        <pt x="48" y="678" on="1"/>
        <pt x="49" y="692" on="1"/>
        <pt x="52" y="715" on="0"/>
        <pt x="79" y="715" on="1"/>
        <pt x="89" y="715" on="0"/>
        <pt x="98" y="705" on="0"/>
        <pt x="102" y="693" on="1"/>
        <pt x="108" y="676" on="0"/>
        <pt x="138" y="658" on="0"/>
        <pt x="169" y="658" on="1"/>
        <pt x="201" y="658" on="0"/>
        <pt x="234" y="677" on="0"/>
        <pt x="243" y="694" on="1"/>
        <pt x="249" y="705" on="0"/>
        <pt x="260" y="715" on="0"/>
        <pt x="270" y="715" on="1"/>
        <pt x="297" y="715" on="0"/>
        <pt x="294" y="692" on="1"/>
        <pt x="289" y="643" on="0"/>
        <pt x="216" y="581" on="0"/>
        <pt x="160" y="581" on="1"/>
      </contour>
    </TTGlyph>
    <TTGlyph name="brokenbar" xMin="19" yMin="-140" xMax="192" yMax="770">
      <contour>
        <pt x="177" y="770" on="0"/>
        <pt x="192" y="757" on="0"/>
        <pt x="192" y="744" on="1"/>
        <pt x="192" y="739" on="0"/>
        <pt x="177" y="598" on="1"/>
        <pt x="158" y="419" on="1"/>
        <pt x="155" y="393" on="0"/>
        <pt x="120" y="393" on="1"/>
        <pt x="108" y="393" on="1"/>
        <pt x="90" y="393" on="0"/>
        <pt x="75" y="405" on="0"/>
        <pt x="75" y="417" on="1"/>
        <pt x="76" y="435" on="0"/>
        <pt x="86" y="522" on="0"/>
        <pt x="91" y="574" on="1"/>
        <pt x="109" y="744" on="1"/>
        <pt x="112" y="770" on="0"/>
        <pt x="147" y="770" on="1"/>
        <pt x="159" y="770" on="1"/>
      </contour>
      <contour>
        <pt x="122" y="236" on="0"/>
        <pt x="136" y="223" on="0"/>
        <pt x="136" y="210" on="1"/>
        <pt x="136" y="212" on="0"/>
        <pt x="120" y="54" on="1"/>
        <pt x="102" y="-114" on="1"/>
        <pt x="99" y="-140" on="0"/>
        <pt x="64" y="-140" on="1"/>
        <pt x="52" y="-140" on="1"/>
        <pt x="33" y="-140" on="0"/>
        <pt x="19" y="-127" on="0"/>
        <pt x="19" y="-114" on="1"/>
        <pt x="19" y="-106" on="0"/>
        <pt x="36" y="47" on="1"/>
        <pt x="53" y="210" on="1"/>
        <pt x="56" y="236" on="0"/>
        <pt x="91" y="236" on="1"/>
        <pt x="104" y="236" on="1"/>
      </contour>
    </TTGlyph>
    <TTGlyph name="bullet" xMin="37" yMin="199" xMax="275" yMax="454">
      <contour>
        <pt x="96" y="199" on="0"/>
        <pt x="37" y="253" on="0"/>
        <pt x="37" y="306" on="1"/>
        <pt x="37" y="378" on="0"/>
        <pt x="113" y="454" on="0"/>
        <pt x="169" y="454" on="1"/>
        <pt x="216" y="454" on="0"/>
        <pt x="275" y="399" on="0"/>
        <pt x="275" y="346" on="1"/>
        <pt x="275" y="333" on="0"/>
        <pt x="274" y="326" on="1"/>
        <pt x="267" y="264" on="0"/>
        <pt x="194" y="199" on="0"/>
        <pt x="143" y="199" on="1"/>
      </contour>
    </TTGlyph>
    <TTGlyph name="c" xMin="37" yMin="-7" xMax="408" yMax="530">
      <contour>
        <pt x="131" y="-7" on="0"/>
        <pt x="37" y="93" on="0"/>
        <pt x="37" y="198" on="1"/>
        <pt x="37" y="216" on="0"/>
        <pt x="41" y="262" on="1"/>
        <pt x="55" y="403" on="0"/>
        <pt x="177" y="530" on="0"/>
        <pt x="280" y="530" on="1"/>
        <pt x="329" y="530" on="0"/>
        <pt x="408" y="497" on="0"/>
        <pt x="408" y="476" on="1"/>
        <pt x="408" y="463" on="0"/>
        <pt x="375" y="410" on="0"/>
        <pt x="364" y="410" on="1"/>
        <pt x="361" y="410" on="0"/>
        <pt x="352" y="415" on="0"/>
        <pt x="350" y="416" on="1"/>
        <pt x="314" y="438" on="0"/>
        <pt x="279" y="438" on="1"/>
        <pt x="227" y="438" on="0"/>
        <pt x="168" y="357" on="0"/>
        <pt x="158" y="264" on="1"/>
        <pt x="155" y="231" on="0"/>
        <pt x="155" y="206" on="1"/>
        <pt x="155" y="142" on="0"/>
        <pt x="196" y="85" on="0"/>
        <pt x="241" y="85" on="1"/>
        <pt x="266" y="85" on="0"/>
        <pt x="301" y="96" on="0"/>
        <pt x="322" y="106" on="1"/>
        <pt x="336" y="114" on="0"/>
        <pt x="338" y="114" on="1"/>
        <pt x="350" y="114" on="0"/>
        <pt x="371" y="66" on="0"/>
        <pt x="369" y="52" on="1"/>
        <pt x="367" y="30" on="0"/>
        <pt x="268" y="-7" on="0"/>
        <pt x="224" y="-7" on="1"/>
      </contour>
    </TTGlyph>
    <TTGlyph name="cacute" xMin="37" yMin="-7" xMax="408" yMax="733">
      <component glyphName="c" x="0" y="0" flags="0x0"/>
      <component glyphName="acute" x="171" y="0" flags="0x0"/>
    </TTGlyph>
    <TTGlyph name="cacute.loclPLK" xMin="37" yMin="-7" xMax="408" yMax="733">
      <component glyphName="c" x="0" y="0" flags="0x0"/>
      <component glyphName="acute.loclPLK" x="171" y="0" flags="0x0"/>
    </TTGlyph>
    <TTGlyph name="caron" xMin="57" yMin="578" xMax="290" yMax="722">
      <contour>
        <pt x="136" y="578" on="0"/>
        <pt x="114" y="587" on="0"/>
        <pt x="108" y="599" on="1"/>
        <pt x="62" y="692" on="1"/>
        <pt x="57" y="707" on="0"/>
        <pt x="57" y="710" on="1"/>
        <pt x="58" y="715" on="0"/>
        <pt x="69" y="722" on="0"/>
        <pt x="78" y="722" on="1"/>
        <pt x="101" y="722" on="1"/>
        <pt x="127" y="722" on="0"/>
        <pt x="135" y="705" on="1"/>
        <pt x="165" y="645" on="1"/>
        <pt x="208" y="706" on="1"/>
        <pt x="220" y="722" on="0"/>
        <pt x="247" y="722" on="1"/>
        <pt x="270" y="722" on="1"/>
        <pt x="290" y="722" on="0"/>
        <pt x="288" y="709" on="1"/>
        <pt x="288" y="706" on="0"/>
        <pt x="280" y="692" on="1"/>
        <pt x="213" y="599" on="1"/>
        <pt x="205" y="587" on="0"/>
        <pt x="182" y="578" on="0"/>
        <pt x="164" y="578" on="1"/>
        <pt x="153" y="578" on="1"/>
      </contour>
    </TTGlyph>
    <TTGlyph name="caron.alt" xMin="72" yMin="519" xMax="184" yMax="700">
      <contour>
        <pt x="95" y="519" on="0"/>
        <pt x="72" y="529" on="0"/>
        <pt x="72" y="538" on="1"/>
        <pt x="72" y="551" on="0"/>
        <pt x="76" y="585" on="1"/>
        <pt x="82" y="629" on="0"/>
        <pt x="82" y="663" on="1"/>
        <pt x="82" y="680" on="0"/>
        <pt x="106" y="700" on="0"/>
        <pt x="130" y="700" on="1"/>
        <pt x="144" y="700" on="1"/>
        <pt x="163" y="700" on="0"/>
        <pt x="184" y="681" on="0"/>
        <pt x="184" y="665" on="1"/>
        <pt x="184" y="628" on="0"/>
        <pt x="158" y="561" on="0"/>
        <pt x="121" y="520" on="0"/>
        <pt x="108" y="519" on="1"/>
      </contour>
    </TTGlyph>
    <TTGlyph name="ccaron" xMin="37" yMin="-7" xMax="408" yMax="722">
      <component glyphName="c" x="0" y="0" flags="0x0"/>
      <component glyphName="caron" x="108" y="0" flags="0x0"/>
    </TTGlyph>
    <TTGlyph name="ccedilla" xMin="37" yMin="-211" xMax="408" yMax="530">
      <contour>
        <pt x="329" y="530" on="0"/>
        <pt x="408" y="497" on="0"/>
        <pt x="408" y="476" on="1"/>
        <pt x="408" y="463" on="0"/>
        <pt x="375" y="410" on="0"/>
        <pt x="364" y="410" on="1"/>
        <pt x="361" y="410" on="0"/>
        <pt x="352" y="415" on="0"/>
        <pt x="350" y="416" on="1"/>
        <pt x="314" y="438" on="0"/>
        <pt x="279" y="438" on="1"/>
        <pt x="227" y="438" on="0"/>
        <pt x="168" y="357" on="0"/>
        <pt x="158" y="264" on="1"/>
        <pt x="155" y="231" on="0"/>
        <pt x="155" y="206" on="1"/>
        <pt x="155" y="142" on="0"/>
        <pt x="196" y="85" on="0"/>
        <pt x="241" y="85" on="1"/>
        <pt x="266" y="85" on="0"/>
        <pt x="301" y="96" on="0"/>
        <pt x="322" y="106" on="1"/>
        <pt x="336" y="114" on="0"/>
        <pt x="338" y="114" on="1"/>
        <pt x="350" y="114" on="0"/>
        <pt x="371" y="66" on="0"/>
        <pt x="369" y="52" on="1"/>
        <pt x="367" y="32" on="0"/>
        <pt x="286" y="-2" on="0"/>
        <pt x="242" y="-6" on="1"/>
        <pt x="229" y="-54" on="1"/>
        <pt x="258" y="-57" on="0"/>
        <pt x="298" y="-90" on="0"/>
        <pt x="298" y="-125" on="1"/>
        <pt x="298" y="-170" on="0"/>
        <pt x="243" y="-211" on="0"/>
        <pt x="198" y="-211" on="1"/>
        <pt x="162" y="-211" on="0"/>
        <pt x="99" y="-183" on="0"/>
        <pt x="99" y="-164" on="1"/>
        <pt x="99" y="-151" on="0"/>
        <pt x="116" y="-131" on="0"/>
        <pt x="124" y="-131" on="1"/>
        <pt x="130" y="-131" on="0"/>
        <pt x="145" y="-138" on="0"/>
        <pt x="147" y="-139" on="1"/>
        <pt x="156" y="-143" on="0"/>
        <pt x="180" y="-151" on="0"/>
        <pt x="191" y="-151" on="1"/>
        <pt x="203" y="-151" on="0"/>
        <pt x="220" y="-140" on="0"/>
        <pt x="220" y="-128" on="1"/>
        <pt x="220" y="-116" on="0"/>
        <pt x="205" y="-104" on="0"/>
        <pt x="191" y="-99" on="1"/>
        <pt x="179" y="-95" on="0"/>
        <pt x="168" y="-87" on="0"/>
        <pt x="168" y="-79" on="1"/>
        <pt x="168" y="-69" on="0"/>
        <pt x="191" y="-5" on="1"/>
        <pt x="114" y="3" on="0"/>
        <pt x="37" y="103" on="0"/>
        <pt x="37" y="199" on="1"/>
        <pt x="37" y="218" on="0"/>
        <pt x="41" y="262" on="1"/>
        <pt x="55" y="403" on="0"/>
        <pt x="177" y="530" on="0"/>
        <pt x="280" y="530" on="1"/>
      </contour>
    </TTGlyph>
    <TTGlyph name="ccircumflex" xMin="37" yMin="-7" xMax="408" yMax="718">
      <component glyphName="c" x="0" y="0" flags="0x0"/>
      <component glyphName="circumflex" x="107" y="0" flags="0x0"/>
    </TTGlyph>
    <TTGlyph name="cdotaccent" xMin="37" yMin="-7" xMax="408" yMax="702">
      <component glyphName="c" x="0" y="0" flags="0x0"/>
      <component glyphName="dotaccent" x="104" y="0" flags="0x0"/>
    </TTGlyph>
    <TTGlyph name="cedilla" xMin="24" yMin="-211" xMax="223" yMax="4">
      <contour>
        <pt x="182" y="-57" on="0"/>
        <pt x="223" y="-90" on="0"/>
        <pt x="223" y="-125" on="1"/>
        <pt x="223" y="-170" on="0"/>
        <pt x="168" y="-211" on="0"/>
        <pt x="123" y="-211" on="1"/>
        <pt x="87" y="-211" on="0"/>
        <pt x="24" y="-183" on="0"/>
        <pt x="24" y="-164" on="1"/>
        <pt x="24" y="-151" on="0"/>
        <pt x="41" y="-131" on="0"/>
        <pt x="49" y="-131" on="1"/>
        <pt x="55" y="-131" on="0"/>
        <pt x="70" y="-138" on="0"/>
        <pt x="72" y="-139" on="1"/>
        <pt x="81" y="-143" on="0"/>
        <pt x="105" y="-151" on="0"/>
        <pt x="116" y="-151" on="1"/>
        <pt x="128" y="-151" on="0"/>
        <pt x="145" y="-140" on="0"/>
        <pt x="145" y="-128" on="1"/>
        <pt x="145" y="-116" on="0"/>
        <pt x="130" y="-104" on="0"/>
        <pt x="116" y="-99" on="1"/>
        <pt x="104" y="-95" on="0"/>
        <pt x="93" y="-87" on="0"/>
        <pt x="93" y="-79" on="1"/>
        <pt x="93" y="-73" on="0"/>
        <pt x="106" y="-34" on="0"/>
        <pt x="119" y="4" on="1"/>
        <pt x="170" y="4" on="1"/>
        <pt x="153" y="-54" on="1"/>
      </contour>
    </TTGlyph>
    <TTGlyph name="cent" xMin="37" yMin="-73" xMax="408" yMax="584">
      <contour>
        <pt x="337" y="528" on="0"/>
        <pt x="408" y="496" on="0"/>
        <pt x="408" y="476" on="1"/>
        <pt x="408" y="463" on="0"/>
        <pt x="375" y="410" on="0"/>
        <pt x="364" y="410" on="1"/>
        <pt x="361" y="410" on="0"/>
        <pt x="352" y="415" on="0"/>
        <pt x="350" y="416" on="1"/>
        <pt x="316" y="437" on="0"/>
        <pt x="282" y="438" on="1"/>
        <pt x="244" y="85" on="1"/>
        <pt x="267" y="85" on="0"/>
        <pt x="301" y="96" on="0"/>
        <pt x="322" y="106" on="1"/>
        <pt x="336" y="114" on="0"/>
        <pt x="338" y="114" on="1"/>
        <pt x="350" y="114" on="0"/>
        <pt x="371" y="66" on="0"/>
        <pt x="369" y="52" on="1"/>
        <pt x="367" y="32" on="0"/>
        <pt x="279" y="-4" on="0"/>
        <pt x="234" y="-7" on="1"/>
        <pt x="230" y="-53" on="1"/>
        <pt x="227" y="-73" on="0"/>
        <pt x="209" y="-73" on="1"/>
        <pt x="200" y="-73" on="1"/>
        <pt x="189" y="-73" on="0"/>
        <pt x="182" y="-64" on="0"/>
        <pt x="182" y="-53" on="1"/>
        <pt x="187" y="-5" on="1"/>
        <pt x="112" y="4" on="0"/>
        <pt x="37" y="103" on="0"/>
        <pt x="37" y="199" on="1"/>
        <pt x="37" y="216" on="0"/>
        <pt x="41" y="262" on="1"/>
        <pt x="54" y="390" on="0"/>
        <pt x="157" y="518" on="0"/>
        <pt x="244" y="528" on="1"/>
        <pt x="248" y="564" on="1"/>
        <pt x="249" y="584" on="0"/>
        <pt x="268" y="584" on="1"/>
        <pt x="277" y="584" on="1"/>
        <pt x="287" y="584" on="0"/>
        <pt x="295" y="575" on="0"/>
        <pt x="295" y="564" on="1"/>
        <pt x="291" y="530" on="1"/>
      </contour>
      <contour>
        <pt x="155" y="231" on="0"/>
        <pt x="155" y="206" on="1"/>
        <pt x="155" y="160" on="0"/>
        <pt x="176" y="106" on="0"/>
        <pt x="198" y="94" on="1"/>
        <pt x="233" y="429" on="1"/>
        <pt x="202" y="414" on="0"/>
        <pt x="165" y="334" on="0"/>
        <pt x="158" y="264" on="1"/>
      </contour>
    </TTGlyph>
    <TTGlyph name="circumflex" xMin="44" yMin="574" xMax="276" yMax="718">
      <contour>
        <pt x="44" y="574" on="0"/>
        <pt x="44" y="586" on="1"/>
        <pt x="46" y="593" on="0"/>
        <pt x="53" y="604" on="1"/>
        <pt x="118" y="697" on="1"/>
        <pt x="132" y="718" on="0"/>
        <pt x="169" y="718" on="1"/>
        <pt x="178" y="718" on="1"/>
        <pt x="196" y="718" on="0"/>
        <pt x="217" y="709" on="0"/>
        <pt x="224" y="697" on="1"/>
        <pt x="270" y="604" on="1"/>
        <pt x="276" y="595" on="0"/>
        <pt x="276" y="587" on="1"/>
        <pt x="275" y="581" on="0"/>
        <pt x="264" y="574" on="0"/>
        <pt x="255" y="574" on="1"/>
        <pt x="231" y="574" on="1"/>
        <pt x="204" y="574" on="0"/>
        <pt x="197" y="590" on="1"/>
        <pt x="166" y="651" on="1"/>
        <pt x="124" y="590" on="1"/>
        <pt x="111" y="574" on="0"/>
        <pt x="85" y="574" on="1"/>
        <pt x="63" y="574" on="1"/>
      </contour>
    </TTGlyph>
    <TTGlyph name="colon" xMin="8" yMin="-2" xMax="182" yMax="525">
      <contour>
        <pt x="71" y="395" on="0"/>
        <pt x="50" y="408" on="0"/>
        <pt x="51" y="421" on="1"/>
        <pt x="59" y="499" on="1"/>
        <pt x="61" y="512" on="0"/>
        <pt x="85" y="525" on="0"/>
        <pt x="110" y="525" on="1"/>
        <pt x="134" y="525" on="1"/>
        <pt x="182" y="525" on="0"/>
        <pt x="177" y="499" on="1"/>
        <pt x="169" y="421" on="1"/>
        <pt x="167" y="395" on="0"/>
        <pt x="120" y="395" on="1"/>
        <pt x="95" y="395" on="1"/>
      </contour>
      <contour>
        <pt x="29" y="-2" on="0"/>
        <pt x="8" y="11" on="0"/>
        <pt x="10" y="24" on="1"/>
        <pt x="18" y="102" on="1"/>
        <pt x="21" y="128" on="0"/>
        <pt x="68" y="128" on="1"/>
        <pt x="92" y="128" on="1"/>
        <pt x="139" y="128" on="0"/>
        <pt x="136" y="102" on="1"/>
        <pt x="128" y="24" on="1"/>
        <pt x="125" y="-2" on="0"/>
        <pt x="78" y="-2" on="1"/>
        <pt x="54" y="-2" on="1"/>
      </contour>
    </TTGlyph>
    <TTGlyph name="comma" xMin="-37" yMin="-120" xMax="130" yMax="128">
      <contour>
        <pt x="-16" y="-120" on="0"/>
        <pt x="-37" y="-111" on="0"/>
        <pt x="-36" y="-102" on="1"/>
        <pt x="-35" y="-98" on="0"/>
        <pt x="-29" y="-81" on="0"/>
        <pt x="-27" y="-74" on="1"/>
        <pt x="-8" y="-30" on="0"/>
        <pt x="15" y="40" on="0"/>
        <pt x="20" y="91" on="1"/>
        <pt x="22" y="108" on="0"/>
        <pt x="47" y="128" on="0"/>
        <pt x="70" y="128" on="1"/>
        <pt x="85" y="128" on="1"/>
        <pt x="108" y="128" on="0"/>
        <pt x="130" y="109" on="0"/>
        <pt x="128" y="93" on="1"/>
        <pt x="122" y="39" on="0"/>
        <pt x="73" y="-59" on="0"/>
        <pt x="15" y="-120" on="0"/>
        <pt x="-3" y="-120" on="1"/>
      </contour>
    </TTGlyph>
    <TTGlyph name="commaaccentinvert" xMin="106" yMin="581" xMax="227" yMax="767">
      <contour>
        <pt x="205" y="767" on="0"/>
        <pt x="227" y="758" on="0"/>
        <pt x="227" y="749" on="1"/>
        <pt x="227" y="739" on="0"/>
        <pt x="221" y="722" on="1"/>
        <pt x="206" y="670" on="0"/>
        <pt x="206" y="618" on="1"/>
        <pt x="206" y="581" on="0"/>
        <pt x="160" y="581" on="1"/>
        <pt x="145" y="581" on="1"/>
        <pt x="125" y="581" on="0"/>
        <pt x="106" y="600" on="0"/>
        <pt x="106" y="616" on="1"/>
        <pt x="106" y="655" on="0"/>
        <pt x="136" y="724" on="0"/>
        <pt x="177" y="767" on="0"/>
        <pt x="192" y="767" on="1"/>
      </contour>
    </TTGlyph>
    <TTGlyph name="copyright" xMin="19" yMin="-6" xMax="592" yMax="709">
      <contour>
        <pt x="225" y="-6" on="0"/>
        <pt x="95" y="77" on="0"/>
        <pt x="19" y="239" on="0"/>
        <pt x="19" y="352" on="1"/>
        <pt x="19" y="465" on="0"/>
        <pt x="95" y="626" on="0"/>
        <pt x="225" y="709" on="0"/>
        <pt x="306" y="709" on="1"/>
        <pt x="387" y="709" on="0"/>
        <pt x="517" y="626" on="0"/>
        <pt x="592" y="465" on="0"/>
        <pt x="592" y="352" on="1"/>
        <pt x="592" y="239" on="0"/>
        <pt x="517" y="77" on="0"/>
        <pt x="387" y="-6" on="0"/>
        <pt x="306" y="-6" on="1"/>
      </contour>
      <contour>
        <pt x="370" y="49" on="0"/>
        <pt x="474" y="118" on="0"/>
        <pt x="535" y="255" on="0"/>
        <pt x="535" y="352" on="1"/>
        <pt x="535" y="450" on="0"/>
        <pt x="474" y="586" on="0"/>
        <pt x="371" y="654" on="0"/>
        <pt x="306" y="654" on="1"/>
        <pt x="241" y="654" on="0"/>
        <pt x="137" y="586" on="0"/>
        <pt x="76" y="450" on="0"/>
        <pt x="76" y="352" on="1"/>
        <pt x="76" y="255" on="0"/>
        <pt x="137" y="118" on="0"/>
        <pt x="242" y="49" on="0"/>
        <pt x="306" y="49" on="1"/>
      </contour>
      <contour>
        <pt x="241" y="144" on="0"/>
        <pt x="169" y="245" on="0"/>
        <pt x="169" y="351" on="1"/>
        <pt x="169" y="558" on="0"/>
        <pt x="318" y="558" on="1"/>
        <pt x="350" y="558" on="0"/>
        <pt x="412" y="534" on="0"/>
        <pt x="412" y="520" on="1"/>
        <pt x="412" y="510" on="0"/>
        <pt x="392" y="477" on="0"/>
        <pt x="384" y="477" on="1"/>
        <pt x="383" y="477" on="0"/>
        <pt x="350" y="500" on="0"/>
        <pt x="317" y="500" on="1"/>
        <pt x="276" y="500" on="0"/>
        <pt x="237" y="428" on="0"/>
        <pt x="237" y="351" on="1"/>
        <pt x="237" y="274" on="0"/>
        <pt x="276" y="201" on="0"/>
        <pt x="316" y="201" on="1"/>
        <pt x="348" y="201" on="0"/>
        <pt x="388" y="228" on="0"/>
        <pt x="390" y="228" on="1"/>
        <pt x="399" y="228" on="0"/>
        <pt x="416" y="196" on="0"/>
        <pt x="416" y="188" on="1"/>
        <pt x="416" y="171" on="0"/>
        <pt x="347" y="144" on="0"/>
        <pt x="316" y="144" on="1"/>
      </contour>
    </TTGlyph>
    <TTGlyph name="currency" xMin="36" yMin="112" xMax="433" yMax="507">
      <contour>
        <pt x="67" y="112" on="0"/>
        <pt x="57" y="122" on="1"/>
        <pt x="44" y="137" on="1"/>
        <pt x="36" y="145" on="0"/>
        <pt x="36" y="157" on="1"/>
        <pt x="38" y="170" on="0"/>
        <pt x="51" y="180" on="1"/>
        <pt x="83" y="209" on="1"/>
        <pt x="68" y="242" on="0"/>
        <pt x="68" y="284" on="1"/>
        <pt x="68" y="317" on="0"/>
        <pt x="87" y="382" on="0"/>
        <pt x="104" y="408" on="1"/>
        <pt x="77" y="438" on="1"/>
        <pt x="66" y="449" on="0"/>
        <pt x="68" y="461" on="1"/>
        <pt x="70" y="473" on="0"/>
        <pt x="79" y="481" on="1"/>
        <pt x="95" y="497" on="1"/>
        <pt x="107" y="507" on="0"/>
        <pt x="117" y="507" on="1"/>
        <pt x="129" y="507" on="0"/>
        <pt x="139" y="495" on="1"/>
        <pt x="162" y="469" on="1"/>
        <pt x="206" y="500" on="0"/>
        <pt x="253" y="500" on="1"/>
        <pt x="301" y="500" on="0"/>
        <pt x="339" y="469" on="1"/>
        <pt x="368" y="495" on="1"/>
        <pt x="381" y="506" on="0"/>
        <pt x="391" y="506" on="1"/>
        <pt x="403" y="506" on="0"/>
        <pt x="412" y="496" on="1"/>
        <pt x="424" y="482" on="1"/>
        <pt x="433" y="471" on="0"/>
        <pt x="432" y="461" on="1"/>
        <pt x="432" y="450" on="0"/>
        <pt x="419" y="438" on="1"/>
        <pt x="384" y="407" on="1"/>
        <pt x="399" y="367" on="0"/>
        <pt x="399" y="330" on="1"/>
        <pt x="399" y="270" on="0"/>
        <pt x="365" y="210" on="1"/>
        <pt x="391" y="180" on="1"/>
        <pt x="400" y="170" on="0"/>
        <pt x="400" y="158" on="1"/>
        <pt x="398" y="147" on="0"/>
        <pt x="386" y="136" on="1"/>
        <pt x="371" y="122" on="1"/>
        <pt x="359" y="112" on="0"/>
        <pt x="349" y="112" on="1"/>
        <pt x="336" y="112" on="0"/>
        <pt x="328" y="123" on="1"/>
        <pt x="307" y="147" on="1"/>
        <pt x="264" y="116" on="0"/>
        <pt x="213" y="116" on="1"/>
        <pt x="164" y="116" on="0"/>
        <pt x="126" y="146" on="1"/>
        <pt x="101" y="123" on="1"/>
        <pt x="90" y="112" on="0"/>
        <pt x="77" y="112" on="1"/>
      </contour>
      <contour>
        <pt x="256" y="200" on="0"/>
        <pt x="307" y="257" on="0"/>
        <pt x="313" y="308" on="1"/>
        <pt x="314" y="315" on="0"/>
        <pt x="314" y="327" on="1"/>
        <pt x="314" y="369" on="0"/>
        <pt x="276" y="416" on="0"/>
        <pt x="245" y="416" on="1"/>
        <pt x="206" y="416" on="0"/>
        <pt x="152" y="347" on="0"/>
        <pt x="152" y="287" on="1"/>
        <pt x="152" y="246" on="0"/>
        <pt x="191" y="200" on="0"/>
        <pt x="222" y="200" on="1"/>
      </contour>
    </TTGlyph>
    <TTGlyph name="d" xMin="36" yMin="-7" xMax="466" yMax="753">
      <contour>
        <pt x="105" y="-7" on="0"/>
        <pt x="36" y="104" on="0"/>
        <pt x="36" y="201" on="1"/>
        <pt x="36" y="220" on="0"/>
        <pt x="40" y="264" on="1"/>
        <pt x="53" y="390" on="0"/>
        <pt x="157" y="530" on="0"/>
        <pt x="234" y="530" on="1"/>
        <pt x="290" y="530" on="0"/>
        <pt x="325" y="488" on="1"/>
        <pt x="350" y="727" on="1"/>
        <pt x="353" y="753" on="0"/>
        <pt x="400" y="753" on="1"/>
        <pt x="418" y="753" on="1"/>
        <pt x="466" y="753" on="0"/>
        <pt x="463" y="727" on="1"/>
        <pt x="440" y="510" on="1"/>
        <pt x="408" y="210" on="0"/>
        <pt x="400" y="127" on="1"/>
        <pt x="399" y="103" on="0"/>
        <pt x="409" y="86" on="0"/>
        <pt x="419" y="86" on="1"/>
        <pt x="425" y="86" on="0"/>
        <pt x="438" y="89" on="0"/>
        <pt x="442" y="89" on="1"/>
        <pt x="452" y="89" on="0"/>
        <pt x="452" y="66" on="1"/>
        <pt x="452" y="58" on="0"/>
        <pt x="450" y="48" on="1"/>
        <pt x="446" y="23" on="0"/>
        <pt x="405" y="-7" on="0"/>
        <pt x="374" y="-7" on="1"/>
        <pt x="341" y="-7" on="0"/>
        <pt x="295" y="29" on="0"/>
        <pt x="289" y="72" on="1"/>
        <pt x="267" y="35" on="0"/>
        <pt x="202" y="-7" on="0"/>
        <pt x="165" y="-7" on="1"/>
      </contour>
      <contour>
        <pt x="249" y="87" on="0"/>
        <pt x="289" y="143" on="1"/>
        <pt x="316" y="406" on="1"/>
        <pt x="293" y="437" on="0"/>
        <pt x="254" y="437" on="1"/>
        <pt x="213" y="437" on="0"/>
        <pt x="165" y="352" on="0"/>
        <pt x="156" y="263" on="1"/>
        <pt x="152" y="231" on="0"/>
        <pt x="152" y="197" on="1"/>
        <pt x="152" y="87" on="0"/>
        <pt x="209" y="87" on="1"/>
      </contour>
    </TTGlyph>
    <TTGlyph name="dagger" xMin="56" yMin="-140" xMax="413" yMax="702">
      <contour>
        <pt x="128" y="-140" on="0"/>
        <pt x="130" y="-114" on="1"/>
        <pt x="186" y="417" on="1"/>
        <pt x="77" y="417" on="1"/>
        <pt x="56" y="417" on="0"/>
        <pt x="56" y="444" on="1"/>
        <pt x="57" y="455" on="1"/>
        <pt x="59" y="470" on="1"/>
        <pt x="62" y="509" on="0"/>
        <pt x="86" y="509" on="1"/>
        <pt x="195" y="509" on="1"/>
        <pt x="213" y="676" on="1"/>
        <pt x="215" y="689" on="0"/>
        <pt x="234" y="702" on="0"/>
        <pt x="254" y="702" on="1"/>
        <pt x="266" y="702" on="1"/>
        <pt x="305" y="702" on="0"/>
        <pt x="303" y="676" on="1"/>
        <pt x="285" y="509" on="1"/>
        <pt x="393" y="509" on="1"/>
        <pt x="413" y="509" on="0"/>
        <pt x="413" y="483" on="1"/>
        <pt x="413" y="475" on="0"/>
        <pt x="412" y="470" on="1"/>
        <pt x="411" y="455" on="1"/>
        <pt x="409" y="434" on="0"/>
        <pt x="397" y="417" on="0"/>
        <pt x="384" y="417" on="1"/>
        <pt x="276" y="417" on="1"/>
        <pt x="219" y="-114" on="1"/>
        <pt x="217" y="-140" on="0"/>
        <pt x="178" y="-140" on="1"/>
        <pt x="166" y="-140" on="1"/>
      </contour>
    </TTGlyph>
    <TTGlyph name="daggerdbl" xMin="18" yMin="-140" xMax="413" yMax="702">
      <contour>
        <pt x="128" y="-140" on="0"/>
        <pt x="130" y="-114" on="1"/>
        <pt x="148" y="52" on="1"/>
        <pt x="38" y="52" on="1"/>
        <pt x="18" y="52" on="0"/>
        <pt x="18" y="79" on="1"/>
        <pt x="19" y="91" on="1"/>
        <pt x="20" y="105" on="1"/>
        <pt x="22" y="125" on="0"/>
        <pt x="35" y="144" on="0"/>
        <pt x="47" y="144" on="1"/>
        <pt x="157" y="144" on="1"/>
        <pt x="186" y="417" on="1"/>
        <pt x="77" y="417" on="1"/>
        <pt x="56" y="417" on="0"/>
        <pt x="56" y="444" on="1"/>
        <pt x="57" y="455" on="1"/>
        <pt x="59" y="470" on="1"/>
        <pt x="62" y="509" on="0"/>
        <pt x="86" y="509" on="1"/>
        <pt x="195" y="509" on="1"/>
        <pt x="213" y="676" on="1"/>
        <pt x="215" y="689" on="0"/>
        <pt x="234" y="702" on="0"/>
        <pt x="254" y="702" on="1"/>
        <pt x="266" y="702" on="1"/>
        <pt x="305" y="702" on="0"/>
        <pt x="303" y="676" on="1"/>
        <pt x="285" y="509" on="1"/>
        <pt x="393" y="509" on="1"/>
        <pt x="413" y="509" on="0"/>
        <pt x="413" y="483" on="1"/>
        <pt x="413" y="475" on="0"/>
        <pt x="412" y="470" on="1"/>
        <pt x="411" y="455" on="1"/>
        <pt x="409" y="434" on="0"/>
        <pt x="397" y="417" on="0"/>
        <pt x="384" y="417" on="1"/>
        <pt x="276" y="417" on="1"/>
        <pt x="246" y="144" on="1"/>
        <pt x="354" y="144" on="1"/>
        <pt x="375" y="144" on="0"/>
        <pt x="375" y="117" on="1"/>
        <pt x="374" y="105" on="1"/>
        <pt x="372" y="91" on="1"/>
        <pt x="370" y="71" on="0"/>
        <pt x="358" y="52" on="0"/>
        <pt x="345" y="52" on="1"/>
        <pt x="237" y="52" on="1"/>
        <pt x="219" y="-114" on="1"/>
        <pt x="217" y="-140" on="0"/>
        <pt x="178" y="-140" on="1"/>
        <pt x="166" y="-140" on="1"/>
      </contour>
    </TTGlyph>
    <TTGlyph name="dcaron" xMin="36" yMin="-7" xMax="600" yMax="753">
      <component glyphName="d" x="0" y="0" flags="0x0"/>
      <component glyphName="caron.alt" x="416" y="0" flags="0x0"/>
    </TTGlyph>
    <TTGlyph name="dcroat" xMin="36" yMin="-7" xMax="520" yMax="753">
      <contour>
        <pt x="511" y="672" on="0"/>
        <pt x="520" y="656" on="0"/>
        <pt x="518" y="638" on="1"/>
        <pt x="516" y="626" on="1"/>
        <pt x="514" y="608" on="0"/>
        <pt x="502" y="591" on="0"/>
        <pt x="489" y="591" on="1"/>
        <pt x="449" y="591" on="1"/>
        <pt x="424" y="360" on="0"/>
        <pt x="400" y="127" on="1"/>
        <pt x="399" y="103" on="0"/>
        <pt x="409" y="86" on="0"/>
        <pt x="419" y="86" on="1"/>
        <pt x="425" y="86" on="0"/>
        <pt x="438" y="89" on="0"/>
        <pt x="442" y="89" on="1"/>
        <pt x="452" y="89" on="0"/>
        <pt x="452" y="66" on="1"/>
        <pt x="452" y="58" on="0"/>
        <pt x="450" y="48" on="1"/>
        <pt x="446" y="23" on="0"/>
        <pt x="405" y="-7" on="0"/>
        <pt x="374" y="-7" on="1"/>
        <pt x="341" y="-7" on="0"/>
        <pt x="295" y="29" on="0"/>
        <pt x="289" y="72" on="1"/>
        <pt x="267" y="35" on="0"/>
        <pt x="202" y="-7" on="0"/>
        <pt x="165" y="-7" on="1"/>
        <pt x="105" y="-7" on="0"/>
        <pt x="36" y="104" on="0"/>
        <pt x="36" y="201" on="1"/>
        <pt x="36" y="220" on="0"/>
        <pt x="40" y="264" on="1"/>
        <pt x="53" y="390" on="0"/>
        <pt x="157" y="530" on="0"/>
        <pt x="234" y="530" on="1"/>
        <pt x="290" y="530" on="0"/>
        <pt x="325" y="488" on="1"/>
        <pt x="336" y="591" on="1"/>
        <pt x="294" y="591" on="1"/>
        <pt x="282" y="591" on="0"/>
        <pt x="272" y="608" on="0"/>
        <pt x="274" y="626" on="1"/>
        <pt x="275" y="638" on="1"/>
        <pt x="277" y="656" on="0"/>
        <pt x="290" y="672" on="0"/>
        <pt x="302" y="672" on="1"/>
        <pt x="345" y="672" on="1"/>
        <pt x="350" y="727" on="1"/>
        <pt x="353" y="753" on="0"/>
        <pt x="400" y="753" on="1"/>
        <pt x="418" y="753" on="1"/>
        <pt x="466" y="753" on="0"/>
        <pt x="463" y="727" on="1"/>
        <pt x="458" y="672" on="1"/>
        <pt x="498" y="672" on="1"/>
      </contour>
      <contour>
        <pt x="316" y="406" on="1"/>
        <pt x="293" y="437" on="0"/>
        <pt x="254" y="437" on="1"/>
        <pt x="213" y="437" on="0"/>
        <pt x="165" y="352" on="0"/>
        <pt x="156" y="263" on="1"/>
        <pt x="152" y="231" on="0"/>
        <pt x="152" y="197" on="1"/>
        <pt x="152" y="87" on="0"/>
        <pt x="209" y="87" on="1"/>
        <pt x="249" y="87" on="0"/>
        <pt x="289" y="143" on="1"/>
      </contour>
    </TTGlyph>
    <TTGlyph name="degree" xMin="64" yMin="442" xMax="278" yMax="707">
      <contour>
        <pt x="115" y="442" on="0"/>
        <pt x="64" y="499" on="0"/>
        <pt x="64" y="551" on="1"/>
        <pt x="64" y="624" on="0"/>
        <pt x="134" y="707" on="0"/>
        <pt x="185" y="707" on="1"/>
        <pt x="227" y="707" on="0"/>
        <pt x="278" y="650" on="0"/>
        <pt x="278" y="597" on="1"/>
        <pt x="278" y="524" on="0"/>
        <pt x="208" y="442" on="0"/>
        <pt x="157" y="442" on="1"/>
      </contour>
      <contour>
        <pt x="185" y="494" on="0"/>
        <pt x="217" y="535" on="0"/>
        <pt x="221" y="574" on="1"/>
        <pt x="222" y="580" on="0"/>
        <pt x="222" y="591" on="1"/>
        <pt x="222" y="621" on="0"/>
        <pt x="199" y="654" on="0"/>
        <pt x="178" y="654" on="1"/>
        <pt x="155" y="654" on="0"/>
        <pt x="123" y="612" on="0"/>
        <pt x="119" y="574" on="1"/>
        <pt x="118" y="568" on="0"/>
        <pt x="118" y="557" on="1"/>
        <pt x="118" y="526" on="0"/>
        <pt x="141" y="494" on="0"/>
        <pt x="162" y="494" on="1"/>
      </contour>
    </TTGlyph>
    <TTGlyph name="dieresis" xMin="46" yMin="594" xMax="293" yMax="702">
      <contour>
        <pt x="46" y="594" on="0"/>
        <pt x="49" y="621" on="1"/>
        <pt x="55" y="676" on="1"/>
        <pt x="57" y="702" on="0"/>
        <pt x="104" y="702" on="1"/>
        <pt x="151" y="702" on="0"/>
        <pt x="149" y="676" on="1"/>
        <pt x="143" y="621" on="1"/>
        <pt x="140" y="594" on="0"/>
        <pt x="93" y="594" on="1"/>
      </contour>
      <contour>
        <pt x="188" y="594" on="0"/>
        <pt x="191" y="621" on="1"/>
        <pt x="197" y="676" on="1"/>
        <pt x="199" y="702" on="0"/>
        <pt x="246" y="702" on="1"/>
        <pt x="293" y="702" on="0"/>
        <pt x="290" y="676" on="1"/>
        <pt x="285" y="621" on="1"/>
        <pt x="280" y="594" on="0"/>
        <pt x="234" y="594" on="1"/>
      </contour>
    </TTGlyph>
    <TTGlyph name="divide" xMin="19" yMin="-2" xMax="424" yMax="459">
      <contour>
        <pt x="181" y="346" on="0"/>
        <pt x="184" y="373" on="1"/>
        <pt x="191" y="432" on="1"/>
        <pt x="193" y="459" on="0"/>
        <pt x="240" y="459" on="1"/>
        <pt x="248" y="459" on="1"/>
        <pt x="295" y="459" on="0"/>
        <pt x="292" y="432" on="1"/>
        <pt x="286" y="373" on="1"/>
        <pt x="283" y="346" on="0"/>
        <pt x="236" y="346" on="1"/>
        <pt x="228" y="346" on="1"/>
      </contour>
      <contour>
        <pt x="19" y="186" on="0"/>
        <pt x="19" y="214" on="1"/>
        <pt x="20" y="225" on="1"/>
        <pt x="21" y="232" on="1"/>
        <pt x="23" y="252" on="0"/>
        <pt x="37" y="271" on="0"/>
        <pt x="49" y="271" on="1"/>
        <pt x="402" y="271" on="1"/>
        <pt x="414" y="271" on="0"/>
        <pt x="424" y="252" on="0"/>
        <pt x="422" y="232" on="1"/>
        <pt x="421" y="225" on="1"/>
        <pt x="419" y="205" on="0"/>
        <pt x="406" y="186" on="0"/>
        <pt x="393" y="186" on="1"/>
        <pt x="40" y="186" on="1"/>
      </contour>
      <contour>
        <pt x="145" y="-2" on="0"/>
        <pt x="148" y="24" on="1"/>
        <pt x="154" y="84" on="1"/>
        <pt x="156" y="110" on="0"/>
        <pt x="203" y="110" on="1"/>
        <pt x="211" y="110" on="1"/>
        <pt x="258" y="110" on="0"/>
        <pt x="255" y="84" on="1"/>
        <pt x="249" y="24" on="1"/>
        <pt x="246" y="-2" on="0"/>
        <pt x="199" y="-2" on="1"/>
        <pt x="191" y="-2" on="1"/>
      </contour>
    </TTGlyph>
    <TTGlyph name="dollar" xMin="4" yMin="-71" xMax="416" yMax="759">
      <contour>
        <pt x="169" y="-71" on="0"/>
        <pt x="162" y="-62" on="0"/>
        <pt x="162" y="-51" on="1"/>
        <pt x="166" y="-6" on="1"/>
        <pt x="84" y="-4" on="0"/>
        <pt x="38" y="25" on="1"/>
        <pt x="23" y="33" on="0"/>
        <pt x="5" y="50" on="0"/>
        <pt x="5" y="63" on="1"/>
        <pt x="4" y="85" on="0"/>
        <pt x="26" y="136" on="0"/>
        <pt x="40" y="136" on="1"/>
        <pt x="45" y="136" on="0"/>
        <pt x="55" y="130" on="1"/>
        <pt x="82" y="112" on="0"/>
        <pt x="140" y="95" on="0"/>
        <pt x="176" y="95" on="1"/>
        <pt x="199" y="310" on="1"/>
        <pt x="154" y="335" on="0"/>
        <pt x="94" y="382" on="0"/>
        <pt x="53" y="456" on="0"/>
        <pt x="53" y="509" on="1"/>
        <pt x="53" y="592" on="0"/>
        <pt x="159" y="701" on="0"/>
        <pt x="242" y="708" on="1"/>
        <pt x="245" y="739" on="1"/>
        <pt x="247" y="750" on="0"/>
        <pt x="256" y="759" on="0"/>
        <pt x="267" y="759" on="1"/>
        <pt x="276" y="759" on="1"/>
        <pt x="286" y="759" on="0"/>
        <pt x="293" y="750" on="0"/>
        <pt x="293" y="739" on="1"/>
        <pt x="290" y="709" on="1"/>
        <pt x="323" y="707" on="0"/>
        <pt x="383" y="692" on="0"/>
        <pt x="402" y="681" on="1"/>
        <pt x="416" y="673" on="0"/>
        <pt x="416" y="659" on="1"/>
        <pt x="416" y="641" on="0"/>
        <pt x="393" y="584" on="0"/>
        <pt x="380" y="584" on="1"/>
        <pt x="376" y="584" on="0"/>
        <pt x="363" y="589" on="0"/>
        <pt x="359" y="590" on="1"/>
        <pt x="316" y="608" on="0"/>
        <pt x="279" y="609" on="1"/>
        <pt x="257" y="401" on="1"/>
        <pt x="330" y="362" on="0"/>
        <pt x="400" y="276" on="0"/>
        <pt x="400" y="207" on="1"/>
        <pt x="400" y="118" on="0"/>
        <pt x="301" y="7" on="0"/>
        <pt x="214" y="-4" on="1"/>
        <pt x="209" y="-51" on="1"/>
        <pt x="208" y="-71" on="0"/>
        <pt x="187" y="-71" on="1"/>
        <pt x="179" y="-71" on="1"/>
      </contour>
      <contour>
        <pt x="231" y="603" on="1"/>
        <pt x="198" y="594" on="0"/>
        <pt x="162" y="547" on="0"/>
        <pt x="162" y="511" on="1"/>
        <pt x="162" y="463" on="0"/>
        <pt x="212" y="427" on="1"/>
      </contour>
      <contour>
        <pt x="255" y="113" on="0"/>
        <pt x="290" y="161" on="0"/>
        <pt x="290" y="200" on="1"/>
        <pt x="290" y="250" on="0"/>
        <pt x="244" y="283" on="1"/>
        <pt x="225" y="103" on="1"/>
      </contour>
    </TTGlyph>
    <TTGlyph name="dotaccent" xMin="108" yMin="594" xMax="231" yMax="702">
      <contour>
        <pt x="108" y="594" on="0"/>
        <pt x="113" y="621" on="1"/>
        <pt x="118" y="676" on="1"/>
        <pt x="121" y="702" on="0"/>
        <pt x="176" y="702" on="1"/>
        <pt x="231" y="702" on="0"/>
        <pt x="229" y="676" on="1"/>
        <pt x="223" y="621" on="1"/>
        <pt x="220" y="594" on="0"/>
        <pt x="165" y="594" on="1"/>
      </contour>
    </TTGlyph>
    <TTGlyph name="dotbelowcomb" xMin="-103" yMin="-188" xMax="20" yMax="-80">
      <contour>
        <pt x="-103" y="-188" on="0"/>
        <pt x="-98" y="-161" on="1"/>
        <pt x="-93" y="-106" on="1"/>
        <pt x="-90" y="-80" on="0"/>
        <pt x="-35" y="-80" on="1"/>
        <pt x="20" y="-80" on="0"/>
        <pt x="18" y="-106" on="1"/>
        <pt x="12" y="-161" on="1"/>
        <pt x="9" y="-188" on="0"/>
        <pt x="-46" y="-188" on="1"/>
      </contour>
    </TTGlyph>
    <TTGlyph name="dotlessi" xMin="48" yMin="-5" xMax="212" yMax="525">
      <contour>
        <pt x="95" y="-5" on="0"/>
        <pt x="48" y="37" on="0"/>
        <pt x="48" y="92" on="1"/>
        <pt x="48" y="111" on="0"/>
        <pt x="53" y="178" on="1"/>
        <pt x="61" y="251" on="1"/>
        <pt x="85" y="483" on="0"/>
        <pt x="88" y="499" on="1"/>
        <pt x="91" y="525" on="0"/>
        <pt x="139" y="525" on="1"/>
        <pt x="153" y="525" on="1"/>
        <pt x="200" y="525" on="0"/>
        <pt x="200" y="499" on="1"/>
        <pt x="191" y="410" on="0"/>
        <pt x="182" y="336" on="1"/>
        <pt x="178" y="300" on="0"/>
        <pt x="164" y="167" on="0"/>
        <pt x="161" y="129" on="1"/>
        <pt x="159" y="106" on="0"/>
        <pt x="168" y="87" on="0"/>
        <pt x="179" y="87" on="1"/>
        <pt x="185" y="87" on="0"/>
        <pt x="197" y="91" on="0"/>
        <pt x="201" y="91" on="1"/>
        <pt x="207" y="91" on="0"/>
        <pt x="212" y="77" on="0"/>
        <pt x="212" y="68" on="1"/>
        <pt x="212" y="60" on="0"/>
        <pt x="210" y="50" on="1"/>
        <pt x="206" y="25" on="0"/>
        <pt x="165" y="-5" on="0"/>
        <pt x="134" y="-5" on="1"/>
      </contour>
    </TTGlyph>
    <TTGlyph name="e" xMin="41" yMin="-7" xMax="433" yMax="530">
      <contour>
        <pt x="183" y="209" on="0"/>
        <pt x="155" y="215" on="1"/>
        <pt x="154" y="142" on="0"/>
        <pt x="203" y="85" on="0"/>
        <pt x="251" y="85" on="1"/>
        <pt x="282" y="85" on="0"/>
        <pt x="328" y="105" on="0"/>
        <pt x="352" y="121" on="1"/>
        <pt x="355" y="123" on="0"/>
        <pt x="370" y="132" on="0"/>
        <pt x="374" y="132" on="1"/>
        <pt x="382" y="132" on="0"/>
        <pt x="391" y="113" on="0"/>
        <pt x="391" y="99" on="1"/>
        <pt x="391" y="66" on="0"/>
        <pt x="376" y="44" on="1"/>
        <pt x="358" y="20" on="0"/>
        <pt x="271" y="-7" on="0"/>
        <pt x="235" y="-7" on="1"/>
        <pt x="147" y="-7" on="0"/>
        <pt x="41" y="90" on="0"/>
        <pt x="41" y="199" on="1"/>
        <pt x="41" y="293" on="0"/>
        <pt x="93" y="442" on="0"/>
        <pt x="201" y="530" on="0"/>
        <pt x="281" y="530" on="1"/>
        <pt x="337" y="530" on="0"/>
        <pt x="405" y="485" on="0"/>
        <pt x="433" y="422" on="0"/>
        <pt x="433" y="392" on="1"/>
        <pt x="433" y="306" on="0"/>
        <pt x="317" y="209" on="0"/>
        <pt x="226" y="209" on="1"/>
      </contour>
      <contour>
        <pt x="183" y="438" on="0"/>
        <pt x="161" y="288" on="1"/>
        <pt x="204" y="288" on="1"/>
        <pt x="256" y="288" on="0"/>
        <pt x="326" y="332" on="0"/>
        <pt x="326" y="379" on="1"/>
        <pt x="326" y="406" on="0"/>
        <pt x="298" y="438" on="0"/>
        <pt x="273" y="438" on="1"/>
      </contour>
    </TTGlyph>
    <TTGlyph name="eacute" xMin="41" yMin="-7" xMax="433" yMax="733">
      <component glyphName="e" x="0" y="0" flags="0x0"/>
      <component glyphName="acute" x="183" y="0" flags="0x0"/>
    </TTGlyph>
    <TTGlyph name="ebreve" xMin="41" yMin="-7" xMax="433" yMax="715">
      <component glyphName="e" x="0" y="0" flags="0x0"/>
      <component glyphName="breve" x="120" y="0" flags="0x0"/>
    </TTGlyph>
    <TTGlyph name="ecaron" xMin="41" yMin="-7" xMax="433" yMax="722">
      <component glyphName="e" x="0" y="0" flags="0x0"/>
      <component glyphName="caron" x="121" y="0" flags="0x0"/>
    </TTGlyph>
    <TTGlyph name="ecircumflex" xMin="41" yMin="-7" xMax="433" yMax="718">
      <component glyphName="e" x="0" y="0" flags="0x0"/>
      <component glyphName="circumflex" x="119" y="0" flags="0x0"/>
    </TTGlyph>
    <TTGlyph name="edieresis" xMin="41" yMin="-7" xMax="433" yMax="702">
      <component glyphName="e" x="0" y="0" flags="0x0"/>
      <component glyphName="dieresis" x="117" y="0" flags="0x0"/>
    </TTGlyph>
    <TTGlyph name="edotaccent" xMin="41" yMin="-7" xMax="433" yMax="702">
      <component glyphName="e" x="0" y="0" flags="0x0"/>
      <component glyphName="dotaccent" x="116" y="0" flags="0x0"/>
    </TTGlyph>
    <TTGlyph name="egrave" xMin="41" yMin="-7" xMax="433" yMax="733">
      <component glyphName="e" x="0" y="0" flags="0x0"/>
      <component glyphName="grave" x="112" y="0" flags="0x0"/>
    </TTGlyph>
    <TTGlyph name="eight" xMin="24" yMin="-7" xMax="440" yMax="707">
      <contour>
        <pt x="117" y="-7" on="0"/>
        <pt x="24" y="85" on="0"/>
        <pt x="24" y="167" on="1"/>
        <pt x="24" y="185" on="0"/>
        <pt x="25" y="195" on="1"/>
        <pt x="39" y="323" on="0"/>
        <pt x="140" y="373" on="1"/>
        <pt x="77" y="423" on="0"/>
        <pt x="77" y="501" on="1"/>
        <pt x="77" y="564" on="0"/>
        <pt x="129" y="657" on="0"/>
        <pt x="221" y="707" on="0"/>
        <pt x="279" y="707" on="1"/>
        <pt x="351" y="707" on="0"/>
        <pt x="440" y="629" on="0"/>
        <pt x="440" y="559" on="1"/>
        <pt x="440" y="543" on="0"/>
        <pt x="439" y="535" on="1"/>
        <pt x="428" y="426" on="0"/>
        <pt x="335" y="377" on="1"/>
        <pt x="375" y="352" on="0"/>
        <pt x="421" y="282" on="0"/>
        <pt x="421" y="226" on="1"/>
        <pt x="421" y="218" on="0"/>
        <pt x="419" y="196" on="1"/>
        <pt x="409" y="106" on="0"/>
        <pt x="293" y="-7" on="0"/>
        <pt x="201" y="-7" on="1"/>
      </contour>
      <contour>
        <pt x="321" y="463" on="0"/>
        <pt x="329" y="531" on="1"/>
        <pt x="330" y="536" on="0"/>
        <pt x="330" y="546" on="1"/>
        <pt x="330" y="581" on="0"/>
        <pt x="297" y="615" on="0"/>
        <pt x="269" y="615" on="1"/>
        <pt x="236" y="615" on="0"/>
        <pt x="190" y="565" on="0"/>
        <pt x="190" y="518" on="1"/>
        <pt x="190" y="484" on="0"/>
        <pt x="226" y="442" on="0"/>
        <pt x="260" y="423" on="1"/>
      </contour>
      <contour>
        <pt x="251" y="85" on="0"/>
        <pt x="305" y="157" on="0"/>
        <pt x="305" y="211" on="1"/>
        <pt x="305" y="240" on="0"/>
        <pt x="280" y="282" on="0"/>
        <pt x="244" y="308" on="0"/>
        <pt x="212" y="326" on="1"/>
        <pt x="181" y="304" on="0"/>
        <pt x="144" y="245" on="0"/>
        <pt x="139" y="200" on="1"/>
        <pt x="138" y="192" on="0"/>
        <pt x="138" y="177" on="1"/>
        <pt x="138" y="131" on="0"/>
        <pt x="178" y="85" on="0"/>
        <pt x="210" y="85" on="1"/>
      </contour>
    </TTGlyph>
    <TTGlyph name="ellipsis" xMin="7" yMin="-2" xMax="503" yMax="128">
      <contour>
        <pt x="7" y="-2" on="0"/>
        <pt x="12" y="24" on="1"/>
        <pt x="20" y="102" on="1"/>
        <pt x="22" y="128" on="0"/>
        <pt x="69" y="128" on="1"/>
        <pt x="91" y="128" on="1"/>
        <pt x="138" y="128" on="0"/>
        <pt x="135" y="102" on="1"/>
        <pt x="127" y="24" on="1"/>
        <pt x="124" y="-2" on="0"/>
        <pt x="77" y="-2" on="1"/>
        <pt x="55" y="-2" on="1"/>
      </contour>
      <contour>
        <pt x="192" y="-2" on="0"/>
        <pt x="195" y="24" on="1"/>
        <pt x="203" y="102" on="1"/>
        <pt x="206" y="128" on="0"/>
        <pt x="252" y="128" on="1"/>
        <pt x="274" y="128" on="1"/>
        <pt x="321" y="128" on="0"/>
        <pt x="318" y="102" on="1"/>
        <pt x="310" y="24" on="1"/>
        <pt x="307" y="-2" on="0"/>
        <pt x="260" y="-2" on="1"/>
        <pt x="238" y="-2" on="1"/>
      </contour>
      <contour>
        <pt x="397" y="-2" on="0"/>
        <pt x="376" y="11" on="0"/>
        <pt x="378" y="24" on="1"/>
        <pt x="386" y="102" on="1"/>
        <pt x="389" y="128" on="0"/>
        <pt x="436" y="128" on="1"/>
        <pt x="458" y="128" on="1"/>
        <pt x="482" y="128" on="0"/>
        <pt x="503" y="115" on="0"/>
        <pt x="502" y="102" on="1"/>
        <pt x="494" y="24" on="1"/>
        <pt x="492" y="11" on="0"/>
        <pt x="468" y="-2" on="0"/>
        <pt x="444" y="-2" on="1"/>
        <pt x="422" y="-2" on="1"/>
      </contour>
    </TTGlyph>
    <TTGlyph name="emacron" xMin="41" yMin="-7" xMax="433" yMax="686">
      <component glyphName="e" x="0" y="0" flags="0x0"/>
      <component glyphName="macron" x="119" y="0" flags="0x0"/>
    </TTGlyph>
    <TTGlyph name="emdash" xMin="-1" yMin="222" xMax="889" yMax="308">
      <contour>
        <pt x="-1" y="222" on="0"/>
        <pt x="-1" y="249" on="1"/>
        <pt x="0" y="261" on="1"/>
        <pt x="1" y="270" on="1"/>
        <pt x="4" y="308" on="0"/>
        <pt x="28" y="308" on="1"/>
        <pt x="868" y="308" on="1"/>
        <pt x="880" y="308" on="0"/>
        <pt x="889" y="290" on="0"/>
        <pt x="887" y="270" on="1"/>
        <pt x="886" y="261" on="1"/>
        <pt x="884" y="241" on="0"/>
        <pt x="871" y="222" on="0"/>
        <pt x="859" y="222" on="1"/>
        <pt x="19" y="222" on="1"/>
      </contour>
    </TTGlyph>
    <TTGlyph name="endash" xMin="-1" yMin="222" xMax="446" yMax="308">
      <contour>
        <pt x="-1" y="222" on="0"/>
        <pt x="-1" y="249" on="1"/>
        <pt x="0" y="261" on="1"/>
        <pt x="1" y="270" on="1"/>
        <pt x="4" y="308" on="0"/>
        <pt x="28" y="308" on="1"/>
        <pt x="425" y="308" on="1"/>
        <pt x="437" y="308" on="0"/>
        <pt x="446" y="290" on="0"/>
        <pt x="444" y="270" on="1"/>
        <pt x="443" y="261" on="1"/>
        <pt x="441" y="241" on="0"/>
        <pt x="428" y="222" on="0"/>
        <pt x="416" y="222" on="1"/>
        <pt x="19" y="222" on="1"/>
      </contour>
    </TTGlyph>
    <TTGlyph name="eng" xMin="32" yMin="-212" xMax="429" yMax="530">
      <contour>
        <pt x="165" y="-212" on="0"/>
        <pt x="165" y="-176" on="1"/>
        <pt x="165" y="-164" on="0"/>
        <pt x="184" y="-116" on="0"/>
        <pt x="196" y="-116" on="1"/>
        <pt x="200" y="-116" on="0"/>
        <pt x="218" y="-120" on="0"/>
        <pt x="229" y="-120" on="1"/>
        <pt x="245" y="-120" on="0"/>
        <pt x="263" y="-95" on="0"/>
        <pt x="267" y="-63" on="1"/>
        <pt x="310" y="362" on="1"/>
        <pt x="311" y="368" on="0"/>
        <pt x="311" y="380" on="1"/>
        <pt x="311" y="408" on="0"/>
        <pt x="288" y="435" on="0"/>
        <pt x="263" y="435" on="1"/>
        <pt x="241" y="435" on="0"/>
        <pt x="200" y="405" on="0"/>
        <pt x="186" y="382" on="1"/>
        <pt x="148" y="24" on="1"/>
        <pt x="146" y="-2" on="0"/>
        <pt x="99" y="-2" on="1"/>
        <pt x="78" y="-2" on="1"/>
        <pt x="32" y="-2" on="0"/>
        <pt x="35" y="24" on="1"/>
        <pt x="71" y="363" on="1"/>
        <pt x="76" y="408" on="0"/>
        <pt x="76" y="445" on="1"/>
        <pt x="76" y="461" on="0"/>
        <pt x="74" y="489" on="0"/>
        <pt x="74" y="494" on="1"/>
        <pt x="76" y="508" on="0"/>
        <pt x="139" y="522" on="0"/>
        <pt x="160" y="522" on="1"/>
        <pt x="176" y="522" on="0"/>
        <pt x="185" y="497" on="0"/>
        <pt x="187" y="463" on="0"/>
        <pt x="188" y="454" on="1"/>
        <pt x="213" y="489" on="0"/>
        <pt x="282" y="530" on="0"/>
        <pt x="322" y="530" on="1"/>
        <pt x="374" y="530" on="0"/>
        <pt x="429" y="468" on="0"/>
        <pt x="429" y="410" on="1"/>
        <pt x="429" y="401" on="0"/>
        <pt x="427" y="381" on="1"/>
        <pt x="378" y="-67" on="1"/>
        <pt x="370" y="-143" on="0"/>
        <pt x="293" y="-212" on="0"/>
        <pt x="243" y="-212" on="1"/>
      </contour>
    </TTGlyph>
    <TTGlyph name="eogonek" xMin="41" yMin="-151" xMax="451" yMax="530">
      <contour>
        <pt x="451" y="-80" on="0"/>
        <pt x="451" y="-106" on="1"/>
        <pt x="451" y="-126" on="0"/>
        <pt x="436" y="-135" on="1"/>
        <pt x="410" y="-151" on="0"/>
        <pt x="374" y="-151" on="1"/>
        <pt x="319" y="-151" on="0"/>
        <pt x="280" y="-92" on="0"/>
        <pt x="280" y="-60" on="1"/>
        <pt x="280" y="-32" on="0"/>
        <pt x="292" y="0" on="1"/>
        <pt x="263" y="-7" on="0"/>
        <pt x="235" y="-7" on="1"/>
        <pt x="147" y="-7" on="0"/>
        <pt x="41" y="90" on="0"/>
        <pt x="41" y="199" on="1"/>
        <pt x="41" y="293" on="0"/>
        <pt x="93" y="442" on="0"/>
        <pt x="201" y="530" on="0"/>
        <pt x="281" y="530" on="1"/>
        <pt x="337" y="530" on="0"/>
        <pt x="405" y="485" on="0"/>
        <pt x="433" y="422" on="0"/>
        <pt x="433" y="392" on="1"/>
        <pt x="433" y="306" on="0"/>
        <pt x="317" y="209" on="0"/>
        <pt x="226" y="209" on="1"/>
        <pt x="183" y="209" on="0"/>
        <pt x="155" y="215" on="1"/>
        <pt x="154" y="142" on="0"/>
        <pt x="203" y="85" on="0"/>
        <pt x="251" y="85" on="1"/>
        <pt x="282" y="85" on="0"/>
        <pt x="328" y="105" on="0"/>
        <pt x="352" y="121" on="1"/>
        <pt x="355" y="123" on="0"/>
        <pt x="370" y="132" on="0"/>
        <pt x="374" y="132" on="1"/>
        <pt x="382" y="132" on="0"/>
        <pt x="391" y="113" on="0"/>
        <pt x="391" y="99" on="1"/>
        <pt x="391" y="66" on="0"/>
        <pt x="376" y="44" on="1"/>
        <pt x="363" y="31" on="0"/>
        <pt x="363" y="31" on="1"/>
        <pt x="344" y="-4" on="0"/>
        <pt x="344" y="-42" on="1"/>
        <pt x="344" y="-67" on="0"/>
        <pt x="372" y="-85" on="0"/>
        <pt x="393" y="-85" on="1"/>
        <pt x="401" y="-85" on="0"/>
        <pt x="421" y="-80" on="0"/>
        <pt x="426" y="-80" on="1"/>
      </contour>
      <contour>
        <pt x="183" y="438" on="0"/>
        <pt x="161" y="288" on="1"/>
        <pt x="204" y="288" on="1"/>
        <pt x="256" y="288" on="0"/>
        <pt x="326" y="332" on="0"/>
        <pt x="326" y="379" on="1"/>
        <pt x="326" y="406" on="0"/>
        <pt x="298" y="438" on="0"/>
        <pt x="273" y="438" on="1"/>
      </contour>
    </TTGlyph>
    <TTGlyph name="equal" xMin="20" yMin="98" xMax="423" yMax="354">
      <contour>
        <pt x="38" y="269" on="0"/>
        <pt x="38" y="296" on="1"/>
        <pt x="39" y="308" on="1"/>
        <pt x="40" y="315" on="1"/>
        <pt x="43" y="354" on="0"/>
        <pt x="68" y="354" on="1"/>
        <pt x="402" y="354" on="1"/>
        <pt x="414" y="354" on="0"/>
        <pt x="423" y="336" on="0"/>
        <pt x="421" y="315" on="1"/>
        <pt x="420" y="308" on="1"/>
        <pt x="416" y="269" on="0"/>
        <pt x="393" y="269" on="1"/>
        <pt x="59" y="269" on="1"/>
      </contour>
      <contour>
        <pt x="20" y="98" on="0"/>
        <pt x="20" y="125" on="1"/>
        <pt x="21" y="137" on="1"/>
        <pt x="22" y="144" on="1"/>
        <pt x="25" y="183" on="0"/>
        <pt x="50" y="183" on="1"/>
        <pt x="384" y="183" on="1"/>
        <pt x="396" y="183" on="0"/>
        <pt x="405" y="165" on="0"/>
        <pt x="403" y="144" on="1"/>
        <pt x="402" y="137" on="1"/>
        <pt x="400" y="117" on="0"/>
        <pt x="387" y="98" on="0"/>
        <pt x="375" y="98" on="1"/>
        <pt x="41" y="98" on="1"/>
      </contour>
    </TTGlyph>
    <TTGlyph name="estimated" xMin="22" yMin="-7" xMax="593" yMax="707">
      <contour>
        <pt x="163" y="108" on="1"/>
        <pt x="226" y="48" on="0"/>
        <pt x="320" y="48" on="1"/>
        <pt x="367" y="48" on="0"/>
        <pt x="464" y="93" on="0"/>
        <pt x="492" y="131" on="1"/>
        <pt x="504" y="146" on="0"/>
        <pt x="513" y="146" on="1"/>
        <pt x="525" y="146" on="0"/>
        <pt x="543" y="128" on="0"/>
        <pt x="543" y="118" on="1"/>
        <pt x="543" y="110" on="0"/>
        <pt x="533" y="97" on="1"/>
        <pt x="491" y="48" on="0"/>
        <pt x="380" y="-7" on="0"/>
        <pt x="320" y="-7" on="1"/>
        <pt x="237" y="-7" on="0"/>
        <pt x="102" y="79" on="0"/>
        <pt x="22" y="243" on="0"/>
        <pt x="22" y="355" on="1"/>
        <pt x="22" y="465" on="0"/>
        <pt x="99" y="624" on="0"/>
        <pt x="231" y="707" on="0"/>
        <pt x="312" y="707" on="1"/>
        <pt x="390" y="707" on="0"/>
        <pt x="518" y="624" on="0"/>
        <pt x="593" y="465" on="0"/>
        <pt x="593" y="355" on="1"/>
        <pt x="163" y="355" on="1"/>
      </contour>
      <contour>
        <pt x="426" y="627" on="0"/>
        <pt x="352" y="657" on="0"/>
        <pt x="312" y="657" on="1"/>
        <pt x="224" y="657" on="0"/>
        <pt x="163" y="598" on="1"/>
        <pt x="163" y="405" on="1"/>
        <pt x="456" y="405" on="1"/>
        <pt x="456" y="598" on="1"/>
      </contour>
    </TTGlyph>
</ttFont>
